<svg width="1462" height="402" viewBox="0 0 1462 402" fill="none" xmlns="http://www.w3.org/2000/svg">
<g clip-path="url(#clip0_4503_384)">
<path d="M769.307 303.677C754.952 303.677 743.921 300.573 736.208 294.359C728.499 288.146 724.64 280.968 724.64 272.828C724.64 267.474 726.088 263.349 728.978 260.458C731.869 257.567 735.671 256.119 740.385 256.119C744.244 256.119 747.187 257.083 749.223 259.01C751.26 260.942 752.275 263.51 752.275 266.724C752.275 270.578 751.312 273.791 749.385 276.364C747.458 278.932 746.494 281.505 746.494 284.078C746.494 286.859 748.364 289.218 752.114 291.146C755.864 293.073 761.807 294.036 769.947 294.036C783.015 294.036 792.708 291.573 799.031 286.646C805.348 281.718 808.51 275.828 808.51 268.974C808.51 262.974 806.473 257.942 802.4 253.869C798.333 249.802 793.353 246.104 787.463 242.786C781.572 239.463 775.624 235.932 769.629 232.182C763.629 228.432 758.593 223.828 754.525 218.364C750.452 212.901 748.421 205.994 748.421 197.64C748.421 189.713 750.51 182.427 754.687 175.786C758.864 169.146 764.916 163.791 772.843 159.724C780.765 155.651 790.301 153.614 801.437 153.614C809.577 153.614 816.437 154.739 822.004 156.989C827.572 159.239 831.807 162.239 834.697 165.989C837.588 169.734 839.036 174.073 839.036 179C839.036 183.927 837.64 187.89 834.859 190.89C832.072 193.89 828.536 195.39 824.254 195.39C821.041 195.39 818.468 194.531 816.541 192.817C814.614 191.104 813.65 188.75 813.65 185.75C813.65 182.536 814.504 180.021 816.218 178.198C817.932 176.375 818.791 174.182 818.791 171.609C818.791 168.609 817.077 166.307 813.65 164.703C810.223 163.093 805.614 162.291 799.833 162.291C791.906 162.291 785.265 163.901 779.911 167.114C774.557 170.323 771.874 175.146 771.874 181.573C771.874 187.354 773.859 192.177 777.822 196.031C781.786 199.885 786.765 203.422 792.765 206.635C798.76 209.849 804.708 213.385 810.598 217.239C816.489 221.093 821.416 225.859 825.379 231.536C829.343 237.213 831.322 244.448 831.322 253.229C831.322 263.083 828.536 271.812 822.968 279.416C817.4 287.021 809.9 292.968 800.473 297.25C791.051 301.536 780.661 303.677 769.307 303.677Z" fill="#27272A"/>
<path d="M863.136 303.677C855.209 303.677 849.104 301.641 844.818 297.573C840.531 293.5 838.391 288.146 838.391 281.505C838.391 279.792 838.552 278.078 838.875 276.365C839.193 274.651 839.464 273.042 839.677 271.547L876.63 118.594H911.011L873.417 268.333C872.771 271.115 872.344 273.365 872.13 275.078C871.917 276.792 871.808 278.188 871.808 279.255C871.808 284.609 874.167 287.292 878.88 287.292C884.021 287.292 889.589 284.182 895.589 277.969C901.584 271.76 908.229 261.156 915.511 246.161L921.938 249.052C917.865 258.047 912.995 266.724 907.318 275.078C901.641 283.432 895.162 290.286 887.875 295.646C880.594 301 872.344 303.677 863.136 303.677ZM844.818 162.932V154.901H930.615V162.932H844.818Z" fill="#27272A"/>
<path d="M953.747 303.354C945.606 303.354 938.538 301.266 932.538 297.089C926.544 292.912 923.544 286.219 923.544 277.006C923.544 272.938 924.184 268.224 925.471 262.87L951.82 154.901H985.236L957.606 270.261C957.393 271.761 957.122 273.203 956.799 274.599C956.481 275.99 956.32 277.328 956.32 278.615C956.32 282.256 957.445 284.933 959.695 286.646C961.945 288.36 964.783 289.219 968.21 289.219C973.137 289.219 978.169 287.719 983.309 284.719C988.45 281.719 993.377 277.49 998.091 272.026C1002.8 266.563 1007.03 260.297 1010.78 253.229C1014.53 246.162 1017.59 238.448 1019.94 230.094L1012.87 268.651H1010.62C1003.98 277.438 995.898 285.417 986.361 292.594C976.83 299.766 965.96 303.354 953.747 303.354ZM926.434 162.933V154.901H977.528V162.933H926.434ZM1037.93 303.354C1033.87 303.354 1029.8 302.448 1025.73 300.625C1021.66 298.802 1018.34 295.698 1015.77 291.308C1013.19 286.917 1011.91 280.865 1011.91 273.151C1011.91 270.151 1012.18 266.724 1012.71 262.87C1013.25 259.011 1014.05 254.729 1015.12 250.016L1037.93 154.901H1070.71L1046.61 252.266C1045.11 258.907 1043.93 264.526 1043.08 269.136C1042.22 273.74 1041.79 277.438 1041.79 280.219C1041.79 286.646 1043.93 289.86 1048.22 289.86C1052.72 289.86 1057.7 286.485 1063.16 279.74C1068.62 272.99 1074.36 263.407 1080.35 250.979L1086.78 253.87C1082.5 264.157 1077.89 272.99 1072.96 280.381C1068.03 287.771 1062.73 293.448 1057.05 297.412C1051.38 301.375 1045.01 303.354 1037.93 303.354Z" fill="#27272A"/>
<path d="M1199.57 303.677C1192.28 303.677 1186.39 301.536 1181.89 297.25C1177.39 292.969 1175.14 285.792 1175.14 275.724C1175.14 272.51 1175.41 268.76 1175.95 264.474C1176.48 260.193 1177.39 255.479 1178.68 250.339L1224.63 57.2188H1259.01L1206.96 268.333C1206.31 271.115 1205.88 273.365 1205.67 275.078C1205.46 276.792 1205.35 278.188 1205.35 279.255C1205.35 284.609 1207.81 287.292 1212.74 287.292C1218.1 287.292 1223.83 284.182 1229.93 277.969C1236.03 271.76 1242.95 261.156 1250.65 246.161L1257.08 249.052C1252.37 258.479 1247.28 267.365 1241.82 275.724C1236.36 284.078 1230.2 290.823 1223.34 295.964C1216.49 301.104 1208.56 303.677 1199.57 303.677ZM1130.16 303.677C1120.73 303.677 1111.95 301.375 1103.81 296.771C1095.67 292.161 1089.13 285.521 1084.21 276.844C1079.28 268.172 1076.82 257.62 1076.82 245.193C1076.82 232.771 1079.34 220.88 1084.37 209.526C1089.4 198.172 1096.05 188.104 1104.29 179.323C1112.54 170.542 1121.64 163.63 1131.6 158.599C1141.57 153.563 1151.47 151.047 1161.33 151.047C1170.75 151.047 1178.03 153.24 1183.18 157.635C1188.32 162.026 1192.28 167.646 1195.07 174.505H1197.32L1189.93 203.745C1190.35 201.599 1190.62 199.568 1190.73 197.641C1190.84 195.708 1190.89 193.995 1190.89 192.495C1190.89 183.5 1188.32 175.896 1183.18 169.682C1178.03 163.469 1171.72 160.365 1164.22 160.365C1157.79 160.365 1151.9 162.719 1146.55 167.432C1141.19 172.146 1136.48 178.307 1132.41 185.911C1128.34 193.516 1124.86 201.818 1121.96 210.813C1119.07 219.813 1116.93 228.698 1115.54 237.484C1114.14 246.266 1113.45 254.083 1113.45 260.943C1113.45 272.51 1115.43 280.807 1119.39 285.844C1123.36 290.88 1128.98 293.396 1136.26 293.396C1140.33 293.396 1144.83 292.271 1149.76 290.021C1154.69 287.771 1159.77 283.167 1165.02 276.203C1170.27 269.24 1175.25 258.797 1179.96 244.875L1176.11 277.005H1173.86C1169.79 284.505 1164.11 290.823 1156.83 295.964C1149.55 301.104 1140.65 303.677 1130.16 303.677ZM1192.5 65.25V57.2188H1255.15V65.25H1192.5Z" fill="#27272A"/>
<path d="M1297.25 107.344C1291.25 107.344 1286.16 105.256 1281.99 101.078C1277.81 96.9014 1275.72 91.8128 1275.72 85.818C1275.72 79.6045 1277.81 74.4066 1281.99 70.2295C1286.16 66.0524 1291.25 63.9639 1297.25 63.9639C1303.46 63.9639 1308.66 66.0524 1312.83 70.2295C1317.01 74.4066 1319.1 79.6045 1319.1 85.818C1319.1 91.8128 1317.01 96.9014 1312.83 101.078C1308.66 105.256 1303.46 107.344 1297.25 107.344ZM1264.79 303.677C1256.87 303.677 1250.76 301.641 1246.48 297.573C1242.19 293.5 1240.05 288.146 1240.05 281.506C1240.05 279.792 1240.22 278.078 1240.53 276.365C1240.86 274.651 1241.12 273.042 1241.34 271.547L1269.29 154.901H1303.67L1275.08 268.334C1274.43 271.115 1274.01 273.365 1273.79 275.078C1273.58 276.792 1273.47 278.188 1273.47 279.256C1273.47 284.61 1275.83 287.292 1280.54 287.292C1285.68 287.292 1291.25 284.183 1297.25 277.969C1303.25 271.761 1309.89 261.157 1317.17 246.162L1323.6 249.052C1319.53 258.047 1314.65 266.724 1308.98 275.078C1303.3 283.433 1296.82 290.287 1289.54 295.646C1282.25 301 1274.01 303.677 1264.79 303.677ZM1239.09 162.933V154.901H1299.82V162.933H1239.09Z" fill="#27272A"/>
<path d="M1369.55 303.677C1357.77 303.677 1347.48 301 1338.7 295.646C1329.92 290.286 1323.06 283.057 1318.13 273.953C1313.21 264.849 1310.74 254.729 1310.74 243.589C1310.74 232.234 1313.26 221.042 1318.29 210.01C1323.33 198.979 1330.13 189.016 1338.7 180.125C1347.27 171.234 1357.02 164.167 1367.94 158.917C1378.87 153.672 1390.33 151.047 1402.33 151.047C1414.11 151.047 1424.39 153.615 1433.17 158.755C1441.96 163.901 1448.81 170.859 1453.74 179.646C1458.66 188.427 1461.13 198.391 1461.13 209.526C1461.13 220.88 1458.61 232.13 1453.58 243.266C1448.54 254.406 1441.74 264.526 1433.17 273.635C1424.6 282.74 1414.86 290.021 1403.93 295.484C1393 300.948 1381.54 303.677 1369.55 303.677ZM1370.19 295.646C1378.97 295.646 1386.74 292.594 1393.49 286.484C1400.24 280.38 1405.91 272.453 1410.52 262.708C1415.12 252.958 1418.61 242.359 1420.96 230.896C1423.31 219.438 1424.5 208.349 1424.5 197.641C1424.5 186.286 1422.84 177.021 1419.51 169.844C1416.2 162.667 1409.93 159.078 1400.72 159.078C1392.15 159.078 1384.54 162.188 1377.9 168.396C1371.26 174.609 1365.64 182.698 1361.03 192.656C1356.42 202.62 1352.95 213.438 1350.59 225.115C1348.23 236.786 1347.05 247.979 1347.05 258.693C1347.05 270.688 1348.77 279.844 1352.2 286.167C1355.62 292.484 1361.62 295.646 1370.19 295.646Z" fill="#27272A"/>
<mask id="mask0_4503_384" style="mask-type:luminance" maskUnits="userSpaceOnUse" x="0" y="0" width="719" height="402">
<path d="M718.667 0H0V401.333H718.667V0Z" fill="white"/>
</mask>
<g mask="url(#mask0_4503_384)">
<path d="M77.9753 299.937C69.5691 299.937 61.4597 299.249 53.642 297.874C45.8191 296.515 38.6316 294.661 32.0795 292.312C25.5222 289.968 19.7983 286.932 14.9128 283.208L24.892 257.687C29.7774 260.827 35.1524 263.52 41.017 265.77C46.892 268.01 52.9545 269.666 59.2045 270.749C65.4649 271.822 71.5274 272.354 77.392 272.354C87.5587 272.354 95.1316 270.937 100.121 268.104C105.106 265.27 107.6 261.218 107.6 255.937C107.6 251.437 106.085 248.015 103.059 245.666C100.027 243.322 95.1889 241.661 88.5378 240.687L57.7462 235.395C44.8399 233.26 35.0639 228.666 28.4128 221.624C21.7566 214.583 18.4337 205.786 18.4337 195.229C18.4337 186.036 20.9753 178.015 26.0587 171.166C31.1524 164.322 38.4858 158.947 48.0587 155.041C57.642 151.124 68.9858 149.166 82.1003 149.166C89.1264 149.166 96.1108 149.807 103.059 151.083C110.001 152.348 116.455 154.202 122.413 156.645C128.382 159.093 133.522 162.176 137.83 165.895L127.267 191.416C123.543 188.281 119.142 185.64 114.059 183.499C108.975 181.348 103.694 179.687 98.2253 178.52C92.7514 177.343 87.4753 176.749 82.392 176.749C72.2253 176.749 64.6941 178.265 59.8087 181.291C54.9181 184.322 52.4753 188.473 52.4753 193.749C52.4753 198.057 53.892 201.432 56.7253 203.874C59.5587 206.322 64.0014 208.031 70.0587 208.999L100.267 214.291C114.152 216.64 124.522 221.093 131.371 227.645C138.215 234.187 141.642 243.031 141.642 254.166C141.642 263.749 138.996 271.968 133.705 278.812C128.423 285.661 121.043 290.895 111.559 294.52C102.085 298.13 90.892 299.937 77.9753 299.937Z" fill="#27272A"/>
<path d="M199.71 299.937C189.153 299.937 179.715 297.937 171.398 293.937C163.09 289.926 156.544 284.447 151.752 277.499C146.96 270.557 144.564 262.781 144.564 254.166C144.564 243.416 147.492 234.869 153.356 228.52C159.231 222.161 168.523 217.515 181.231 214.583C193.939 211.656 210.554 210.187 231.085 210.187H248.398V232.479H232.273C223.075 232.479 215.299 232.822 208.939 233.499C202.591 234.182 197.408 235.26 193.398 236.729C189.398 238.187 186.465 240.187 184.606 242.729C182.742 245.27 181.814 248.406 181.814 252.124C181.814 258.781 184.158 263.968 188.856 267.687C193.549 271.395 200.002 273.249 208.21 273.249C214.861 273.249 220.825 271.687 226.106 268.562C231.382 265.426 235.632 261.166 238.856 255.791C242.091 250.416 243.71 244.406 243.71 237.749V204.895C243.71 195.119 241.216 188.182 236.231 184.083C231.242 179.973 223.273 177.916 212.314 177.916C204.299 177.916 196.033 179.093 187.523 181.437C179.023 183.786 170.278 187.598 161.294 192.874L150.731 166.77C156.398 163.051 162.846 159.916 170.085 157.374C177.32 154.833 184.898 152.833 192.814 151.374C200.731 149.906 208.403 149.166 215.835 149.166C229.721 149.166 241.46 151.322 251.044 155.624C260.627 159.932 267.861 166.489 272.752 175.291C277.637 184.083 280.085 195.515 280.085 209.583V296.999H246.335V266.791H247.231C245.273 273.239 242.091 278.952 237.689 283.937C233.283 288.926 227.903 292.843 221.544 295.687C215.195 298.52 207.919 299.937 199.71 299.937Z" fill="#27272A"/>
<path d="M352.805 299.937C344.399 299.937 336.29 299.249 328.472 297.874C320.649 296.515 313.462 294.661 306.91 292.312C300.352 289.968 294.628 286.932 289.743 283.208L299.722 257.687C304.608 260.827 309.983 263.52 315.847 265.77C321.722 268.01 327.785 269.666 334.035 270.749C340.295 271.822 346.358 272.354 352.222 272.354C362.389 272.354 369.962 270.937 374.951 268.104C379.936 265.27 382.43 261.218 382.43 255.937C382.43 251.437 380.915 248.015 377.889 245.666C374.858 243.322 370.019 241.661 363.368 240.687L332.576 235.395C319.67 233.26 309.894 228.666 303.243 221.624C296.587 214.583 293.264 205.786 293.264 195.229C293.264 186.036 295.805 178.015 300.889 171.166C305.983 164.322 313.316 158.947 322.889 155.041C332.472 151.124 343.816 149.166 356.93 149.166C363.956 149.166 370.941 149.807 377.889 151.083C384.831 152.348 391.285 154.202 397.243 156.645C403.212 159.093 408.352 162.176 412.66 165.895L402.097 191.416C398.373 188.281 393.972 185.64 388.889 183.499C383.805 181.348 378.524 179.687 373.055 178.52C367.581 177.343 362.305 176.749 357.222 176.749C347.055 176.749 339.524 178.265 334.639 181.291C329.748 184.322 327.305 188.473 327.305 193.749C327.305 198.057 328.722 201.432 331.555 203.874C334.389 206.322 338.831 208.031 344.889 208.999L375.097 214.291C388.983 216.64 399.352 221.093 406.201 227.645C413.045 234.187 416.472 243.031 416.472 254.166C416.472 263.749 413.826 271.968 408.535 278.812C403.253 285.661 395.873 290.895 386.389 294.52C376.915 298.13 365.722 299.937 352.805 299.937Z" fill="#27272A"/>
<path d="M425.27 297V90.208H462.52V180.562H460.457C464.957 170.593 471.697 162.869 480.686 157.396C489.686 151.911 499.957 149.166 511.499 149.166C523.233 149.166 533.009 151.369 540.832 155.771C548.65 160.177 554.509 166.875 558.416 175.875C562.332 184.864 564.291 196.203 564.291 209.896V297H526.166V211.646C526.166 204.411 525.233 198.448 523.374 193.75C521.509 189.057 518.624 185.536 514.707 183.187C510.801 180.843 505.728 179.666 499.478 179.666C492.436 179.666 486.171 181.239 480.686 184.375C475.212 187.5 470.962 191.906 467.936 197.583C464.905 203.25 463.395 209.698 463.395 216.916V297H425.27Z" fill="#27272A"/>
<path d="M631.168 299.937C620.61 299.937 611.173 297.937 602.855 293.937C594.548 289.926 588.001 284.447 583.209 277.499C578.418 270.557 576.022 262.781 576.022 254.166C576.022 243.416 578.949 234.869 584.813 228.52C590.688 222.161 599.98 217.515 612.688 214.583C625.397 211.656 642.011 210.187 662.543 210.187H679.855V232.479H663.73C654.532 232.479 646.756 232.822 640.397 233.499C634.048 234.182 628.865 235.26 624.855 236.729C620.855 238.187 617.923 240.187 616.063 242.729C614.199 245.27 613.272 248.406 613.272 252.124C613.272 258.781 615.615 263.968 620.313 267.687C625.006 271.395 631.459 273.249 639.668 273.249C646.319 273.249 652.282 271.687 657.563 268.562C662.839 265.426 667.089 261.166 670.313 255.791C673.548 250.416 675.168 244.406 675.168 237.749V204.895C675.168 195.119 672.673 188.182 667.688 184.083C662.699 179.973 654.73 177.916 643.772 177.916C635.756 177.916 627.49 179.093 618.98 181.437C610.48 183.786 601.735 187.598 592.751 192.874L582.188 166.77C587.855 163.051 594.303 159.916 601.543 157.374C608.777 154.833 616.355 152.833 624.272 151.374C632.188 149.906 639.86 149.166 647.293 149.166C661.178 149.166 672.918 151.322 682.501 155.624C692.084 159.932 699.319 166.489 704.209 175.291C709.095 184.083 711.543 195.515 711.543 209.583V296.999H677.793V266.791H678.688C676.73 273.239 673.548 278.952 669.147 283.937C664.74 288.926 659.36 292.843 653.001 295.687C646.652 298.52 639.376 299.937 631.168 299.937Z" fill="#27272A"/>
</g>
</g>
<defs>
<clipPath id="clip0_4503_384">
<rect width="1461.67" height="401.333" fill="white"/>
</clipPath>
</defs>
</svg>
