<svg width="1462" height="402" viewBox="0 0 1462 402" fill="none" xmlns="http://www.w3.org/2000/svg">
<g clip-path="url(#clip0_4503_334)">
<path d="M769.306 303.677C754.952 303.677 743.921 300.573 736.207 294.36C728.499 288.146 724.64 280.969 724.64 272.828C724.64 267.474 726.088 263.349 728.978 260.458C731.869 257.568 735.671 256.12 740.384 256.12C744.244 256.12 747.187 257.083 749.223 259.011C751.259 260.943 752.275 263.511 752.275 266.724C752.275 270.578 751.312 273.792 749.384 276.365C747.457 278.932 746.494 281.505 746.494 284.078C746.494 286.86 748.364 289.219 752.114 291.146C755.864 293.073 761.806 294.037 769.947 294.037C783.015 294.037 792.707 291.573 799.03 286.646C805.348 281.719 808.509 275.828 808.509 268.974C808.509 262.974 806.473 257.943 802.4 253.87C798.332 249.802 793.353 246.104 787.463 242.787C781.572 239.464 775.624 235.932 769.629 232.182C763.629 228.432 758.593 223.828 754.525 218.365C750.452 212.901 748.421 205.995 748.421 197.641C748.421 189.714 750.509 182.427 754.687 175.787C758.864 169.146 764.916 163.792 772.843 159.724C780.765 155.651 790.301 153.615 801.437 153.615C809.577 153.615 816.437 154.74 822.004 156.99C827.572 159.24 831.806 162.24 834.697 165.99C837.588 169.735 839.035 174.073 839.035 179C839.035 183.927 837.64 187.891 834.858 190.891C832.072 193.891 828.535 195.391 824.254 195.391C821.041 195.391 818.468 194.531 816.541 192.818C814.614 191.104 813.65 188.75 813.65 185.75C813.65 182.537 814.504 180.021 816.218 178.198C817.931 176.375 818.791 174.182 818.791 171.61C818.791 168.61 817.077 166.307 813.65 164.703C810.223 163.094 805.614 162.292 799.832 162.292C791.905 162.292 785.265 163.901 779.91 167.115C774.556 170.323 771.874 175.146 771.874 181.573C771.874 187.354 773.858 192.177 777.822 196.031C781.785 199.886 786.765 203.422 792.765 206.636C798.759 209.849 804.707 213.386 810.598 217.24C816.489 221.094 821.416 225.86 825.379 231.537C829.343 237.214 831.322 244.448 831.322 253.229C831.322 263.083 828.535 271.813 822.968 279.417C817.4 287.021 809.9 292.969 800.473 297.25C791.051 301.537 780.66 303.677 769.306 303.677Z" fill="#F8F8F5"/>
<path d="M863.135 303.677C855.208 303.677 849.104 301.641 844.818 297.573C840.531 293.5 838.391 288.146 838.391 281.505C838.391 279.792 838.552 278.078 838.875 276.365C839.193 274.651 839.464 273.042 839.677 271.547L876.63 118.594H911.01L873.417 268.333C872.771 271.115 872.344 273.365 872.13 275.078C871.917 276.792 871.807 278.188 871.807 279.255C871.807 284.609 874.167 287.292 878.88 287.292C884.021 287.292 889.589 284.182 895.589 277.969C901.583 271.76 908.229 261.156 915.51 246.161L921.938 249.052C917.865 258.047 912.995 266.724 907.318 275.078C901.641 283.432 895.161 290.286 887.875 295.646C880.594 301 872.344 303.677 863.135 303.677ZM844.818 162.932V154.901H930.615V162.932H844.818Z" fill="#F8F8F5"/>
<path d="M953.747 303.354C945.606 303.354 938.538 301.265 932.538 297.088C926.543 292.911 923.543 286.219 923.543 277.005C923.543 272.937 924.184 268.224 925.471 262.87L951.819 154.901H985.236L957.606 270.26C957.392 271.76 957.122 273.203 956.799 274.599C956.481 275.989 956.319 277.328 956.319 278.614C956.319 282.255 957.444 284.932 959.694 286.646C961.944 288.359 964.783 289.219 968.21 289.219C973.137 289.219 978.168 287.719 983.309 284.719C988.45 281.719 993.377 277.489 998.09 272.026C1002.8 266.562 1007.03 260.297 1010.78 253.229C1014.53 246.161 1017.59 238.448 1019.94 230.094L1012.87 268.651H1010.62C1003.98 277.437 995.898 285.417 986.361 292.594C976.83 299.765 965.96 303.354 953.747 303.354ZM926.434 162.932V154.901H977.528V162.932H926.434ZM1037.93 303.354C1033.87 303.354 1029.8 302.448 1025.73 300.625C1021.66 298.802 1018.34 295.698 1015.77 291.307C1013.19 286.917 1011.91 280.864 1011.91 273.151C1011.91 270.151 1012.18 266.724 1012.71 262.87C1013.25 259.01 1014.05 254.729 1015.12 250.015L1037.93 154.901H1070.71L1046.61 252.265C1045.11 258.906 1043.93 264.526 1043.08 269.135C1042.22 273.739 1041.79 277.437 1041.79 280.219C1041.79 286.646 1043.93 289.859 1048.22 289.859C1052.72 289.859 1057.7 286.484 1063.16 279.739C1068.62 272.989 1074.36 263.406 1080.35 250.979L1086.78 253.87C1082.5 264.156 1077.89 272.989 1072.96 280.38C1068.03 287.771 1062.73 293.448 1057.05 297.411C1051.38 301.375 1045.01 303.354 1037.93 303.354Z" fill="#F8F8F5"/>
<path d="M1199.57 303.677C1192.28 303.677 1186.39 301.536 1181.89 297.25C1177.39 292.969 1175.14 285.792 1175.14 275.724C1175.14 272.51 1175.41 268.76 1175.95 264.474C1176.48 260.193 1177.39 255.479 1178.68 250.339L1224.63 57.2188H1259.01L1206.96 268.333C1206.31 271.115 1205.88 273.365 1205.67 275.078C1205.46 276.792 1205.35 278.188 1205.35 279.255C1205.35 284.609 1207.81 287.292 1212.74 287.292C1218.1 287.292 1223.83 284.182 1229.93 277.969C1236.03 271.76 1242.95 261.156 1250.65 246.161L1257.08 249.052C1252.37 258.479 1247.28 267.365 1241.82 275.724C1236.36 284.078 1230.2 290.823 1223.34 295.964C1216.49 301.104 1208.56 303.677 1199.57 303.677ZM1130.16 303.677C1120.73 303.677 1111.95 301.375 1103.81 296.771C1095.67 292.161 1089.13 285.521 1084.21 276.844C1079.28 268.172 1076.82 257.62 1076.82 245.193C1076.82 232.771 1079.34 220.88 1084.37 209.526C1089.4 198.172 1096.05 188.104 1104.29 179.323C1112.54 170.542 1121.64 163.63 1131.6 158.599C1141.57 153.563 1151.47 151.047 1161.33 151.047C1170.75 151.047 1178.03 153.24 1183.18 157.635C1188.32 162.026 1192.28 167.646 1195.07 174.505H1197.32L1189.93 203.745C1190.35 201.599 1190.62 199.568 1190.73 197.641C1190.84 195.708 1190.89 193.995 1190.89 192.495C1190.89 183.5 1188.32 175.896 1183.18 169.682C1178.03 163.469 1171.72 160.365 1164.22 160.365C1157.79 160.365 1151.9 162.719 1146.55 167.432C1141.19 172.146 1136.48 178.307 1132.41 185.911C1128.34 193.516 1124.86 201.818 1121.96 210.813C1119.07 219.813 1116.93 228.698 1115.54 237.484C1114.14 246.266 1113.45 254.083 1113.45 260.943C1113.45 272.51 1115.43 280.807 1119.39 285.844C1123.36 290.88 1128.98 293.396 1136.26 293.396C1140.33 293.396 1144.83 292.271 1149.76 290.021C1154.69 287.771 1159.77 283.167 1165.02 276.203C1170.27 269.24 1175.25 258.797 1179.96 244.875L1176.11 277.005H1173.86C1169.79 284.505 1164.11 290.823 1156.83 295.964C1149.55 301.104 1140.65 303.677 1130.16 303.677ZM1192.5 65.25V57.2188H1255.15V65.25H1192.5Z" fill="#F8F8F5"/>
<path d="M1297.25 107.344C1291.25 107.344 1286.16 105.255 1281.99 101.078C1277.81 96.9009 1275.72 91.8123 1275.72 85.8175C1275.72 79.604 1277.81 74.4061 1281.99 70.229C1286.16 66.0519 1291.25 63.9634 1297.25 63.9634C1303.46 63.9634 1308.66 66.0519 1312.83 70.229C1317.01 74.4061 1319.1 79.604 1319.1 85.8175C1319.1 91.8123 1317.01 96.9009 1312.83 101.078C1308.66 105.255 1303.46 107.344 1297.25 107.344ZM1264.79 303.677C1256.87 303.677 1250.76 301.64 1246.48 297.573C1242.19 293.5 1240.05 288.146 1240.05 281.505C1240.05 279.792 1240.21 278.078 1240.53 276.364C1240.86 274.651 1241.12 273.042 1241.34 271.547L1269.29 154.901H1303.67L1275.08 268.333C1274.43 271.114 1274.01 273.364 1273.79 275.078C1273.58 276.792 1273.47 278.187 1273.47 279.255C1273.47 284.609 1275.83 287.292 1280.54 287.292C1285.68 287.292 1291.25 284.182 1297.25 277.969C1303.25 271.76 1309.89 261.156 1317.17 246.161L1323.6 249.052C1319.53 258.047 1314.65 266.724 1308.98 275.078C1303.3 283.432 1296.82 290.286 1289.54 295.646C1282.25 301 1274.01 303.677 1264.79 303.677ZM1239.09 162.932V154.901H1299.82V162.932H1239.09Z" fill="#F8F8F5"/>
<path d="M1369.55 303.677C1357.77 303.677 1347.48 301 1338.7 295.646C1329.92 290.286 1323.06 283.057 1318.13 273.953C1313.21 264.849 1310.74 254.729 1310.74 243.589C1310.74 232.234 1313.26 221.042 1318.29 210.01C1323.33 198.979 1330.13 189.016 1338.7 180.125C1347.27 171.234 1357.02 164.167 1367.94 158.917C1378.87 153.672 1390.33 151.047 1402.33 151.047C1414.11 151.047 1424.39 153.615 1433.17 158.755C1441.96 163.901 1448.81 170.859 1453.74 179.646C1458.66 188.427 1461.13 198.391 1461.13 209.526C1461.13 220.88 1458.61 232.13 1453.58 243.266C1448.54 254.406 1441.74 264.526 1433.17 273.635C1424.6 282.74 1414.86 290.021 1403.93 295.484C1393 300.948 1381.54 303.677 1369.55 303.677ZM1370.19 295.646C1378.97 295.646 1386.74 292.594 1393.49 286.484C1400.24 280.38 1405.91 272.453 1410.52 262.708C1415.12 252.958 1418.61 242.359 1420.96 230.896C1423.31 219.438 1424.5 208.349 1424.5 197.641C1424.5 186.286 1422.84 177.021 1419.51 169.844C1416.19 162.667 1409.93 159.078 1400.72 159.078C1392.15 159.078 1384.54 162.188 1377.9 168.396C1371.26 174.609 1365.64 182.698 1361.03 192.656C1356.42 202.62 1352.94 213.438 1350.59 225.115C1348.23 236.786 1347.05 247.979 1347.05 258.693C1347.05 270.688 1348.77 279.844 1352.19 286.167C1355.62 292.484 1361.62 295.646 1370.19 295.646Z" fill="#F8F8F5"/>
<mask id="mask0_4503_334" style="mask-type:luminance" maskUnits="userSpaceOnUse" x="0" y="0" width="719" height="402">
<path d="M718.667 0H0V401.333H718.667V0Z" fill="white"/>
</mask>
<g mask="url(#mask0_4503_334)">
<path d="M77.9751 299.937C69.5688 299.937 61.4595 299.25 53.6418 297.875C45.8188 296.515 38.6313 294.661 32.0793 292.312C25.522 289.969 19.798 286.932 14.9126 283.208L24.8918 257.687C29.7772 260.828 35.1522 263.521 41.0168 265.771C46.8918 268.01 52.9543 269.667 59.2043 270.75C65.4647 271.823 71.5272 272.354 77.3918 272.354C87.5584 272.354 95.1314 270.937 100.121 268.104C105.105 265.271 107.6 261.219 107.6 255.937C107.6 251.437 106.084 248.015 103.058 245.667C100.027 243.323 95.1886 241.661 88.5376 240.687L57.7459 235.396C44.8397 233.26 35.0636 228.667 28.4126 221.625C21.7563 214.583 18.4334 205.786 18.4334 195.229C18.4334 186.036 20.9751 178.015 26.0584 171.167C31.1522 164.323 38.4855 158.948 48.0584 155.042C57.6418 151.125 68.9855 149.167 82.1001 149.167C89.1261 149.167 96.1105 149.807 103.058 151.083C110.001 152.349 116.454 154.203 122.413 156.646C128.381 159.094 133.522 162.177 137.829 165.896L127.267 191.417C123.543 188.281 119.142 185.64 114.058 183.5C108.975 181.349 103.694 179.687 98.2251 178.521C92.7511 177.344 87.4751 176.75 82.3918 176.75C72.2251 176.75 64.6938 178.265 59.8084 181.292C54.9178 184.323 52.4751 188.474 52.4751 193.75C52.4751 198.057 53.8918 201.432 56.7251 203.875C59.5584 206.323 64.0011 208.031 70.0584 209L100.267 214.292C114.152 216.64 124.522 221.094 131.371 227.646C138.215 234.187 141.642 243.031 141.642 254.167C141.642 263.75 138.996 271.969 133.704 278.812C128.423 285.661 121.043 290.896 111.558 294.521C102.084 298.13 90.8918 299.937 77.9751 299.937Z" fill="#F8F8F5"/>
<path d="M199.71 299.937C189.153 299.937 179.715 297.937 171.397 293.937C163.09 289.927 156.543 284.448 151.751 277.5C146.96 270.557 144.564 262.781 144.564 254.167C144.564 243.417 147.491 234.87 153.356 228.521C159.231 222.161 168.522 217.515 181.231 214.583C193.939 211.656 210.554 210.187 231.085 210.187H248.397V232.479H232.272C223.074 232.479 215.298 232.823 208.939 233.5C202.59 234.182 197.408 235.26 193.397 236.729C189.397 238.187 186.465 240.187 184.606 242.729C182.741 245.271 181.814 248.406 181.814 252.125C181.814 258.781 184.158 263.969 188.856 267.687C193.548 271.396 200.001 273.25 208.21 273.25C214.861 273.25 220.824 271.687 226.106 268.562C231.382 265.427 235.632 261.167 238.856 255.792C242.09 250.417 243.71 244.406 243.71 237.75V204.896C243.71 195.12 241.215 188.182 236.231 184.083C231.241 179.974 223.272 177.917 212.314 177.917C204.298 177.917 196.033 179.094 187.522 181.437C179.022 183.786 170.278 187.599 161.293 192.875L150.731 166.771C156.397 163.052 162.845 159.917 170.085 157.375C177.319 154.833 184.897 152.833 192.814 151.375C200.731 149.906 208.403 149.167 215.835 149.167C229.72 149.167 241.46 151.323 251.043 155.625C260.626 159.932 267.861 166.489 272.751 175.292C277.637 184.083 280.085 195.515 280.085 209.583V297H246.335V266.792H247.231C245.272 273.239 242.09 278.953 237.689 283.937C233.283 288.927 227.903 292.844 221.543 295.687C215.194 298.521 207.918 299.937 199.71 299.937Z" fill="#F8F8F5"/>
<path d="M352.805 299.937C344.399 299.937 336.29 299.25 328.472 297.875C320.649 296.515 313.461 294.661 306.909 292.312C300.352 289.969 294.628 286.932 289.743 283.208L299.722 257.687C304.607 260.828 309.982 263.521 315.847 265.771C321.722 268.01 327.784 269.667 334.034 270.75C340.295 271.823 346.357 272.354 352.222 272.354C362.389 272.354 369.961 270.937 374.951 268.104C379.935 265.271 382.43 261.219 382.43 255.937C382.43 251.437 380.915 248.015 377.889 245.667C374.857 243.323 370.019 241.661 363.368 240.687L332.576 235.396C319.67 233.26 309.894 228.667 303.243 221.625C296.586 214.583 293.264 205.786 293.264 195.229C293.264 186.036 295.805 178.015 300.889 171.167C305.982 164.323 313.316 158.948 322.889 155.042C332.472 151.125 343.816 149.167 356.93 149.167C363.956 149.167 370.941 149.807 377.889 151.083C384.831 152.349 391.284 154.203 397.243 156.646C403.211 159.094 408.352 162.177 412.659 165.896L402.097 191.417C398.373 188.281 393.972 185.64 388.889 183.5C383.805 181.349 378.524 179.687 373.055 178.521C367.581 177.344 362.305 176.75 357.222 176.75C347.055 176.75 339.524 178.265 334.639 181.292C329.748 184.323 327.305 188.474 327.305 193.75C327.305 198.057 328.722 201.432 331.555 203.875C334.389 206.323 338.831 208.031 344.889 209L375.097 214.292C388.982 216.64 399.352 221.094 406.201 227.646C413.045 234.187 416.472 243.031 416.472 254.167C416.472 263.75 413.826 271.969 408.534 278.812C403.253 285.661 395.873 290.896 386.389 294.521C376.915 298.13 365.722 299.937 352.805 299.937Z" fill="#F8F8F5"/>
<path d="M425.27 297V90.208H462.52V180.562H460.457C464.957 170.593 471.697 162.869 480.686 157.396C489.686 151.911 499.957 149.166 511.499 149.166C523.233 149.166 533.009 151.369 540.832 155.771C548.65 160.177 554.509 166.875 558.415 175.875C562.332 184.864 564.29 196.203 564.29 209.896V297H526.165V211.646C526.165 204.411 525.233 198.448 523.374 193.75C521.509 189.057 518.624 185.536 514.707 183.187C510.801 180.843 505.728 179.666 499.478 179.666C492.436 179.666 486.171 181.239 480.686 184.375C475.212 187.5 470.962 191.906 467.936 197.583C464.905 203.25 463.395 209.698 463.395 216.916V297H425.27Z" fill="#F8F8F5"/>
<path d="M631.167 299.937C620.61 299.937 611.173 297.937 602.855 293.937C594.548 289.927 588.001 284.448 583.209 277.5C578.417 270.557 576.021 262.781 576.021 254.167C576.021 243.417 578.949 234.87 584.813 228.521C590.688 222.161 599.98 217.515 612.688 214.583C625.396 211.656 642.011 210.187 662.542 210.187H679.855V232.479H663.73C654.532 232.479 646.756 232.823 640.396 233.5C634.048 234.182 628.865 235.26 624.855 236.729C620.855 238.187 617.923 240.187 616.063 242.729C614.199 245.271 613.271 248.406 613.271 252.125C613.271 258.781 615.615 263.969 620.313 267.687C625.006 271.396 631.459 273.25 639.667 273.25C646.318 273.25 652.282 271.687 657.563 268.562C662.839 265.427 667.089 261.167 670.313 255.792C673.548 250.417 675.167 244.406 675.167 237.75V204.896C675.167 195.12 672.673 188.182 667.688 184.083C662.699 179.974 654.73 177.917 643.771 177.917C635.756 177.917 627.49 179.094 618.98 181.437C610.48 183.786 601.735 187.599 592.751 192.875L582.188 166.771C587.855 163.052 594.303 159.917 601.542 157.375C608.777 154.833 616.355 152.833 624.271 151.375C632.188 149.906 639.86 149.167 647.292 149.167C661.178 149.167 672.917 151.323 682.501 155.625C692.084 159.932 699.318 166.489 704.209 175.292C709.094 184.083 711.542 195.515 711.542 209.583V297H677.792V266.792H678.688C676.73 273.239 673.548 278.953 669.146 283.937C664.74 288.927 659.36 292.844 653.001 295.687C646.652 298.521 639.376 299.937 631.167 299.937Z" fill="#F8F8F5"/>
</g>
</g>
<defs>
<clipPath id="clip0_4503_334">
<rect width="1461.67" height="401.333" fill="white"/>
</clipPath>
</defs>
</svg>
