<svg xmlns="http://www.w3.org/2000/svg" xmlns:xlink="http://www.w3.org/1999/xlink" width="384" zoomAndPan="magnify" viewBox="0 0 288 287.999989" height="384" preserveAspectRatio="xMidYMid meet" version="1.0"><defs><g/><clipPath id="3ff632e544"><rect x="0" width="239" y="0" height="288"/></clipPath></defs><g transform="matrix(1, 0, 0, 1, 30, 0)"><g clip-path="url(#3ff632e544)"><g fill="#6e7cff" fill-opacity="1"><g transform="translate(0.7148, 256.334341)"><g><path d="M 118.703125 3.34375 C 104.023438 3.34375 90.414062 0.648438 77.875 -4.734375 C 65.34375 -10.117188 54.382812 -17.59375 45 -27.15625 C 35.625 -36.726562 28.332031 -48.015625 23.125 -61.015625 C 17.925781 -74.023438 15.328125 -88.332031 15.328125 -103.9375 C 15.328125 -119.351562 17.878906 -133.609375 22.984375 -146.703125 C 28.097656 -159.804688 35.296875 -171.140625 44.578125 -180.703125 C 53.867188 -190.273438 64.738281 -197.707031 77.1875 -203 C 89.632812 -208.289062 103.289062 -210.9375 118.15625 -210.9375 C 132.832031 -210.9375 145.972656 -208.425781 157.578125 -203.40625 C 169.191406 -198.394531 178.988281 -191.847656 186.96875 -183.765625 C 194.957031 -175.691406 200.71875 -166.914062 204.25 -157.4375 L 175 -143.234375 C 170.726562 -154.566406 163.664062 -163.710938 153.8125 -170.671875 C 143.96875 -177.640625 132.082031 -181.125 118.15625 -181.125 C 104.40625 -181.125 92.234375 -177.875 81.640625 -171.375 C 71.054688 -164.875 62.835938 -155.863281 56.984375 -144.34375 C 51.128906 -132.820312 48.203125 -119.351562 48.203125 -103.9375 C 48.203125 -88.519531 51.21875 -75.003906 57.25 -63.390625 C 63.289062 -51.785156 71.609375 -42.773438 82.203125 -36.359375 C 92.796875 -29.953125 104.960938 -26.75 118.703125 -26.75 C 130.222656 -26.75 140.765625 -29.117188 150.328125 -33.859375 C 159.898438 -38.597656 167.566406 -45.285156 173.328125 -53.921875 C 179.085938 -62.554688 181.96875 -72.632812 181.96875 -84.15625 L 181.96875 -98.359375 L 196.734375 -84.984375 L 118.15625 -84.984375 L 118.15625 -112.859375 L 214.5625 -112.859375 L 214.5625 -93.34375 C 214.5625 -78.113281 211.957031 -64.503906 206.75 -52.515625 C 201.550781 -40.535156 194.492188 -30.363281 185.578125 -22 C 176.660156 -13.644531 166.441406 -7.332031 154.921875 -3.0625 C 143.410156 1.207031 131.335938 3.34375 118.703125 3.34375 Z M 118.703125 3.34375 "/></g></g></g></g></g></svg>