<svg xmlns="http://www.w3.org/2000/svg" xmlns:xlink="http://www.w3.org/1999/xlink" width="160" zoomAndPan="magnify" viewBox="0 0 120 74.999997" height="100" preserveAspectRatio="xMidYMid meet" version="1.0"><defs><g/><clipPath id="3325060c36"><path d="M 0 1 L 94 1 L 94 72 L 0 72 Z M 0 1 " clip-rule="nonzero"/></clipPath><clipPath id="7d1eef00b7"><rect x="0" width="96" y="0" height="75"/></clipPath><clipPath id="dfb834565e"><rect x="0" width="56" y="0" height="65"/></clipPath><clipPath id="e98298e2d5"><rect x="0" width="120" y="0" height="75"/></clipPath></defs><g transform="matrix(1, 0, 0, 1, 0, -0.000000000000001893)"><g clip-path="url(#e98298e2d5)"><g transform="matrix(1, 0, 0, 1, 0, -0.000000000000001893)"><g clip-path="url(#7d1eef00b7)"><g clip-path="url(#3325060c36)"><g fill="#bc0a0f" fill-opacity="1"><g transform="translate(-0.180928, 56.235713)"><g><path d="M 88.796875 -43.34375 C 88.859375 -42.726562 88.566406 -41.800781 87.921875 -40.5625 C 87.285156 -39.320312 86.421875 -37.859375 85.328125 -36.171875 C 84.234375 -34.492188 82.972656 -32.640625 81.546875 -30.609375 C 80.128906 -28.578125 78.691406 -26.460938 77.234375 -24.265625 C 75.628906 -21.910156 74.070312 -19.554688 72.5625 -17.203125 C 71.0625 -14.847656 69.703125 -12.613281 68.484375 -10.5 C 67.273438 -8.394531 66.328125 -6.488281 65.640625 -4.78125 C 64.953125 -3.070312 64.65625 -1.703125 64.75 -0.671875 C 64.78125 -0.253906 64.9375 0.0507812 65.21875 0.25 C 65.5 0.445312 65.796875 0.53125 66.109375 0.5 C 66.410156 0.46875 66.675781 0.320312 66.90625 0.0625 C 67.050781 -0.113281 67.140625 -0.101562 67.171875 0.09375 C 67.210938 0.300781 67.144531 0.597656 66.96875 0.984375 C 66.800781 1.378906 66.515625 1.75 66.109375 2.09375 C 65.703125 2.445312 65.132812 2.65625 64.40625 2.71875 C 63.382812 2.8125 62.640625 2.546875 62.171875 1.921875 C 61.703125 1.304688 61.441406 0.675781 61.390625 0.03125 C 61.296875 -1 61.539062 -2.335938 62.125 -3.984375 C 62.71875 -5.628906 63.523438 -7.425781 64.546875 -9.375 C 65.566406 -11.332031 66.6875 -13.332031 67.90625 -15.375 C 69.125 -17.425781 70.351562 -19.390625 71.59375 -21.265625 C 72.84375 -23.148438 73.953125 -24.789062 74.921875 -26.1875 C 76.890625 -28.988281 78.679688 -31.535156 80.296875 -33.828125 C 81.921875 -36.117188 83.210938 -38.039062 84.171875 -39.59375 C 85.128906 -41.144531 85.582031 -42.191406 85.53125 -42.734375 C 85.507812 -43.015625 85.429688 -43.191406 85.296875 -43.265625 C 85.160156 -43.335938 85.023438 -43.367188 84.890625 -43.359375 C 84.109375 -43.285156 82.378906 -42.335938 79.703125 -40.515625 C 77.023438 -38.691406 73.59375 -35.976562 69.40625 -32.375 C 65.21875 -28.769531 60.46875 -24.25 55.15625 -18.8125 C 53.195312 -16.789062 51.234375 -14.640625 49.265625 -12.359375 C 47.304688 -10.078125 45.453125 -7.828125 43.703125 -5.609375 C 41.953125 -3.390625 40.390625 -1.367188 39.015625 0.453125 C 37.640625 2.285156 36.523438 3.785156 35.671875 4.953125 C 34.816406 6.117188 34.3125 6.800781 34.15625 7 C 34 7.175781 33.695312 7.285156 33.25 7.328125 C 32.800781 7.367188 32.335938 7.296875 31.859375 7.109375 C 31.378906 6.921875 31.125 6.65625 31.09375 6.3125 C 31.070312 6.039062 31.164062 5.769531 31.375 5.5 C 31.5625 5.289062 32.054688 4.550781 32.859375 3.28125 C 33.671875 2.007812 34.6875 0.421875 35.90625 -1.484375 C 37.125 -3.390625 38.429688 -5.460938 39.828125 -7.703125 C 41.234375 -9.953125 42.640625 -12.210938 44.046875 -14.484375 C 45.453125 -16.765625 46.75 -18.875 47.9375 -20.8125 C 49.132812 -22.75 50.128906 -24.382812 50.921875 -25.71875 C 51.710938 -27.050781 52.179688 -27.878906 52.328125 -28.203125 C 52.921875 -29.222656 53.726562 -30.503906 54.75 -32.046875 C 55.78125 -33.597656 56.878906 -35.25 58.046875 -37 C 59.210938 -38.75 60.300781 -40.445312 61.3125 -42.09375 C 62.332031 -43.738281 63.148438 -45.175781 63.765625 -46.40625 C 64.378906 -47.632812 64.664062 -48.503906 64.625 -49.015625 C 64.582031 -49.492188 64.285156 -49.707031 63.734375 -49.65625 C 62.597656 -49.5625 61.125 -48.976562 59.3125 -47.90625 C 57.5 -46.832031 55.507812 -45.453125 53.34375 -43.765625 C 51.175781 -42.085938 48.941406 -40.238281 46.640625 -38.21875 C 44.335938 -36.195312 42.101562 -34.179688 39.9375 -32.171875 C 38.269531 -29.734375 36.445312 -27.078125 34.46875 -24.203125 C 32.488281 -21.335938 30.4375 -18.398438 28.3125 -15.390625 C 26.1875 -12.378906 24.070312 -9.414062 21.96875 -6.5 C 19.863281 -3.582031 17.84375 -0.835938 15.90625 1.734375 C 13.96875 4.304688 12.1875 6.582031 10.5625 8.5625 C 8.9375 10.539062 7.5625 12.109375 6.4375 13.265625 C 5.3125 14.421875 4.503906 15.019531 4.015625 15.0625 C 3.265625 15.125 2.609375 14.929688 2.046875 14.484375 C 1.484375 14.035156 1.175781 13.519531 1.125 12.9375 C 1.03125 11.832031 1.421875 10.351562 2.296875 8.5 C 3.171875 6.644531 4.4375 4.5 6.09375 2.0625 C 7.75 -0.363281 9.707031 -2.988281 11.96875 -5.8125 C 14.238281 -8.644531 16.703125 -11.5625 19.359375 -14.5625 C 22.023438 -17.570312 24.804688 -20.578125 27.703125 -23.578125 C 30.597656 -26.585938 33.488281 -29.484375 36.375 -32.265625 C 38.007812 -34.617188 39.457031 -36.722656 40.71875 -38.578125 C 41.976562 -40.441406 42.976562 -41.925781 43.71875 -43.03125 C 44.46875 -44.132812 44.859375 -44.722656 44.890625 -44.796875 C 44.972656 -44.972656 45.21875 -45.140625 45.625 -45.296875 C 46.03125 -45.453125 46.457031 -45.550781 46.90625 -45.59375 C 47.238281 -45.625 47.539062 -45.597656 47.8125 -45.515625 C 48.082031 -45.441406 48.226562 -45.265625 48.25 -44.984375 C 48.28125 -44.671875 48.125 -44.257812 47.78125 -43.75 C 47.65625 -43.601562 47.429688 -43.28125 47.109375 -42.78125 C 46.796875 -42.289062 46.378906 -41.660156 45.859375 -40.890625 C 48.503906 -43.148438 50.988281 -45.132812 53.3125 -46.84375 C 55.632812 -48.5625 57.738281 -49.925781 59.625 -50.9375 C 61.519531 -51.957031 63.0625 -52.519531 64.25 -52.625 C 65.351562 -52.71875 66.1875 -52.597656 66.75 -52.265625 C 67.3125 -51.941406 67.707031 -51.523438 67.9375 -51.015625 C 68.175781 -50.515625 68.3125 -50.0625 68.34375 -49.65625 C 68.394531 -49.039062 67.976562 -47.863281 67.09375 -46.125 C 66.21875 -44.382812 65.03125 -42.296875 63.53125 -39.859375 C 62.03125 -37.421875 60.410156 -34.828125 58.671875 -32.078125 C 56.421875 -28.523438 54.40625 -25.363281 52.625 -22.59375 C 50.84375 -19.832031 49.128906 -17.144531 47.484375 -14.53125 C 50.285156 -17.34375 53.132812 -20.21875 56.03125 -23.15625 C 58.925781 -26.09375 61.78125 -28.914062 64.59375 -31.625 C 67.40625 -34.332031 70.109375 -36.765625 72.703125 -38.921875 C 75.296875 -41.078125 77.691406 -42.828125 79.890625 -44.171875 C 82.097656 -45.515625 84.007812 -46.253906 85.625 -46.390625 C 86.519531 -46.472656 87.179688 -46.335938 87.609375 -45.984375 C 88.035156 -45.640625 88.332031 -45.21875 88.5 -44.71875 C 88.664062 -44.21875 88.765625 -43.757812 88.796875 -43.34375 Z M 6.0625 9.296875 C 6.550781 8.910156 7.34375 8.050781 8.4375 6.71875 C 9.53125 5.394531 10.828125 3.726562 12.328125 1.71875 C 13.828125 -0.28125 15.472656 -2.523438 17.265625 -5.015625 C 19.054688 -7.503906 20.914062 -10.101562 22.84375 -12.8125 C 24.769531 -15.53125 26.671875 -18.257812 28.546875 -21 C 26.929688 -19.21875 25.179688 -17.234375 23.296875 -15.046875 C 21.421875 -12.859375 19.539062 -10.597656 17.65625 -8.265625 C 15.78125 -5.941406 14.007812 -3.703125 12.34375 -1.546875 C 10.6875 0.597656 9.265625 2.519531 8.078125 4.21875 C 6.898438 5.914062 6.066406 7.253906 5.578125 8.234375 C 5.085938 9.222656 5.066406 9.675781 5.515625 9.59375 C 5.648438 9.582031 5.832031 9.484375 6.0625 9.296875 Z M 6.0625 9.296875 "/></g></g></g></g></g></g><g transform="matrix(1, 0, 0, 1, 64, 10)"><g clip-path="url(#dfb834565e)"><g fill="#bc0a0f" fill-opacity="1"><g transform="translate(0.5868, 56.67586)"><g><path d="M 6.34375 -7.28125 C 7.363281 -7.363281 8.222656 -7.085938 8.921875 -6.453125 C 9.160156 -6.265625 9.367188 -6.050781 9.546875 -5.8125 C 9.722656 -5.570312 9.847656 -5.296875 9.921875 -4.984375 C 10.078125 -4.484375 10.175781 -3.957031 10.21875 -3.40625 C 10.257812 -2.851562 10.203125 -2.304688 10.046875 -1.765625 C 9.847656 -1.015625 9.519531 -0.425781 9.0625 0 C 8.613281 0.425781 8 0.703125 7.21875 0.828125 C 5.882812 1.054688 4.671875 0.738281 3.578125 -0.125 C 3.035156 -0.550781 2.6875 -1.054688 2.53125 -1.640625 C 2.40625 -2.109375 2.351562 -2.566406 2.375 -3.015625 C 2.394531 -3.472656 2.503906 -3.914062 2.703125 -4.34375 C 2.972656 -4.925781 3.328125 -5.535156 3.765625 -6.171875 C 4.234375 -6.992188 4.972656 -7.363281 5.984375 -7.28125 C 6.066406 -7.28125 6.132812 -7.28125 6.1875 -7.28125 C 6.25 -7.28125 6.300781 -7.28125 6.34375 -7.28125 Z M 6.34375 -7.28125 "/></g></g></g><g fill="#bc0a0f" fill-opacity="1"><g transform="translate(12.800444, 56.67586)"><g><path d="M 2.34375 -20.078125 C 2.34375 -22.234375 2.34375 -24.414062 2.34375 -26.625 C 2.34375 -28.84375 2.34375 -31.046875 2.34375 -33.234375 C 2.34375 -33.816406 2.34375 -34.390625 2.34375 -34.953125 C 2.34375 -35.523438 2.34375 -36.109375 2.34375 -36.703125 C 2.34375 -37.015625 2.351562 -37.328125 2.375 -37.640625 C 2.394531 -37.953125 2.425781 -38.242188 2.46875 -38.515625 C 2.507812 -38.867188 2.597656 -39.203125 2.734375 -39.515625 C 2.867188 -39.828125 3.015625 -40.125 3.171875 -40.40625 C 3.285156 -40.632812 3.457031 -40.796875 3.6875 -40.890625 C 3.925781 -40.992188 4.164062 -41.066406 4.40625 -41.109375 C 4.675781 -41.140625 4.925781 -41.164062 5.15625 -41.1875 C 5.394531 -41.207031 5.65625 -41.21875 5.9375 -41.21875 C 6.476562 -41.175781 6.992188 -41.109375 7.484375 -41.015625 C 7.972656 -40.921875 8.472656 -40.773438 8.984375 -40.578125 C 9.410156 -40.378906 9.703125 -40.101562 9.859375 -39.75 C 9.984375 -39.519531 10.101562 -39.273438 10.21875 -39.015625 C 10.332031 -38.765625 10.445312 -38.5 10.5625 -38.21875 C 10.882812 -37.5625 11.203125 -36.867188 11.515625 -36.140625 C 11.828125 -35.421875 12.15625 -34.726562 12.5 -34.0625 C 13.601562 -31.789062 14.738281 -29.519531 15.90625 -27.25 C 16.300781 -26.5 16.691406 -25.757812 17.078125 -25.03125 C 17.472656 -24.3125 17.867188 -23.601562 18.265625 -22.90625 C 18.578125 -22.394531 18.847656 -21.882812 19.078125 -21.375 C 19.316406 -20.863281 19.570312 -20.351562 19.84375 -19.84375 C 19.925781 -19.769531 19.96875 -19.710938 19.96875 -19.671875 C 20.238281 -19.398438 20.472656 -19.28125 20.671875 -19.3125 C 21.054688 -19.394531 21.269531 -19.59375 21.3125 -19.90625 C 21.351562 -20.019531 21.390625 -20.132812 21.421875 -20.25 C 21.460938 -20.375 21.484375 -20.515625 21.484375 -20.671875 C 21.453125 -22.429688 21.4375 -24.191406 21.4375 -25.953125 C 21.4375 -27.710938 21.414062 -29.472656 21.375 -31.234375 C 21.332031 -31.859375 21.289062 -32.472656 21.25 -33.078125 C 21.21875 -33.691406 21.179688 -34.3125 21.140625 -34.9375 C 21.140625 -35.332031 21.140625 -35.703125 21.140625 -36.046875 C 21.140625 -36.398438 21.160156 -36.773438 21.203125 -37.171875 C 21.203125 -37.367188 21.203125 -37.570312 21.203125 -37.78125 C 21.203125 -38 21.203125 -38.207031 21.203125 -38.40625 C 21.203125 -38.789062 21.269531 -39.171875 21.40625 -39.546875 C 21.539062 -39.921875 21.6875 -40.265625 21.84375 -40.578125 C 22.195312 -41.117188 22.644531 -41.375 23.1875 -41.34375 C 23.695312 -41.300781 24.195312 -41.28125 24.6875 -41.28125 C 25.175781 -41.28125 25.65625 -41.257812 26.125 -41.21875 C 26.675781 -41.175781 27.1875 -40.941406 27.65625 -40.515625 C 28.125 -40.085938 28.359375 -39.539062 28.359375 -38.875 C 28.398438 -38.09375 28.4375 -37.304688 28.46875 -36.515625 C 28.507812 -35.734375 28.550781 -34.953125 28.59375 -34.171875 C 28.675781 -33.429688 28.722656 -32.675781 28.734375 -31.90625 C 28.753906 -31.144531 28.785156 -30.375 28.828125 -29.59375 C 28.828125 -26.582031 28.828125 -23.554688 28.828125 -20.515625 C 28.828125 -17.484375 28.847656 -14.441406 28.890625 -11.390625 C 28.890625 -10.210938 28.914062 -9.023438 28.96875 -7.828125 C 29.03125 -6.640625 29.082031 -5.457031 29.125 -4.28125 C 29.125 -3.894531 29.082031 -3.492188 29 -3.078125 C 28.925781 -2.671875 28.847656 -2.25 28.765625 -1.8125 C 28.691406 -1.582031 28.578125 -1.390625 28.421875 -1.234375 C 27.910156 -0.492188 27.265625 -0.0625 26.484375 0.0625 C 26.128906 0.101562 25.773438 0.128906 25.421875 0.140625 C 25.066406 0.160156 24.734375 0.113281 24.421875 0 C 23.722656 -0.15625 23.117188 -0.546875 22.609375 -1.171875 C 22.335938 -1.523438 22.050781 -1.882812 21.75 -2.25 C 21.457031 -2.625 21.175781 -2.988281 20.90625 -3.34375 C 20.59375 -3.78125 20.28125 -4.210938 19.96875 -4.640625 C 19.65625 -5.066406 19.359375 -5.476562 19.078125 -5.875 C 18.890625 -6.1875 18.707031 -6.507812 18.53125 -6.84375 C 18.351562 -7.175781 18.164062 -7.476562 17.96875 -7.75 C 17.570312 -8.375 17.164062 -8.976562 16.75 -9.5625 C 16.34375 -10.15625 15.945312 -10.765625 15.5625 -11.390625 C 15.050781 -12.210938 14.550781 -13.046875 14.0625 -13.890625 C 13.570312 -14.734375 13.070312 -15.5625 12.5625 -16.375 C 12.332031 -16.8125 12.085938 -17.253906 11.828125 -17.703125 C 11.578125 -18.148438 11.316406 -18.570312 11.046875 -18.96875 C 10.847656 -19.28125 10.609375 -19.4375 10.328125 -19.4375 C 10.015625 -19.4375 9.84375 -19.316406 9.8125 -19.078125 C 9.8125 -19.003906 9.8125 -18.925781 9.8125 -18.84375 C 9.8125 -18.769531 9.8125 -18.691406 9.8125 -18.609375 C 9.769531 -17.472656 9.75 -16.316406 9.75 -15.140625 C 9.75 -13.972656 9.726562 -12.820312 9.6875 -11.6875 C 9.6875 -10.59375 9.675781 -9.492188 9.65625 -8.390625 C 9.632812 -7.296875 9.625 -6.179688 9.625 -5.046875 C 9.625 -4.617188 9.632812 -4.175781 9.65625 -3.71875 C 9.675781 -3.269531 9.6875 -2.832031 9.6875 -2.40625 C 9.6875 -1.664062 9.488281 -0.984375 9.09375 -0.359375 C 9.0625 -0.234375 8.925781 -0.09375 8.6875 0.0625 C 8.414062 0.132812 8.160156 0.203125 7.921875 0.265625 C 7.691406 0.328125 7.4375 0.335938 7.15625 0.296875 C 6.6875 0.253906 6.21875 0.234375 5.75 0.234375 C 5.28125 0.234375 4.789062 0.234375 4.28125 0.234375 C 3.738281 0.234375 3.328125 -0.0390625 3.046875 -0.59375 C 2.660156 -1.21875 2.46875 -1.957031 2.46875 -2.8125 C 2.46875 -3.5625 2.476562 -4.304688 2.5 -5.046875 C 2.519531 -5.796875 2.53125 -6.539062 2.53125 -7.28125 C 2.53125 -8.882812 2.53125 -10.46875 2.53125 -12.03125 C 2.53125 -13.601562 2.507812 -15.171875 2.46875 -16.734375 C 2.46875 -17.285156 2.457031 -17.832031 2.4375 -18.375 C 2.414062 -18.925781 2.382812 -19.492188 2.34375 -20.078125 Z M 2.34375 -20.078125 "/></g></g></g><g fill="#bc0a0f" fill-opacity="1"><g transform="translate(44.509029, 56.67586)"><g><path d="M 6.34375 -7.28125 C 7.363281 -7.363281 8.222656 -7.085938 8.921875 -6.453125 C 9.160156 -6.265625 9.367188 -6.050781 9.546875 -5.8125 C 9.722656 -5.570312 9.847656 -5.296875 9.921875 -4.984375 C 10.078125 -4.484375 10.175781 -3.957031 10.21875 -3.40625 C 10.257812 -2.851562 10.203125 -2.304688 10.046875 -1.765625 C 9.847656 -1.015625 9.519531 -0.425781 9.0625 0 C 8.613281 0.425781 8 0.703125 7.21875 0.828125 C 5.882812 1.054688 4.671875 0.738281 3.578125 -0.125 C 3.035156 -0.550781 2.6875 -1.054688 2.53125 -1.640625 C 2.40625 -2.109375 2.351562 -2.566406 2.375 -3.015625 C 2.394531 -3.472656 2.503906 -3.914062 2.703125 -4.34375 C 2.972656 -4.925781 3.328125 -5.535156 3.765625 -6.171875 C 4.234375 -6.992188 4.972656 -7.363281 5.984375 -7.28125 C 6.066406 -7.28125 6.132812 -7.28125 6.1875 -7.28125 C 6.25 -7.28125 6.300781 -7.28125 6.34375 -7.28125 Z M 6.34375 -7.28125 "/></g></g></g></g></g></g></g></svg>