<svg xmlns="http://www.w3.org/2000/svg" xmlns:xlink="http://www.w3.org/1999/xlink" width="300" zoomAndPan="magnify" viewBox="0 0 224.87999 225" height="300" preserveAspectRatio="xMidYMid meet" version="1.0"><path fill="#000000" d="M 105.851562 93.726562 C 108.550781 97.210938 110.785156 101.097656 112.472656 105.328125 C 114.160156 101.101562 116.390625 97.214844 119.089844 93.730469 C 120.105469 89.109375 120.40625 84.3125 119.859375 79.476562 C 119.046875 72.226562 116.496094 65.453125 112.472656 59.617188 C 108.449219 65.453125 105.898438 72.226562 105.082031 79.476562 C 104.539062 84.3125 104.839844 89.105469 105.851562 93.726562 Z M 105.851562 93.726562 " fill-opacity="1" fill-rule="nonzero"/><path fill="#000000" d="M 34.421875 95.214844 C 36.753906 104.359375 41.914062 112.476562 49.410156 118.460938 C 51.535156 120.160156 53.785156 121.59375 56.105469 122.832031 C 63.636719 114.132812 73.9375 108.519531 85.011719 106.75 C 75.796875 100.339844 68.945312 90.800781 65.929688 79.679688 C 63.304688 79.789062 60.660156 80.125 58.011719 80.730469 C 48.410156 82.925781 40.3125 88.1875 34.421875 95.214844 Z M 34.421875 95.214844 " fill-opacity="1" fill-rule="nonzero"/><path fill="#000000" d="M 110.058594 133.230469 C 109.152344 128.957031 108.828125 124.527344 109.128906 120.027344 C 105.785156 123.09375 102.082031 125.613281 98.152344 127.574219 C 90.8125 136.980469 87.511719 149.132812 89.347656 161.105469 C 99.863281 155.066406 107.304688 144.875 110.058594 133.230469 Z M 110.058594 133.230469 " fill-opacity="1" fill-rule="nonzero"/><path fill="#000000" d="M 154.132812 79.765625 C 142.054688 80.636719 130.933594 86.554688 123.40625 95.832031 C 122.371094 100.109375 120.730469 104.273438 118.488281 108.222656 C 122.820312 106.914062 127.226562 106.238281 131.609375 106.175781 C 142.328125 100.894531 150.59375 91.367188 154.132812 79.765625 Z M 154.132812 79.765625 " fill-opacity="1" fill-rule="nonzero"/><path fill="#000000" d="M 95.195312 123.734375 C 97.976562 120.34375 101.25 117.316406 104.972656 114.738281 C 100.472656 114.03125 96.1875 112.714844 92.1875 110.847656 C 80.261719 110.96875 68.714844 115.992188 60.515625 124.898438 C 71.785156 129.367188 84.382812 128.835938 95.195312 123.734375 Z M 95.195312 123.734375 " fill-opacity="1" fill-rule="nonzero"/><path fill="#000000" d="M 112.46875 193.167969 C 120.613281 188.980469 127.527344 182.253906 131.796875 173.378906 C 132.976562 170.925781 133.871094 168.410156 134.5625 165.871094 C 124.417969 160.453125 116.660156 151.644531 112.472656 141.230469 C 108.285156 151.644531 100.527344 160.453125 90.382812 165.871094 C 91.070312 168.410156 91.964844 170.925781 93.144531 173.378906 C 97.414062 182.25 104.328125 188.980469 112.46875 193.167969 Z M 112.46875 193.167969 " fill-opacity="1" fill-rule="nonzero"/><path fill="#000000" d="M 134.5 130.625 C 140.015625 140.394531 142.054688 151.953125 139.960938 163.269531 C 142.371094 164.3125 144.894531 165.175781 147.542969 165.785156 C 157.136719 167.976562 166.703125 166.761719 175.046875 163 C 176.851562 154.015625 175.910156 144.402344 171.640625 135.523438 C 170.46875 133.085938 169.078125 130.824219 167.535156 128.714844 C 161.417969 131.363281 154.90625 132.675781 148.417969 132.675781 C 143.710938 132.675781 139.019531 131.976562 134.5 130.625 Z M 134.5 130.625 " fill-opacity="1" fill-rule="nonzero"/><path fill="#000000" d="M 70.808594 79.765625 C 74.347656 91.371094 82.617188 100.894531 93.335938 106.175781 C 97.71875 106.242188 102.125 106.914062 106.457031 108.222656 C 104.214844 104.277344 102.574219 100.113281 101.535156 95.835938 C 94.007812 86.554688 82.886719 80.636719 70.808594 79.765625 Z M 70.808594 79.765625 " fill-opacity="1" fill-rule="nonzero"/><path fill="#000000" d="M 77.398438 165.785156 C 80.046875 165.179688 82.570312 164.3125 84.980469 163.269531 C 82.886719 151.953125 84.925781 140.394531 90.441406 130.625 C 85.921875 131.976562 81.230469 132.675781 76.523438 132.675781 C 70.035156 132.675781 63.523438 131.363281 57.40625 128.714844 C 55.867188 130.824219 54.472656 133.085938 53.300781 135.523438 C 49.03125 144.398438 48.089844 154.011719 49.894531 162.996094 C 58.242188 166.757812 67.808594 167.976562 77.398438 165.785156 Z M 77.398438 165.785156 " fill-opacity="1" fill-rule="nonzero"/><path fill="#000000" d="M 115.457031 55.804688 C 122.257812 65.097656 125.433594 76.410156 124.691406 87.621094 C 132.980469 80.054688 143.789062 75.492188 155.273438 75.011719 C 155.75 72.425781 156.035156 69.769531 156.035156 67.046875 C 156.035156 57.179688 152.707031 48.097656 147.167969 40.777344 C 137.75 41.019531 128.707031 44.269531 121.210938 50.253906 C 119.101562 51.941406 117.191406 53.808594 115.457031 55.804688 Z M 115.457031 55.804688 " fill-opacity="1" fill-rule="nonzero"/><path fill="#000000" d="M 109.484375 55.804688 C 107.75 53.808594 105.84375 51.941406 103.734375 50.253906 C 96.238281 44.269531 87.191406 41.019531 77.773438 40.777344 C 72.234375 48.097656 68.910156 57.179688 68.910156 67.046875 C 68.910156 69.769531 69.191406 72.425781 69.671875 75.015625 C 81.15625 75.488281 91.964844 80.054688 100.25 87.617188 C 99.511719 76.410156 102.6875 65.097656 109.484375 55.804688 Z M 109.484375 55.804688 " fill-opacity="1" fill-rule="nonzero"/><path fill="#000000" d="M 146.496094 170.382812 C 143.835938 169.773438 141.304688 168.90625 138.863281 167.898438 C 138.125 170.441406 137.226562 172.960938 136.042969 175.425781 C 131.894531 184.050781 125.503906 190.882812 117.90625 195.5625 C 128.460938 199.292969 140.433594 198.988281 151.296875 193.753906 C 162.160156 188.515625 169.863281 179.320312 173.53125 168.726562 C 168.378906 170.585938 162.882812 171.597656 157.242188 171.597656 C 153.695312 171.597656 150.097656 171.203125 146.496094 170.382812 Z M 146.496094 170.382812 " fill-opacity="1" fill-rule="nonzero"/><path fill="#000000" d="M 126.792969 127.574219 C 122.859375 125.613281 119.160156 123.09375 115.8125 120.027344 C 116.117188 124.527344 115.792969 128.957031 114.882812 133.230469 C 117.640625 144.875 125.078125 155.066406 135.59375 161.105469 C 137.433594 149.132812 134.132812 136.984375 126.792969 127.574219 Z M 126.792969 127.574219 " fill-opacity="1" fill-rule="nonzero"/><path fill="#000000" d="M 178.46875 122.148438 C 176.335938 123.851562 174.101562 125.328125 171.792969 126.613281 C 173.308594 128.765625 174.707031 131.027344 175.886719 133.476562 C 180.039062 142.117188 181.351562 151.386719 180.261719 160.261719 C 189.777344 154.324219 197.023438 144.746094 199.710938 132.964844 C 202.390625 121.199219 200.019531 109.4375 194.039062 99.964844 C 191.105469 108.632812 185.785156 116.304688 178.46875 122.148438 Z M 178.46875 122.148438 " fill-opacity="1" fill-rule="nonzero"/><path fill="#000000" d="M 49.054688 133.476562 C 50.234375 131.03125 51.632812 128.765625 53.148438 126.613281 C 50.84375 125.328125 48.605469 123.851562 46.476562 122.148438 C 39.15625 116.304688 33.839844 108.632812 30.902344 99.964844 C 24.921875 109.4375 22.550781 121.199219 25.234375 132.964844 C 27.917969 144.746094 35.164062 154.316406 44.679688 160.253906 C 43.59375 151.382812 44.902344 142.113281 49.054688 133.476562 Z M 49.054688 133.476562 " fill-opacity="1" fill-rule="nonzero"/><path fill="#000000" d="M 88.902344 175.425781 C 87.714844 172.960938 86.816406 170.441406 86.078125 167.898438 C 83.636719 168.90625 81.105469 169.773438 78.445312 170.382812 C 74.847656 171.203125 71.246094 171.597656 67.699219 171.597656 C 62.058594 171.597656 56.5625 170.585938 51.410156 168.726562 C 55.078125 179.324219 62.78125 188.515625 73.644531 193.753906 C 84.503906 198.988281 96.476562 199.292969 107.03125 195.5625 C 99.4375 190.882812 93.050781 184.050781 88.902344 175.425781 Z M 88.902344 175.425781 " fill-opacity="1" fill-rule="nonzero"/><path fill="#000000" d="M 190.519531 95.214844 C 184.628906 88.1875 176.53125 82.925781 166.933594 80.730469 C 164.28125 80.125 161.636719 79.789062 159.015625 79.679688 C 156 90.800781 149.148438 100.339844 139.933594 106.75 C 151.003906 108.519531 161.304688 114.132812 168.839844 122.832031 C 171.15625 121.59375 173.40625 120.160156 175.53125 118.460938 C 183.027344 112.476562 188.191406 104.359375 190.519531 95.214844 Z M 190.519531 95.214844 " fill-opacity="1" fill-rule="nonzero"/><path fill="#000000" d="M 160.023438 75.054688 C 162.664062 75.207031 165.320312 75.523438 167.980469 76.132812 C 177.320312 78.265625 185.378906 83.027344 191.632812 89.417969 C 191.640625 89.359375 191.65625 89.300781 191.660156 89.242188 C 192.964844 77.664062 189.683594 66.273438 182.429688 57.160156 C 175.175781 48.050781 164.8125 42.316406 153.25 41.011719 C 153.1875 41.003906 153.128906 41.003906 153.070312 40.996094 C 157.902344 48.523438 160.742188 57.453125 160.742188 67.046875 C 160.742188 69.78125 160.460938 72.445312 160.023438 75.054688 Z M 160.023438 75.054688 " fill-opacity="1" fill-rule="nonzero"/><path fill="#000000" d="M 132.753906 110.847656 C 128.757812 112.714844 124.46875 114.03125 119.96875 114.738281 C 123.691406 117.316406 126.96875 120.34375 129.75 123.734375 C 140.5625 128.835938 153.15625 129.367188 164.429688 124.898438 C 156.226562 115.996094 144.679688 110.96875 132.753906 110.847656 Z M 132.753906 110.847656 " fill-opacity="1" fill-rule="nonzero"/><path fill="#000000" d="M 33.308594 89.417969 C 39.5625 83.027344 47.621094 78.265625 56.960938 76.132812 C 59.621094 75.523438 62.277344 75.207031 64.917969 75.054688 C 64.480469 72.445312 64.199219 69.78125 64.199219 67.046875 C 64.199219 57.453125 67.039062 48.523438 71.875 40.996094 C 71.8125 41.003906 71.753906 41.003906 71.691406 41.011719 C 60.128906 42.316406 49.769531 48.050781 42.515625 57.160156 C 35.257812 66.273438 31.980469 77.664062 33.28125 89.242188 C 33.289062 89.300781 33.300781 89.359375 33.308594 89.417969 Z M 33.308594 89.417969 " fill-opacity="1" fill-rule="nonzero"/><path fill="#000000" d="M 106.667969 46.566406 C 108.800781 48.273438 110.707031 50.152344 112.472656 52.125 C 114.238281 50.152344 116.140625 48.273438 118.277344 46.566406 C 125.757812 40.59375 134.488281 37.25 143.371094 36.339844 C 135.472656 28.371094 124.539062 23.425781 112.472656 23.425781 C 100.402344 23.425781 89.46875 28.371094 81.574219 36.335938 C 90.453125 37.25 99.183594 40.59375 106.667969 46.566406 Z M 106.667969 46.566406 " fill-opacity="1" fill-rule="nonzero"/></svg>