<svg width="50" height="50" viewBox="0 0 50 50" fill="none" xmlns="http://www.w3.org/2000/svg">
<path d="M21.4916 33.2936C20.3543 32.2612 20.0222 30.092 20.4961 28.5204C21.3178 29.5112 22.4562 29.8251 23.6354 30.0023C25.4559 30.2757 27.2438 30.1734 28.9349 29.3472C29.1283 29.2526 29.3071 29.1268 29.5185 28.9994C29.6772 29.4566 29.7185 29.918 29.6631 30.3878C29.5283 31.5317 28.955 32.4154 28.0431 33.0852C27.6785 33.3532 27.2927 33.5927 26.9161 33.8453C25.7591 34.6218 25.4461 35.5323 25.8809 36.8566C25.8912 36.889 25.9004 36.9213 25.9238 37C25.3331 36.7374 24.9016 36.3552 24.5728 35.8526C24.2256 35.3223 24.0604 34.7355 24.0517 34.1007C24.0474 33.7917 24.0474 33.48 24.0055 33.1755C23.9034 32.4329 23.5523 32.1004 22.891 32.0813C22.2122 32.0616 21.6753 32.4783 21.533 33.1345C21.5221 33.1848 21.5063 33.2345 21.4906 33.293L21.4916 33.2936Z" fill="white"/>
<path d="M15 28.2586C15 28.2586 18.368 26.6294 21.7454 26.6294L24.2918 18.8038C24.3871 18.4254 24.6655 18.1682 24.9797 18.1682C25.294 18.1682 25.5724 18.4254 25.6677 18.8038L28.2141 26.6294C32.2141 26.6294 34.9595 28.2586 34.9595 28.2586C34.9595 28.2586 29.2387 12.7833 29.2275 12.7522C29.0633 12.2947 28.7861 12 28.4124 12H21.5476C21.1739 12 20.9079 12.2947 20.7326 12.7522C20.7202 12.7827 15 28.2586 15 28.2586Z" fill="white"/>
</svg>
