<svg width="50" height="50" viewBox="0 0 50 50" fill="none" xmlns="http://www.w3.org/2000/svg">
<path fill-rule="evenodd" clip-rule="evenodd" d="M34.8796 12.6631C34.6784 12.2653 34.276 12 33.7394 12H31.7607C31.1906 12 30.7546 12.2321 30.5534 12.63L27.6357 16.8408L30.1845 20.2891L34.6449 13.9894C35.1479 13.3926 34.9467 12.8621 34.8796 12.6631Z" fill="white"/>
<path fill-rule="evenodd" clip-rule="evenodd" d="M19.4864 12.5968C19.0169 12 18.4467 12 18.2455 12H16.3339C15.8309 12 15.4284 12.2321 15.1937 12.63C14.9925 13.0279 15.026 13.492 15.3278 13.9562L22.4711 23.7706L14.2547 35.0769C13.9528 35.508 13.9193 35.9721 14.1541 36.37C14.3553 36.7679 14.7577 37 15.2608 37H17.2394C17.7425 37 18.1784 36.7347 18.4132 36.3369L27.6022 23.8037L19.4864 12.5968Z" fill="white"/>
<path fill-rule="evenodd" clip-rule="evenodd" d="M35.8523 35.4085L30.8889 28.6777L28.709 31.6618L32.6328 36.8674L32.7334 36.9005C32.9011 36.9669 33.0687 37 33.2364 37H34.9133C35.3157 37 35.6511 36.8342 35.8523 36.5027C36.0535 36.2043 36.0535 35.8064 35.8523 35.4085Z" fill="white"/>
</svg>
