<svg width="50" height="50" viewBox="0 0 50 50" fill="none" xmlns="http://www.w3.org/2000/svg">
<path d="M28.2961 28.9068L35.2524 24.4138C37.2066 23.0229 38.6077 21.8658 37.7351 20.3394C36.9854 19.0469 35.3876 19.3177 32.6715 20.1794C30.1642 20.9795 26.8458 22.1489 24.8056 22.8998C24.5598 22.9859 24.3877 22.6536 24.6089 22.5059C27.067 20.8441 29.8815 18.8253 31.3441 17.5205C32.2905 16.6835 32.4134 15.6618 31.9095 15.0463C31.4793 14.517 30.9139 13.9754 28.2346 14.8494C26.305 15.4895 23.8469 16.5235 21.6347 17.4221C21.4011 17.5205 21.2168 17.2128 21.4134 17.0528C21.9419 16.6096 22.9743 15.8218 23.5397 15.2187C24.4369 14.2708 24.4492 13.3476 23.9944 12.7445C23.7609 12.4244 23.2324 11.8951 21.7453 12.0182C20.5162 12.1167 19.0905 12.3752 17.1732 12.9045C15.7721 13.2984 15.9688 15.4772 17.9598 15.1202C18.4637 15.034 19.1889 14.8863 19.7174 14.7755C19.9386 14.7263 20.0861 15.0217 19.9017 15.1571C18.5743 16.1911 17.0012 17.459 16.276 18.1114C15.342 18.9484 14.9487 19.847 15.5755 20.6841C16.2269 21.5334 17.5051 21.2749 19.0414 20.8318C19.9877 20.561 21.4626 20.0563 22.5196 19.6993C22.7654 19.6132 22.9252 19.9578 22.7039 20.0932C20.762 21.3242 17.4436 23.3798 15.7476 24.5862C13.7934 25.9771 12.3923 27.1342 13.2649 28.6606C14.0146 29.9531 15.6124 29.6823 18.3285 28.8206C20.8358 28.0205 24.1542 26.8511 26.1944 26.1002C26.4402 26.0141 26.6123 26.3464 26.3911 26.4941C23.933 28.1559 21.1185 30.1747 19.6559 31.4795C18.7095 32.3165 18.5866 33.3382 19.0905 33.9537C19.5207 34.483 20.0861 35.0246 22.7654 34.1506C24.695 33.5105 27.1531 32.4765 29.3653 31.5779C29.5989 31.4795 29.7832 31.7872 29.5866 31.9472C29.0581 32.3904 28.0257 33.1782 27.4603 33.7813C26.5631 34.7292 26.5508 35.6524 27.0056 36.2555C27.2391 36.5756 27.7676 37.1049 29.2547 36.9818C30.4838 36.8833 31.9095 36.6248 33.8268 36.0955C35.2279 35.7016 35.0312 33.5228 33.0402 33.8798C32.5363 33.966 31.8111 34.1137 31.2826 34.2245C31.0614 34.2737 30.9139 33.9783 31.0983 33.8429C32.4257 32.7966 33.9865 31.5287 34.7117 30.8763C35.6457 30.0393 36.039 29.1407 35.4122 28.3036C34.7608 27.4543 33.4826 27.7128 31.9463 28.1559C31 28.4267 29.5251 28.9314 28.4681 29.2884C28.2469 29.3869 28.0748 29.0422 28.2961 28.9068Z" fill="white"/>
</svg>
