<svg width="50" height="50" viewBox="0 0 50 50" fill="none" xmlns="http://www.w3.org/2000/svg">
<path d="M35.9406 21.5913C35.7834 20.4563 35.1547 19.4709 34.0203 18.5806L33.3643 18.1388L32.9269 18.7981C32.3666 19.6476 32.0864 20.8301 32.1752 21.965C32.2162 22.3592 32.3461 23.0796 32.7492 23.6981C32.3461 23.9223 31.5465 24.2214 30.4804 24.201H10.116L10.075 24.4388C9.88364 25.5738 9.88364 29.1282 12.1729 31.8534C13.9155 33.9262 16.5192 34.9796 19.9224 34.9796C27.3028 34.9796 32.7561 31.5612 35.3187 25.3359C36.3233 25.3563 38.4896 25.3427 39.6035 23.2019C39.6308 23.1544 39.6991 23.0252 39.8905 22.6175L39.9998 22.3932L39.3779 21.9718C38.6946 21.5301 37.1433 21.3602 35.9406 21.5913ZM26.4007 14H23.305V16.834H26.4007V14ZM26.4007 17.4049H23.305V20.2388H26.4007V17.4049ZM22.7378 17.4049H19.6422V20.2388H22.7378V17.4049ZM19.0818 17.4049H15.9861V20.2388H19.0818V17.4049ZM15.4189 20.8097H12.3233V23.6437H15.4189V20.8097ZM19.0818 20.8097H15.9861V23.6437H19.0818V20.8097ZM22.7378 20.8097H19.6422V23.6437H22.7378V20.8097ZM26.4007 20.8097H23.305V23.6437H26.4007V20.8097ZM30.0636 20.8097H26.9679V23.6437H30.0636V20.8097Z" fill="white"/>
</svg>
