<svg width="50" height="50" viewBox="0 0 50 50" fill="none" xmlns="http://www.w3.org/2000/svg">
<path d="M16.5395 17.2211C17.9828 17.2033 19.1233 16.0094 19.1054 14.5661C19.0876 13.1228 17.8938 11.9824 16.4504 12.0002C15.0249 12.018 13.8845 13.1941 13.8845 14.6196C13.8845 16.0629 15.0606 17.2389 16.5395 17.2211C16.5217 17.2211 16.5217 17.2211 16.5395 17.2211Z" fill="white"/>
<path d="M11.0335 31.2089C10.8909 31.8504 10.8018 32.5097 10.8018 33.169C10.8018 35.4676 12.0492 37 14.7042 37C16.8959 37 18.6778 35.6992 19.9607 33.5966L19.1767 36.7327H23.5423L26.0369 26.7364C26.6606 24.2061 27.8723 22.8875 29.7076 22.8875C31.1509 22.8875 32.0419 23.7784 32.0419 25.2574C32.0419 25.7385 31.9884 26.2018 31.8459 26.6651L30.5629 31.2623C30.3847 31.9038 30.2956 32.5453 30.2956 33.2046C30.2956 35.3785 31.5786 36.9822 34.2692 36.9822C36.5679 36.9822 38.4032 35.5032 39.4189 31.9573L37.7083 31.298C36.853 33.6679 36.1046 34.0955 35.5344 34.0955C34.9642 34.0955 34.6434 33.7035 34.6434 32.9195C34.6613 32.5097 34.7325 32.1176 34.8394 31.7256L36.0868 27.2531C36.3719 26.3265 36.5144 25.3821 36.5144 24.4199C36.5144 21.07 34.4831 19.3237 32.0419 19.3237C29.7433 19.3237 27.409 21.3907 26.2329 23.5824L27.0883 19.6623H20.424L19.4974 23.1191H22.6157L20.6913 30.7991C19.1767 34.149 16.4148 34.2024 16.0584 34.1312C15.4882 34.0064 15.1318 33.7926 15.1318 33.0442C15.1496 32.4384 15.2387 31.8504 15.3991 31.2623L18.3214 19.6623H10.9266L10 23.1191H13.0827L11.0335 31.2089Z" fill="white"/>
</svg>
