<svg width="50" height="50" viewBox="0 0 50 50" fill="none" xmlns="http://www.w3.org/2000/svg">
<g clip-path="url(#clip0_3611_360)">
<path d="M31.9472 11.14C35.763 11.14 38.86 14.2371 38.86 18.0528V31.8772C38.86 35.693 35.763 38.79 31.9472 38.79H18.1227C14.307 38.79 11.21 35.693 11.21 31.8772V18.0528C11.21 14.2382 14.307 11.14 18.1227 11.14H31.9472ZM19.5566 22.1321L17.0483 33.5664H19.5566L24.3653 21.3177L22.065 33.5664H24.5733L29.174 20.4985L27.0817 33.5664H29.5901L34.1908 19.2763L29.5901 16.4204V16.4144H27.0817L29.174 20.0896L24.5733 16.4144H22.065L24.3653 20.9028L19.5566 16.4144H17.0483L19.5566 22.1321Z" fill="white"/>
</g>
<defs>
<clipPath id="clip0_3611_360">
<rect width="28" height="28" fill="white" transform="translate(11 11)"/>
</clipPath>
</defs>
</svg>
