<svg width="50" height="50" viewBox="0 0 50 50" fill="none" xmlns="http://www.w3.org/2000/svg">
<path d="M29.5561 13.0074L18.9656 15.041C18.7915 15.0744 18.6627 15.2189 18.6522 15.3924L18.0007 26.1747C17.9854 26.4287 18.2234 26.6258 18.4763 26.5686L21.4249 25.9018C21.7007 25.8394 21.95 26.0775 21.8933 26.3494L21.0173 30.5531C20.9584 30.8361 21.2294 31.078 21.5114 30.9941L23.3325 30.4518C23.6149 30.3678 23.8861 30.6105 23.8264 30.8936L22.4343 37.4967C22.3472 37.9098 22.9078 38.135 23.1416 37.7809L23.2978 37.5444L31.9275 20.6672C32.072 20.3847 31.8228 20.0624 31.5061 20.1223L28.4711 20.6964C28.1859 20.7502 27.9432 20.49 28.0237 20.2165L30.0046 13.487C30.0852 13.2131 29.8417 12.9525 29.5561 13.0074Z" fill="white"/>
</svg>
