<svg width="1051" height="176" viewBox="0 0 1051 176" fill="none" xmlns="http://www.w3.org/2000/svg">
<path d="M88.1767 133.63C64.3091 133.63 45.0827 112.77 45.0827 87.3483C45.0827 61.9262 64.3091 41.0667 88.1767 41.0667C99.4472 41.0667 110.055 46.2815 118.011 54.1037L148.508 24.7703C131.933 9.77779 110.718 0 86.8506 0C39.1159 0 0 39.1111 0 88C0 136.237 39.1159 176 86.8506 176C110.718 176 132.596 166.222 147.845 150.578L117.348 121.244C110.055 129.067 99.4472 133.63 88.1767 133.63ZM213.48 3.91111L129.281 84.7407L126.63 87.3483L213.48 171.437L243.314 142.756L184.309 88L243.314 32.5926L213.48 3.91111ZM446.186 5.86668H389.17V169.481H446.849C499.224 169.481 537.014 138.192 537.014 88C537.014 37.1556 499.224 5.86668 446.186 5.86668ZM446.186 132.978H432.264V43.0222H446.186C476.683 43.0222 492.595 62.5779 492.595 88C492.595 112.119 475.357 132.978 446.186 132.978ZM680.217 43.0222V5.86668H556.903V169.481H680.217V132.978H600V104.948H678.231V68.4442H600V43.0222H680.217ZM283.756 3.91111L253.922 32.5926L312.927 88L253.922 142.756L283.756 171.437L370.606 87.3483L367.955 84.7407L283.756 3.91111Z" fill="black"/>
<path d="M992.133 165.149C989.789 165.149 987.615 164.715 985.607 163.847C983.604 162.945 981.871 161.759 980.412 160.29L982.96 157.384C984.149 158.619 985.541 159.622 987.137 160.39C988.771 161.125 990.449 161.492 992.182 161.492C994.389 161.492 996.106 161.008 997.327 160.039C998.549 159.037 999.165 157.735 999.165 156.131C999.165 154.996 998.907 154.094 998.4 153.426C997.922 152.758 997.261 152.19 996.414 151.722C995.594 151.255 994.664 150.787 993.608 150.32L988.82 148.266C987.764 147.831 986.713 147.264 985.662 146.562C984.638 145.861 983.774 144.959 983.059 143.857C982.382 142.755 982.041 141.402 982.041 139.799C982.041 138.129 982.481 136.643 983.367 135.34C984.286 134.004 985.541 132.969 987.137 132.234C988.732 131.465 990.537 131.082 992.54 131.082C994.543 131.082 996.392 131.465 998.092 132.234C999.793 132.969 1001.23 133.937 1002.42 135.139L1000.13 137.845C999.11 136.876 997.977 136.125 996.717 135.59C995.495 135.023 994.103 134.739 992.54 134.739C990.669 134.739 989.162 135.173 988.006 136.041C986.883 136.91 986.322 138.079 986.322 139.548C986.322 140.584 986.592 141.452 987.137 142.154C987.714 142.821 988.43 143.372 989.277 143.807C990.125 144.241 990.994 144.642 991.874 145.009L996.618 147.013C997.905 147.547 999.061 148.199 1000.08 148.967C1001.14 149.702 1001.97 150.62 1002.58 151.722C1003.19 152.791 1003.5 154.144 1003.5 155.78C1003.5 157.517 1003.03 159.104 1002.12 160.54C1001.2 161.943 999.892 163.062 998.197 163.897C996.497 164.732 994.477 165.149 992.133 165.149Z" fill="black"/>
<path d="M953.455 164.548V131.683H972.72V135.19H957.687V145.511H970.376V149.068H957.687V160.991H973.226V164.548H953.455Z" fill="black"/>
<path d="M934.432 165.149C931.648 165.149 929.15 164.481 926.943 163.145C924.77 161.776 923.037 159.822 921.749 157.284C920.489 154.745 919.862 151.689 919.862 148.116C919.862 144.575 920.505 141.536 921.799 138.997C923.086 136.459 924.852 134.505 927.098 133.136C929.337 131.766 931.868 131.082 934.691 131.082C936.727 131.082 938.526 131.499 940.089 132.334C941.652 133.136 942.912 134.071 943.859 135.139L941.569 137.845C940.684 136.91 939.682 136.159 938.559 135.59C937.442 135.023 936.166 134.739 934.741 134.739C932.633 134.739 930.784 135.29 929.189 136.392C927.626 137.461 926.399 138.981 925.518 140.951C924.671 142.922 924.242 145.276 924.242 148.015C924.242 150.754 924.671 153.142 925.518 155.179C926.366 157.183 927.554 158.737 929.084 159.839C930.647 160.941 932.479 161.492 934.587 161.492C936.182 161.492 937.613 161.158 938.868 160.49C940.122 159.822 941.278 158.92 942.334 157.785L944.678 160.39C943.352 161.893 941.856 163.062 940.194 163.897C938.526 164.732 936.606 165.149 934.432 165.149Z" fill="black"/>
<path d="M886.246 164.548V131.683H890.626L902.704 152.324L906.32 159.137H906.523C906.424 157.468 906.303 155.747 906.166 153.977C906.066 152.174 906.017 150.403 906.017 148.667V131.683H910.039V164.548H905.659L893.532 143.857L889.911 137.094H889.707C889.845 138.73 889.966 140.417 890.065 142.154C890.202 143.89 890.268 145.627 890.268 147.364V164.548H886.246Z" fill="black"/>
<path d="M856.84 164.548V131.683H876.099V135.19H861.066V145.511H873.755V149.068H861.066V160.991H876.611V164.548H856.84Z" fill="black"/>
<path d="M840.888 164.548V131.683H845.12V164.548H840.888Z" fill="black"/>
<path d="M821.888 165.149C819.103 165.149 816.605 164.481 814.398 163.145C812.225 161.776 810.492 159.822 809.198 157.284C807.944 154.745 807.317 151.689 807.317 148.116C807.317 144.575 807.96 141.536 809.253 138.997C810.541 136.459 812.307 134.505 814.552 133.136C816.792 131.766 819.323 131.082 822.146 131.082C824.182 131.082 825.981 131.499 827.544 132.334C829.107 133.136 830.362 134.071 831.313 135.139L829.024 137.845C828.138 136.91 827.137 136.159 826.014 135.59C824.897 135.023 823.621 134.739 822.196 134.739C820.088 134.739 818.239 135.29 816.638 136.392C815.075 137.461 813.854 138.981 812.973 140.951C812.12 142.922 811.697 145.276 811.697 148.015C811.697 150.754 812.12 153.142 812.973 155.179C813.821 157.183 815.009 158.737 816.539 159.839C818.102 160.941 819.934 161.492 822.042 161.492C823.637 161.492 825.063 161.158 826.323 160.49C827.577 159.822 828.733 158.92 829.789 157.785L832.133 160.39C830.807 161.893 829.311 163.062 827.649 163.897C825.981 164.732 824.061 165.149 821.888 165.149Z" fill="black"/>
<path d="M788.751 165.149C786.407 165.149 784.233 164.715 782.225 163.847C780.222 162.945 778.488 161.759 777.03 160.29L779.578 157.384C780.766 158.619 782.159 159.622 783.754 160.39C785.389 161.125 787.067 161.492 788.8 161.492C791.007 161.492 792.724 161.008 793.945 160.039C795.172 159.037 795.783 157.735 795.783 156.131C795.783 154.996 795.524 154.094 795.018 153.426C794.539 152.758 793.879 152.19 793.032 151.722C792.212 151.255 791.282 150.787 790.225 150.32L785.438 148.266C784.382 147.831 783.331 147.264 782.28 146.562C781.262 145.861 780.392 144.959 779.677 143.857C779 142.755 778.659 141.402 778.659 139.799C778.659 138.129 779.105 136.643 779.985 135.34C780.904 134.004 782.159 132.969 783.754 132.234C785.35 131.465 787.155 131.082 789.158 131.082C791.161 131.082 793.015 131.465 794.71 132.234C796.41 132.969 797.852 133.937 799.041 135.139L796.752 137.845C795.728 136.876 794.594 136.125 793.334 135.59C792.113 135.023 790.721 134.739 789.158 134.739C787.287 134.739 785.779 135.173 784.624 136.041C783.501 136.91 782.94 138.079 782.94 139.548C782.94 140.584 783.21 141.452 783.754 142.154C784.332 142.821 785.048 143.372 785.895 143.807C786.748 144.241 787.612 144.642 788.492 145.009L793.235 147.013C794.523 147.547 795.679 148.199 796.697 148.967C797.753 149.702 798.584 150.62 799.195 151.722C799.805 152.791 800.114 154.144 800.114 155.78C800.114 157.517 799.651 159.104 798.738 160.54C797.819 161.943 796.509 163.062 794.815 163.897C793.114 164.732 791.095 165.149 788.751 165.149Z" fill="black"/>
<path d="M1022.09 104.43V71.5645H1030.45C1035.61 71.5645 1039.53 72.984 1042.22 75.8231C1044.9 78.6287 1046.24 82.6365 1046.24 87.8467C1046.24 93.0909 1044.9 97.1653 1042.22 100.071C1039.57 102.977 1035.71 104.43 1030.65 104.43H1022.09ZM1026.32 101.023H1030.14C1034.05 101.023 1036.97 99.8708 1038.91 97.5663C1040.88 95.2282 1041.86 91.9887 1041.86 87.8467C1041.86 83.7052 1040.88 80.5322 1038.91 78.3278C1036.97 76.0904 1034.05 74.9712 1030.14 74.9712H1026.32V101.023Z" fill="black"/>
<path d="M992.683 104.43V71.5645H1011.95V75.0713H996.915V85.392H1009.6V88.9489H996.915V100.873H1012.45V104.43H992.683Z" fill="black"/>
<path d="M976.737 104.43V71.5645H980.963V104.43H976.737Z" fill="black"/>
<path d="M949.416 104.43V71.5645H953.648V100.873H968.268V104.43H949.416Z" fill="black"/>
<path d="M918.013 104.43V71.5645H927.543C930.058 71.5645 932.248 71.8653 934.113 72.4665C935.984 73.0676 937.442 74.0862 938.499 75.5223C939.55 76.9253 940.078 78.8289 940.078 81.234C940.078 84.6737 938.939 87.229 936.661 88.8988C934.388 90.5692 931.412 91.4041 927.747 91.4041H922.244V104.43H918.013ZM922.244 87.9974H927.235C930.157 87.9974 932.314 87.4628 933.706 86.3941C935.131 85.2919 935.847 83.5715 935.847 81.234C935.847 78.8624 935.098 77.2256 933.607 76.3242C932.143 75.3886 929.953 74.9211 927.031 74.9211H922.244V87.9974Z" fill="black"/>
<path d="M886.609 104.43V71.5645H896.14C898.649 71.5645 900.845 71.8653 902.71 72.4665C904.581 73.0676 906.039 74.0862 907.096 75.5223C908.147 76.9253 908.675 78.8289 908.675 81.234C908.675 84.6737 907.536 87.229 905.258 88.8988C902.985 90.5692 900.008 91.4041 896.343 91.4041H890.841V104.43H886.609ZM890.841 87.9974H895.832C898.754 87.9974 900.911 87.4628 902.303 86.3941C903.728 85.2919 904.443 83.5715 904.443 81.234C904.443 78.8624 903.695 77.2256 902.204 76.3242C900.74 75.3886 898.55 74.9211 895.628 74.9211H890.841V87.9974Z" fill="black"/>
<path d="M862.084 86.0432L860.505 91.0532H870.547L868.968 86.0432C868.352 84.2062 867.774 82.3863 867.235 80.5823C866.69 78.7453 866.145 76.8753 865.6 74.9712H865.397C864.891 76.8753 864.362 78.7453 863.818 80.5823C863.273 82.3863 862.7 84.2062 862.084 86.0432ZM851.893 104.43L863.207 71.5645H867.999L879.307 104.43H874.773L871.615 94.4098H859.437L856.229 104.43H851.893Z" fill="black"/>
<path d="M815.873 104.43V71.5645H835.132V75.0713H820.099V86.1934H832.838V89.7007H820.099V104.43H815.873Z" fill="black"/>
<path d="M791.816 105.031C789.026 105.031 786.55 104.329 784.376 102.926C782.236 101.523 780.552 99.5362 779.33 96.9644C778.142 94.3926 777.547 91.3533 777.547 87.8465C777.547 84.3392 778.142 81.3334 779.33 78.8287C780.552 76.2899 782.236 74.3528 784.376 73.0169C786.55 71.6474 789.026 70.9626 791.816 70.9626C794.633 70.9626 797.115 71.6474 799.25 73.0169C801.39 74.3528 803.074 76.2899 804.296 78.8287C805.517 81.3334 806.134 84.3392 806.134 87.8465C806.134 91.3533 805.517 94.3926 804.296 96.9644C803.074 99.5362 801.39 101.523 799.25 102.926C797.115 104.329 794.633 105.031 791.816 105.031ZM791.816 101.373C793.819 101.373 795.552 100.822 797.01 99.7199C798.507 98.5842 799.662 97.0145 800.477 95.0108C801.291 92.9731 801.698 90.585 801.698 87.8465C801.698 83.7716 800.796 80.5486 798.997 78.177C797.197 75.8059 794.804 74.6201 791.816 74.6201C788.822 74.6201 786.429 75.8059 784.629 78.177C782.83 80.5486 781.927 83.7716 781.927 87.8465C781.927 90.585 782.335 92.9731 783.149 95.0108C783.963 97.0145 785.119 98.5842 786.616 99.7199C788.112 100.822 789.84 101.373 791.816 101.373Z" fill="black"/>
<path d="M1035.65 44.3111V31.5858L1025.62 11.4458H1030.15L1034.48 20.7142C1035.03 21.9166 1035.55 23.1023 1036.06 24.2713C1036.61 25.4403 1037.15 26.6427 1037.69 27.8784H1037.89C1038.47 26.6427 1039.05 25.4403 1039.63 24.2713C1040.2 23.1023 1040.75 21.9166 1041.26 20.7142L1045.54 11.4458H1049.97L1039.93 31.5858V44.3111H1035.65Z" fill="black"/>
<path d="M1008.02 44.3111V14.9528H997.927V11.4458H1022.39V14.9528H1012.3V44.3111H1008.02Z" fill="black"/>
<path d="M985.161 44.3111V11.4458H989.393V44.3111H985.161Z" fill="black"/>
<path d="M964.664 44.9119C962.32 44.9119 960.141 44.4777 958.138 43.6093C956.135 42.7075 954.402 41.5218 952.943 40.0522L955.491 37.1464C956.68 38.3822 958.072 39.3842 959.668 40.1524C961.296 40.8872 962.98 41.2546 964.714 41.2546C966.92 41.2546 968.637 40.7703 969.858 39.8017C971.08 38.7997 971.691 37.4972 971.691 35.894C971.691 34.7584 971.438 33.8566 970.931 33.1886C970.453 32.5206 969.792 31.9528 968.94 31.4852C968.125 31.0176 967.19 30.55 966.139 30.0824L961.351 28.0284C960.295 27.5942 959.244 27.0264 958.187 26.325C957.169 25.6236 956.305 24.7218 955.59 23.6196C954.913 22.5174 954.572 21.1647 954.572 19.5615C954.572 17.8916 955.012 16.4053 955.898 15.1027C956.812 13.7667 958.072 12.7313 959.668 11.9965C961.263 11.2284 963.063 10.8442 965.071 10.8442C967.074 10.8442 968.923 11.2284 970.623 11.9965C972.324 12.7313 973.765 13.6999 974.954 14.9023L972.659 17.6076C971.641 16.6391 970.502 15.8876 969.248 15.3532C968.026 14.7854 966.634 14.5015 965.071 14.5015C963.2 14.5015 961.687 14.9357 960.532 15.8041C959.415 16.6725 958.853 17.8414 958.853 19.311C958.853 20.3464 959.123 21.2148 959.668 21.9162C960.245 22.5842 960.961 23.1353 961.808 23.5695C962.656 24.0037 963.525 24.4045 964.405 24.7719L969.143 26.7759C970.436 27.3102 971.592 27.9616 972.61 28.7297C973.661 29.4645 974.497 30.383 975.108 31.4852C975.719 32.554 976.027 33.9067 976.027 35.5433C976.027 37.28 975.565 38.8665 974.646 40.3027C973.732 41.7055 972.423 42.8244 970.722 43.6594C969.028 44.4944 967.003 44.9119 964.664 44.9119Z" fill="black"/>
<path d="M924.528 44.3111V11.4458H934.972C937.25 11.4458 939.269 11.7464 941.036 12.3476C942.802 12.9154 944.178 13.884 945.163 15.2534C946.181 16.5893 946.692 18.393 946.692 20.6641C946.692 23.2025 946.01 25.2566 944.651 26.8264C943.292 28.3628 941.459 29.4148 939.148 29.9826L947.661 44.3111H942.868L934.818 30.4335H928.754V44.3111H924.528ZM928.754 27.0268H934.361C936.975 27.0268 938.978 26.5091 940.375 25.4737C941.767 24.4049 942.461 22.8017 942.461 20.6641C942.461 18.4932 941.767 16.9735 940.375 16.1051C938.978 15.2367 936.975 14.8025 934.361 14.8025H928.754V27.0268Z" fill="black"/>
<path d="M895.1 44.3111V11.4458H914.359V14.9528H899.331V25.2733H912.015V28.8304H899.331V40.754H914.871V44.3111H895.1Z" fill="black"/>
<path d="M872.462 44.3111L861.76 11.4458H866.299L871.648 29.181C872.259 31.1182 872.787 32.9385 873.227 34.6419C873.7 36.3119 874.262 38.1155 874.905 40.0526H875.114C875.725 38.1155 876.264 36.3119 876.743 34.6419C877.216 32.9385 877.745 31.1182 878.322 29.181L883.671 11.4458H888.002L877.403 44.3111H872.462Z" fill="black"/>
<path d="M850.413 44.3111V11.4458H854.639V44.3111H850.413Z" fill="black"/>
<path d="M814.861 44.3111V11.4458H819.241L831.319 32.0868L834.934 38.9003H835.138C835.039 37.2304 834.918 35.5103 834.786 33.7401C834.681 31.9365 834.632 30.1663 834.632 28.4295V11.4458H838.654V44.3111H834.274L822.146 23.62L818.531 16.8566H818.327C818.459 18.4932 818.58 20.1799 818.679 21.9166C818.817 23.6534 818.883 25.3902 818.883 27.127V44.3111H814.861Z" fill="black"/>
<path d="M791.354 44.9123C789.081 44.9123 787.023 44.4614 785.191 43.5596C783.391 42.6578 781.961 41.1715 780.91 39.1007C779.859 37.03 779.33 34.2411 779.33 30.7341V11.4458H783.556V30.8343C783.556 33.4729 783.897 35.5604 784.58 37.0968C785.29 38.5997 786.225 39.6686 787.381 40.3031C788.569 40.9377 789.895 41.255 791.354 41.255C792.85 41.255 794.193 40.9377 795.381 40.3031C796.57 39.6686 797.505 38.5997 798.182 37.0968C798.898 35.5604 799.255 33.4729 799.255 30.8343V11.4458H803.327V30.7341C803.327 34.2411 802.805 37.03 801.748 39.1007C800.697 41.1715 799.272 42.6578 797.472 43.5596C795.668 44.4614 793.632 44.9123 791.354 44.9123Z" fill="black"/>
</svg>
