<svg width="622" height="176" viewBox="0 0 622 176" fill="none" xmlns="http://www.w3.org/2000/svg">
<path d="M3.80212 174.561V136.783H16.6556C21.0899 136.783 24.7452 137.592 27.6215 139.212C30.4379 140.771 32.5352 142.959 33.9134 145.778C35.3515 148.596 36.0706 151.894 36.0706 155.672C36.0706 159.51 35.3515 162.838 33.9134 165.656C32.5352 168.474 30.4379 170.663 27.6215 172.222C24.7452 173.781 21.0899 174.561 16.6556 174.561H3.80212ZM10.7232 168.624H16.3859C19.5619 168.624 22.0487 168.115 23.8464 167.095C25.704 166.076 27.0223 164.607 27.8013 162.688C28.5803 160.769 28.9698 158.43 28.9698 155.672C28.9698 152.973 28.5803 150.665 27.8013 148.746C27.0223 146.827 25.704 145.328 23.8464 144.249C22.0487 143.229 19.5619 142.719 16.3859 142.719H10.7232V168.624Z" fill="black"/>
<path d="M49.0139 174.561V136.783H55.935V174.561H49.0139Z" fill="black"/>
<path d="M86.6755 175.28C83.14 175.28 80.0241 174.471 77.3275 172.852C74.6909 171.173 72.6236 168.894 71.1255 166.016C69.6873 163.138 68.9683 159.78 68.9683 155.942C68.9683 152.044 69.7173 148.596 71.2154 145.598C72.7134 142.66 74.9006 140.351 77.7769 138.672C80.5933 136.993 83.949 136.153 87.844 136.153C92.2184 136.153 95.8737 137.203 98.8099 139.301C101.686 141.46 103.574 144.399 104.473 148.116H96.7425C96.2032 146.377 95.1546 145.028 93.5966 144.069C92.0985 143.049 90.181 142.54 87.844 142.54C84.0688 142.54 81.1326 143.739 79.0353 146.137C76.9979 148.536 75.9793 151.804 75.9793 155.942C75.9793 160.139 76.9979 163.377 79.0353 165.656C81.0727 167.935 83.8291 169.074 87.3047 169.074C90.7203 169.074 93.297 168.145 95.0347 166.286C96.7725 164.427 97.8212 161.998 98.1807 159H88.6529V153.783H105.192V174.561H98.8099L98.2706 169.614C97.0122 171.413 95.4842 172.792 93.6865 173.751C91.8289 174.771 89.4919 175.28 86.6755 175.28Z" fill="black"/>
<path d="M118.764 174.561V136.783H125.685V174.561H118.764Z" fill="black"/>
<path d="M148.696 174.561V142.36H137.73V136.783H166.673V142.36H155.617V174.561H148.696Z" fill="black"/>
<path d="M176.29 174.561L190.042 136.783H197.862L211.615 174.561H204.334L201.278 165.836H186.537L183.481 174.561H176.29ZM188.514 160.439H199.39L193.908 144.698L188.514 160.439Z" fill="black"/>
<path d="M223.39 174.561V136.783H230.311V169.164H247.029V174.561H223.39Z" fill="black"/>
<path d="M279.747 174.561V136.783H304.106V142.36H286.668V152.973H300.78V158.37H286.668V174.561H279.747Z" fill="black"/>
<path d="M316.33 174.561V136.783H330.262C333.258 136.783 335.745 137.293 337.723 138.312C339.64 139.331 341.078 140.741 342.037 142.54C343.056 144.279 343.565 146.197 343.565 148.296C343.565 150.635 342.936 152.734 341.677 154.593C340.479 156.511 338.621 157.891 336.105 158.73L343.925 174.561H336.015L329.004 159.72H323.251V174.561H316.33ZM323.251 154.593H329.723C332.06 154.593 333.768 154.053 334.846 152.973C335.925 151.834 336.464 150.365 336.464 148.566C336.464 146.767 335.925 145.328 334.846 144.249C333.768 143.109 332.06 142.54 329.723 142.54H323.251V154.593Z" fill="black"/>
<path d="M356.868 174.561V136.783H381.496V142.36H363.789V152.704H379.878V158.1H363.789V168.984H381.496V174.561H356.868Z" fill="black"/>
<path d="M394.979 174.561V136.783H419.607V142.36H401.81V152.704H417.989V158.1H401.81V168.984H419.607V174.561H394.979Z" fill="black"/>
<path d="M451.606 174.561V169.344L468.954 142.54H451.786V136.783H476.953V142.09L459.516 168.804H477.043V174.561H451.606Z" fill="black"/>
<path d="M507.874 175.28C504.099 175.28 500.803 174.441 497.986 172.762C495.17 171.083 492.953 168.774 491.335 165.836C489.717 162.958 488.908 159.57 488.908 155.672C488.908 151.834 489.717 148.446 491.335 145.508C492.953 142.57 495.17 140.291 497.986 138.672C500.803 136.993 504.099 136.153 507.874 136.153C511.589 136.153 514.885 136.993 517.761 138.672C520.577 140.291 522.765 142.57 524.323 145.508C525.94 148.446 526.749 151.834 526.749 155.672C526.749 159.57 525.94 162.958 524.323 165.836C522.765 168.774 520.577 171.083 517.761 172.762C514.885 174.441 511.589 175.28 507.874 175.28ZM507.874 168.984C511.469 168.984 514.345 167.815 516.503 165.476C518.6 163.078 519.649 159.809 519.649 155.672C519.649 151.534 518.6 148.296 516.503 145.958C514.345 143.559 511.469 142.36 507.874 142.36C504.278 142.36 501.402 143.559 499.245 145.958C497.088 148.296 496.009 151.534 496.009 155.672C496.009 159.809 497.088 163.078 499.245 165.476C501.402 167.815 504.278 168.984 507.874 168.984Z" fill="black"/>
<path d="M539.783 174.561V136.783H546.614L564.411 163.407V136.783H571.332V174.561H564.411L546.614 148.026V174.561H539.783Z" fill="black"/>
<path d="M585.534 174.561V136.783H610.162V142.36H592.455V152.704H608.544V158.1H592.455V168.984H610.162V174.561H585.534Z" fill="black"/>
<mask id="mask0_3606_849" style="mask-type:luminance" maskUnits="userSpaceOnUse" x="0" y="0" width="622" height="148">
<path d="M0 0H622V147.514H0V0Z" fill="white"/>
</mask>
<g mask="url(#mask0_3606_849)">
<path d="M5.3302 109.979V99.0052L41.284 43.7775H5.68973V31.8145H57.8227V42.6981L21.6892 98.0157H58.0923V109.979H5.3302Z" fill="black"/>
<path d="M76.7883 109.979L105.372 31.8145H121.461L150.044 109.979H134.854L128.562 91.8993H98.0909L91.799 109.979H76.7883ZM101.956 80.7458H124.607L113.281 48.1849L101.956 80.7458Z" fill="black"/>
<path d="M170.987 109.979V31.8145H185.279L222.041 86.8623V31.8145H236.333V109.979H222.041L185.279 55.0209V109.979H170.987Z" fill="black"/>
<path d="M260.063 109.979V99.0052L296.016 43.7775H260.422V31.8145H312.555V42.6981L276.332 98.0157H312.735V109.979H260.063Z" fill="black"/>
<path d="M336.554 109.979V31.8145H350.846V109.979H336.554Z" fill="black"/>
<path d="M376.912 109.979V31.8145H408.282C416.432 31.8145 422.634 33.6734 426.888 37.3912C431.143 41.169 433.27 45.9962 433.27 51.8727C433.27 56.7898 431.952 60.7175 429.315 63.6558C426.678 66.5941 423.472 68.6029 419.697 69.6823C424.132 70.5218 427.817 72.7405 430.753 76.3384C433.629 79.8763 435.068 83.9839 435.068 88.6612C435.068 94.8376 432.85 99.9346 428.416 103.952C423.922 107.97 417.6 109.979 409.451 109.979H376.912ZM391.204 64.6453H406.125C410.14 64.6453 413.226 63.7158 415.383 61.8569C417.54 59.998 418.619 57.3295 418.619 53.8516C418.619 50.6135 417.57 48.035 415.473 46.1161C413.316 44.2572 410.14 43.3277 405.945 43.3277H391.204V64.6453ZM391.204 98.3755H407.113C411.368 98.3755 414.664 97.3861 417.001 95.4073C419.338 93.4284 420.506 90.64 420.506 87.0422C420.506 83.4443 419.278 80.5959 416.821 78.4971C414.364 76.3984 411.068 75.349 406.934 75.349H391.204V98.3755Z" fill="black"/>
<path d="M453.224 109.979L481.807 31.8145H497.897L526.48 109.979H511.289L505.087 91.8993H474.617L468.235 109.979H453.224ZM478.482 80.7458H501.132L489.717 48.1849L478.482 80.7458Z" fill="black"/>
<path d="M547.423 109.979V31.8145H576.186C582.418 31.8145 587.571 32.8638 591.646 34.9626C595.661 37.0614 598.687 39.9397 600.724 43.5976C602.702 47.1955 603.721 51.1831 603.78 55.5606C603.721 60.3578 602.462 64.7052 600.005 68.6029C597.489 72.5606 593.594 75.4389 588.32 77.2379L604.5 109.979H588.141L573.579 79.1268H561.804V109.979H547.423ZM561.715 68.6029H575.197C579.991 68.6029 583.497 67.4636 585.714 65.1849C587.931 62.8463 589.039 59.7881 589.039 56.0103C589.039 52.2925 587.931 49.3242 585.714 47.1055C583.556 44.8868 580.021 43.7775 575.107 43.7775H561.715V68.6029Z" fill="black"/>
</g>
</svg>
