<svg width="1136" height="176" viewBox="0 0 1136 176" fill="none" xmlns="http://www.w3.org/2000/svg">
<path d="M83.6687 175.516C71.8354 175.516 60.8542 173.345 50.7412 169.019C40.6121 164.645 31.7693 158.598 24.1805 150.879C16.6239 143.159 10.7555 134.073 6.55913 123.604C2.34672 113.102 0.256592 101.54 0.256592 88.9314C0.256592 76.5001 2.31456 65.0015 6.4305 54.4518C10.5464 43.87 16.3506 34.7355 23.8589 27.0483C31.3512 19.329 40.1298 13.3305 50.1624 9.03663C60.195 4.75885 71.2084 2.60388 83.2185 2.60388C95.0519 2.60388 105.631 4.64628 114.988 8.71499C124.378 12.7515 132.288 18.0264 138.719 24.5396C145.151 31.0688 149.797 38.1448 152.675 45.7676L129.073 57.2822C125.6 48.1156 119.892 40.7179 111.966 35.0893C104.023 29.4767 94.4409 26.6624 83.2185 26.6624C72.1087 26.6624 62.2851 29.2998 53.7638 34.5746C45.2265 39.8173 38.6024 47.0863 33.8916 56.3817C29.1647 65.6448 26.8173 76.5001 26.8173 88.9314C26.8173 101.379 29.229 112.282 34.0845 121.674C38.9722 131.034 45.6767 138.303 54.214 143.481C62.7353 148.627 72.5589 151.2 83.6687 151.2C92.9618 151.2 101.483 149.303 109.2 145.475C116.918 141.664 123.092 136.276 127.722 129.329C132.353 122.349 134.668 114.212 134.668 104.949V93.4343L146.565 104.241H83.2185V81.791H160.971V97.4869C160.971 109.806 158.865 120.806 154.669 130.487C150.456 140.136 144.765 148.338 137.562 155.06C130.391 161.798 122.159 166.896 112.866 170.37C103.605 173.795 93.8621 175.516 83.6687 175.516Z" fill="black"/>
<path d="M196.036 172.814V5.30566H306.395V28.9139H222.597V77.0308H301.893V100.639H222.597V149.206H306.395V172.814H196.036Z" fill="black"/>
<path d="M420.567 175.516C408.428 175.516 397.157 173.345 386.739 169.019C376.32 164.645 367.156 158.582 359.278 150.814C351.432 143.015 345.29 133.864 340.885 123.347C336.463 112.845 334.26 101.379 334.26 88.9314C334.26 76.5001 336.463 65.0015 340.885 54.4518C345.29 43.87 351.4 34.7355 359.213 27.0483C367.011 19.329 376.143 13.3305 386.61 9.03663C397.109 4.75885 408.428 2.60388 420.567 2.60388C432.866 2.60388 444.233 4.75885 454.652 9.03663C465.07 13.3305 474.203 19.3773 482.049 27.177C489.927 34.9445 496.036 44.079 500.377 54.5805C504.702 65.0498 506.873 76.5001 506.873 88.9314C506.873 101.379 504.654 112.845 500.249 123.347C495.827 133.864 489.718 143.015 481.92 150.814C474.154 158.582 465.022 164.645 454.523 169.019C444.008 173.345 432.689 175.516 420.567 175.516ZM420.567 151.2C429.265 151.2 437.239 149.64 444.491 146.504C451.774 143.385 458.125 139.01 463.527 133.382C468.929 127.769 473.109 121.192 476.068 113.633C479.058 106.042 480.569 97.8086 480.569 88.9314C480.569 80.1024 479.058 71.9489 476.068 64.4869C473.109 56.9928 468.929 50.3831 463.527 44.6741C458.125 38.9811 451.774 34.5586 444.491 31.4226C437.239 28.2545 429.265 26.6624 420.567 26.6624C411.901 26.6624 403.926 28.2545 396.643 31.4226C389.392 34.5586 383.073 38.9811 377.671 44.6741C372.269 50.3831 368.104 56.9928 365.194 64.4869C362.268 71.9489 360.821 80.1024 360.821 88.9314C360.821 97.8086 362.268 106.042 365.194 113.633C368.104 121.192 372.269 127.769 377.671 133.382C383.073 139.01 389.44 143.385 396.771 146.504C404.103 149.64 412.029 151.2 420.567 151.2Z" fill="black"/>
<path d="M544.65 172.814V5.30566H569.41L632.306 92.5337H619.959L681.762 5.30566H706.522V172.814H680.218V36.5688L690.058 39.2706L626.904 125.598H624.203L562.4 39.2706L571.21 36.5688V172.814H544.65Z" fill="black"/>
<path d="M749.188 172.814V5.30566H775.748V172.814H749.188Z" fill="black"/>
<path d="M818.416 172.814V5.30566H839.767L933.727 135.054L923.63 136.598V5.30566H949.933V172.814H928.582L835.266 42.1653L844.977 40.3641V172.814H818.416Z" fill="black"/>
<path d="M992.611 172.814V5.30566H1047.47C1064.83 5.30566 1079.91 8.81151 1092.74 15.791C1105.56 22.7384 1115.48 32.5162 1122.52 45.1244C1129.55 57.7004 1133.07 72.3027 1133.07 88.9314C1133.07 105.447 1129.55 120.034 1122.52 132.674C1115.48 145.331 1105.56 155.189 1092.74 162.265C1079.91 169.309 1064.83 172.814 1047.47 172.814H992.611ZM1019.17 149.206H1047.92C1059.75 149.206 1070.04 146.746 1078.79 141.809C1087.57 136.839 1094.37 129.876 1099.17 120.902C1103.97 111.896 1106.38 101.25 1106.38 88.9314C1106.38 76.677 1103.93 66.0791 1099.05 57.1536C1094.16 48.2443 1087.36 41.313 1078.66 36.3758C1069.99 31.4065 1059.75 28.9139 1047.92 28.9139H1019.17V149.206Z" fill="black"/>
</svg>
