<svg width="376" height="176" viewBox="0 0 376 176" fill="none" xmlns="http://www.w3.org/2000/svg">
<g clip-path="url(#clip0_3605_553)">
<path d="M143.925 7.15048C157.692 7.15048 168.868 18.3166 168.868 32.0908C168.868 45.8736 157.692 57.0397 143.925 57.0397C130.14 57.0397 118.981 45.8736 118.981 32.0908C118.981 18.3166 130.14 7.15048 143.925 7.15048ZM143.925 64.1901C161.648 64.1901 176.02 49.8201 176.02 32.0908C176.02 14.37 161.648 0 143.925 0C126.193 0 111.821 14.37 111.821 32.0908C111.821 49.8201 126.193 64.1901 143.925 64.1901Z" fill="black"/>
<path d="M63.4423 88.0035C63.4423 74.4452 74.4372 63.4518 88.0059 63.4518V56.4309C70.5505 56.4309 56.4031 70.5505 56.4031 88.0035C56.4031 105.457 70.5505 119.602 88.0059 119.602C105.461 119.602 119.574 105.457 119.574 88.0035H112.613C112.613 101.57 101.566 112.564 88.006 112.564C74.4372 112.564 63.4423 101.57 63.4423 88.0035Z" fill="black"/>
<path d="M42.4069 88.0017C42.4069 113.184 62.8247 133.599 88.0102 133.599C113.187 133.599 133.657 113.184 133.657 88.0017H126.67C126.67 109.315 109.318 126.595 88.0103 126.595C66.6855 126.595 49.4115 109.315 49.4115 88.0017C49.4115 66.6885 66.6942 49.4168 88.0103 49.4168V42.4045C62.8248 42.4045 42.4069 62.8196 42.4069 88.0017Z" fill="black"/>
<path d="M28.2526 88.0017C28.2526 120.999 55.01 147.744 88.0034 147.744C121.005 147.744 147.694 120.999 147.694 88.0017H140.655C140.655 117.053 117.058 140.603 88.0034 140.603C58.9485 140.603 35.404 117.053 35.404 88.0017C35.404 58.9594 58.9485 35.4095 88.0034 35.4095L88.0116 28.3281C55.0096 28.3281 28.2526 55.0042 28.2526 88.0017Z" fill="black"/>
<path d="M88.0085 14.0859C47.1814 14.0859 14.0844 47.1785 14.0844 88C14.0844 128.822 47.1814 161.914 88.0085 161.914C128.836 161.914 161.881 128.83 161.881 88.0087L154.859 88.0005C154.859 124.893 124.897 154.79 88.0086 154.79C51.1112 154.79 21.2099 124.893 21.2099 88.0005C21.2099 51.1169 51.1112 21.211 88.0086 21.211L88.0085 14.0859Z" fill="black"/>
<path d="M88.0111 168.988C43.2713 168.988 7.00457 132.726 7.00457 88.0013C7.00457 43.2677 43.2714 7.01448 88.0111 7.01448V0.00219727C39.402 0.00219727 0 39.3988 0 88.0013C0 136.604 39.402 176 88.0111 176C136.62 176 176.022 136.604 176.022 88.0013H169.061C169.061 132.726 132.742 168.988 88.0111 168.988Z" fill="black"/>
<path d="M217.207 76.8476C220.722 76.8476 225.041 76.0618 227.399 74.9564V55.8971H215.402V61.8904H220.169V70.4485C219.332 70.5953 218.062 70.6557 217.026 70.6557C211.714 70.6557 207.594 67.8491 207.594 58.8419C207.594 49.9815 211.757 47.1663 217.941 47.1663C220.532 47.1663 223.944 47.719 226.103 48.5998L226.846 42.5461C224.445 41.5789 220.532 40.9744 217.535 40.9744C206.86 40.9744 199.976 46.5617 199.976 58.9369C199.976 71.0357 206.35 76.8476 217.207 76.8476Z" fill="black"/>
<path d="M247.517 46.6793C252.233 46.6793 254.496 49.6328 254.496 58.8213C254.496 67.9667 252.233 71.0583 247.569 71.0583C242.853 71.0583 240.547 68.0098 240.547 58.8213C240.547 49.6759 242.853 46.6793 247.517 46.6793ZM247.517 77.1725C257.354 77.1725 262.105 71.8873 262.105 58.8213C262.105 46.0316 257.354 40.522 247.517 40.522C237.679 40.522 232.929 46.0316 232.929 58.8213C232.929 71.611 237.869 77.1725 247.517 77.1725Z" fill="black"/>
<path d="M275.339 61.419H287.56V55.3135H275.339V47.714H289.737V41.5308H267.903V76.1605H290.221V69.9772H275.339V61.419Z" fill="black"/>
<path d="M307.881 76.1577V47.7631H315.404V41.5366H292.835V47.7631H300.358V76.1577H307.881Z" fill="black"/>
<path d="M338.155 76.1576H345.583V41.5366H338.155V55.2071H327.022V41.5366H319.586V76.1576H327.022V61.3818H338.155V76.1576Z" fill="black"/>
<path d="M375.265 69.9806H360.383V61.4225H372.605V55.3083H360.383V47.7088H374.773V41.5342H352.947V76.1552H375.265L375.265 69.9806Z" fill="black"/>
<path d="M209.808 121.455V88.0432H202.475V121.455H209.808Z" fill="black"/>
<path d="M234.011 107.547L223.733 88.0388H217.1V121.459H223.733V101.951L234.011 121.459H240.644V88.0388H234.011V107.547Z" fill="black"/>
<path d="M252.877 96.9451C252.877 95.2179 253.766 93.4994 257.403 93.4994C259.683 93.4994 261.704 94.1125 263.725 94.9933L264.528 89.1555C262.214 88.0847 259.812 87.5061 256.781 87.5061C249.068 87.5061 245.743 91.9622 245.743 97.6186C245.743 108.37 259.026 106.315 259.026 112.282C259.026 114.579 257.584 116.125 254.544 116.125C251.555 116.125 249.025 115.115 246.537 113.707L245.604 119.675C248.187 121.186 251.383 122.032 254.863 122.032C262.084 122.032 266.169 118.025 266.169 111.479C266.169 100.373 252.877 102.109 252.877 96.9451Z" fill="black"/>
<path d="M266.897 94.0538H273.781V121.455H281.045V94.0538H287.929V88.0347H266.897V94.0538Z" fill="black"/>
<path d="M298.976 121.455V88.0432H291.643V121.455H298.976Z" fill="black"/>
<path d="M302.69 94.0538H309.574V121.455H316.837V94.0538H323.721V88.0347H302.69V94.0538Z" fill="black"/>
<path d="M344.39 109.83C344.39 113.707 343.06 115.849 339.45 115.849C335.866 115.849 334.458 113.664 334.458 109.83V88.0415H327.186V110.097C327.186 118.12 331.314 122.032 339.433 122.032C347.457 122.032 351.585 118.12 351.585 110.097V88.0415H344.39V109.83Z" fill="black"/>
<path d="M354.969 88.0381V94.0573H361.853V121.459H369.116V94.0573H376V88.0381H354.969Z" fill="black"/>
</g>
<defs>
<clipPath id="clip0_3605_553">
<rect width="376" height="176" fill="white"/>
</clipPath>
</defs>
</svg>
