<svg width="193" height="176" viewBox="0 0 193 176" fill="none" xmlns="http://www.w3.org/2000/svg">
<path d="M57.7928 142.631L34.2039 166.241L10.615 142.631H57.7928Z" fill="black"/>
<path d="M92.3183 88.9724C87.3861 83.1773 87.6006 79.9578 90.6028 76.9529C94.2483 73.3041 98.1083 74.8066 102.397 78.8846L92.3183 88.9724ZM142.927 24.5822C146.573 20.9334 150.433 22.4358 154.722 26.5139L144.643 36.6017C139.496 30.8066 139.711 27.8017 142.927 24.5822ZM173.378 34.8846C168.875 41.7529 160.726 52.9139 152.363 44.5431L173.593 23.2944C171.663 21.3626 170.376 19.6456 169.089 18.5724C157.724 7.1968 144.857 6.98216 134.778 17.07C128.131 23.7236 126.201 31.4505 128.131 38.748L121.483 31.2358C119.767 32.0944 111.618 39.3919 117.623 50.1236L110.117 43.8992L100.038 53.987L113.763 67.7236C103.255 59.3529 91.8895 60.2114 82.8828 69.2261C73.2328 78.8846 73.8761 90.6895 81.1672 100.348L79.6661 98.8456C70.0161 89.187 59.5083 92.6212 54.3617 97.7724C50.2872 101.85 47.9283 107.216 49.0006 111.08L28.1995 90.2602L17.0483 101.421L58.2217 142.631H80.3095L65.5128 127.821C57.7928 119.88 57.5783 115.802 61.4383 111.938C65.0839 108.289 69.3728 110.65 76.8783 117.948L91.4606 132.543L102.397 121.597L88.4583 107.646C98.5372 115.158 110.546 115.587 121.268 104.855L121.483 104.641C128.131 98.631 130.061 92.6212 130.061 92.6212L121.697 87.0407C117.194 93.909 109.259 105.07 100.896 96.6992L122.126 75.4505L135.422 88.7578L147.002 77.1675L130.489 60.6407C122.769 52.9139 127.273 45.6163 130.489 42.8261C131.991 46.0456 134.135 49.0505 136.923 51.8407C147.645 62.5724 161.369 64.7187 173.593 52.6992L173.807 52.4846C180.455 46.4748 182.385 40.4651 182.385 40.4651L173.378 34.8846Z" fill="black"/>
</svg>
