<svg width="723" height="176" viewBox="0 0 723 176" fill="none" xmlns="http://www.w3.org/2000/svg">
<g clip-path="url(#clip0_3606_674)">
<mask id="mask0_3606_674" style="mask-type:luminance" maskUnits="userSpaceOnUse" x="161" y="0" width="562" height="141">
<path d="M723 0H161.408V140.405H723V0Z" fill="white"/>
</mask>
<g mask="url(#mask0_3606_674)">
<path d="M247.821 30.0225C247.821 30.0225 247.481 30.2001 246.801 30.5477C246.137 30.8799 245.511 31.7373 244.917 33.1124C244.314 34.4951 244.129 36.7121 244.361 39.7556L248.161 95.1264C248.385 98.0309 248.879 100.155 249.644 101.492C250.424 102.836 251.166 103.678 251.869 104.025C252.587 104.357 252.95 104.52 252.95 104.52H231.507C231.507 104.52 231.832 104.357 232.496 104.025C233.176 103.678 233.809 102.836 234.412 101.492C235.006 100.155 235.192 98 234.968 95.0337L231.167 39.5393C231.106 38.4888 230.997 37.5927 230.858 36.8511C230.549 37.5927 230.209 38.4888 229.839 39.5393L210.404 98.3708C210.173 99.1974 209.786 100.093 209.23 101.059C208.674 102.032 207.817 102.851 206.666 103.531C205.507 104.195 203.823 104.52 201.598 104.52L180.156 39.5393C179.7 38.2647 179.244 37.1447 178.796 36.1713C178.734 36.7121 178.657 37.2528 178.58 37.809C178.518 38.3652 178.441 38.9445 178.364 39.5393L174.563 95.0337C174.331 98 174.517 100.155 175.119 101.492C175.714 102.836 176.34 103.678 177.004 104.025C177.684 104.357 178.024 104.52 178.024 104.52H163.842C163.842 104.52 164.189 104.357 164.892 104.025C165.611 103.678 166.375 102.836 167.179 101.492C167.998 100.155 168.492 98.0309 168.662 95.1264L172.431 39.7556C172.655 36.7121 172.47 34.4951 171.875 33.1124C171.273 31.7373 170.639 30.8799 169.959 30.5477C169.295 30.2001 168.971 30.0225 168.971 30.0225H194.43C194.43 30.0225 194.129 30.2001 193.534 30.5477C192.955 30.8799 192.53 31.7373 192.267 33.1124C191.997 34.4951 192.391 36.7121 193.442 39.7556L208.612 85.9804L223.906 39.7556C224.957 36.7121 225.328 34.4951 225.019 33.1124C224.725 31.7373 224.285 30.8799 223.69 30.5477C223.088 30.2001 222.794 30.0225 222.794 30.0225H247.821Z" fill="black"/>
<path d="M321.491 63.3006C325.67 63.7563 329.378 64.6756 332.614 66.0506C335.843 67.4333 338.369 69.4804 340.184 72.1995C342.015 74.9186 342.934 78.5028 342.934 82.9523C342.934 87.1391 341.922 90.6075 339.906 93.3652C337.905 96.1075 335.094 98.3013 331.471 99.9467C327.864 101.577 323.692 102.751 318.957 103.469C314.238 104.172 309.202 104.52 303.849 104.52C303.787 104.52 302.906 104.52 301.222 104.52C299.554 104.52 297.499 104.52 295.074 104.52C292.664 104.52 290.238 104.52 287.813 104.52C285.403 104.52 283.371 104.52 281.726 104.52C280.096 104.52 279.285 104.52 279.285 104.52C279.285 104.52 279.633 104.357 280.336 104.025C281.054 103.678 281.742 102.836 282.406 101.492C283.086 100.155 283.425 98 283.425 95.0337V39.5393C283.425 36.5576 283.086 34.4101 282.406 33.1124C281.742 31.8146 281.054 30.9803 280.336 30.6095C279.633 30.2233 279.285 30.0225 279.285 30.0225C279.285 30.0225 280.088 30.0225 281.695 30.0225C283.302 30.0225 285.264 30.0225 287.597 30.0225C289.945 30.0225 292.293 30.0225 294.641 30.0225C296.989 30.0225 298.951 30.0456 300.543 30.0843C302.149 30.1306 302.953 30.1461 302.953 30.1461C313.311 30.231 321.282 31.5365 326.867 34.0702C332.444 36.5885 335.24 41.2697 335.24 48.1292C335.24 52.4551 334.066 55.8153 331.718 58.2023C329.37 60.5737 325.956 62.2732 321.491 63.3006ZM296.495 39.7556V62.3118C297.522 62.3968 298.48 62.4586 299.368 62.4972C300.272 62.5204 300.983 62.5281 301.5 62.5281C306.274 62.5281 310.152 62.2037 313.118 61.5393C316.099 60.8596 318.316 59.5464 319.761 57.5843C321.221 55.6067 321.955 52.6868 321.955 48.809C321.955 42.8378 320.317 38.8286 317.042 36.7893C313.767 34.75 308.584 33.7303 301.5 33.7303C301.068 33.7303 300.465 33.7535 299.708 33.7921C298.967 33.8153 298.148 33.8694 297.267 33.9466C297.036 34.6109 296.85 35.422 296.711 36.3876C296.565 37.3609 296.495 38.481 296.495 39.7556ZM303.849 100.163C308.622 100.163 312.94 99.6531 316.795 98.618C320.665 97.5675 323.754 95.7444 326.064 93.1489C328.366 90.538 329.524 86.8764 329.524 82.1798C329.524 77.4214 328.366 73.9298 326.064 71.7051C323.754 69.4649 320.665 67.9895 316.795 67.2865C312.94 66.5681 308.622 66.2051 303.849 66.2051H296.495V95.1264C296.495 96.5478 296.603 97.7837 296.835 98.8343C299.06 99.7227 301.392 100.163 303.849 100.163Z" fill="black"/>
<path d="M426.001 75.9382L415.279 104.52H406.134C406.134 104.52 405.655 104.357 404.713 104.025C403.786 103.678 402.689 102.82 401.437 101.461C400.178 100.086 398.95 97.8687 397.761 94.8175L376.998 39.4157C375.862 36.434 374.696 34.2865 373.506 32.9888C372.332 31.691 371.328 30.8799 370.509 30.5477C369.683 30.2001 369.273 30.0225 369.273 30.0225H390.716C390.716 30.0225 390.438 30.2001 389.882 30.5477C389.326 30.8799 388.955 31.7142 388.769 33.0506C388.584 34.3947 389.048 36.5576 390.16 39.5393L410.923 95.0337C411.062 95.4663 411.232 95.8603 411.417 96.2079C411.603 96.5401 411.773 96.8877 411.943 97.2585C412.082 96.8877 412.252 96.5401 412.437 96.2079C412.622 95.8603 412.754 95.4663 412.839 95.0337L422.973 67.9972L412.282 39.4157C411.147 36.434 409.981 34.2865 408.791 32.9888C407.617 31.691 406.613 30.8799 405.794 30.5477C404.967 30.2001 404.558 30.0225 404.558 30.0225H426.001C426.001 30.0225 425.723 30.2001 425.167 30.5477C424.61 30.8799 424.24 31.7142 424.054 33.0506C423.869 34.3947 424.332 36.5576 425.445 39.5393L446.331 95.0337C446.47 95.4663 446.617 95.8603 446.764 96.2079C446.903 96.5401 447.057 96.8877 447.227 97.2585C447.366 96.8877 447.536 96.5401 447.722 96.2079C447.907 95.8603 448.069 95.4663 448.216 95.0337L468.979 39.5393C470.107 36.5576 470.586 34.3947 470.4 33.0506C470.215 31.7142 469.829 30.8799 469.257 30.5477C468.701 30.2001 468.423 30.0225 468.423 30.0225H482.729C482.729 30.0225 482.311 30.2001 481.493 30.5477C480.666 30.8799 479.654 31.691 478.465 32.9888C477.291 34.2865 476.147 36.434 475.035 39.4157L450.564 104.52H441.419C441.419 104.52 440.94 104.357 439.997 104.025C439.07 103.678 437.974 102.82 436.722 101.461C435.463 100.086 434.235 97.8687 433.045 94.8175L426.001 75.9382Z" fill="black"/>
<path d="M527.254 33.3904C526.96 34.0548 526.729 34.9045 526.543 35.955C526.358 37.0056 526.265 38.2725 526.265 39.7556V58.8511H531.394C535.781 58.8511 539.288 58.6503 541.93 58.2332C544.587 57.8237 546.58 57.3834 547.924 56.9045C549.26 56.4101 550.133 55.9621 550.55 55.545C550.96 55.1355 551.168 54.927 551.168 54.927V65.5562C551.168 65.5562 550.96 65.3554 550.55 64.9382C550.133 64.5288 549.26 64.0885 547.924 63.6096C546.58 63.1152 544.587 62.6671 541.93 62.25C539.288 61.8406 535.781 61.632 531.394 61.632H526.265V95.1264C526.265 96.5478 526.358 97.7451 526.543 98.7107C526.729 99.684 526.96 100.534 527.254 101.275H536.739C542.857 101.275 547.716 100.719 551.323 99.6068C554.922 98.4944 557.634 97.1967 559.449 95.7135C561.28 94.2149 562.492 92.9017 563.095 91.7894C563.69 90.677 563.991 90.1208 563.991 90.1208L564.114 104.52H509.055C509.055 104.52 509.38 104.357 510.044 104.025C510.724 103.678 511.388 102.836 512.052 101.492C512.732 100.155 513.072 98 513.072 95.0337V39.5393C513.072 36.5576 512.732 34.4101 512.052 33.1124C511.388 31.8146 510.724 30.9803 510.044 30.6095C509.38 30.2233 509.055 30.0225 509.055 30.0225H564.114L563.991 44.4522C563.991 44.4522 563.69 43.8961 563.095 42.7837C562.492 41.6559 561.28 40.3659 559.449 38.9213C557.634 37.4614 554.922 36.1713 551.323 35.059C547.716 33.9466 542.857 33.3904 536.739 33.3904H527.254Z" fill="black"/>
<path d="M640.037 104.52L601.724 39.7556C601.492 39.3848 601.292 39.0758 601.106 38.8286C600.921 38.566 600.751 38.2725 600.612 37.9635C600.527 38.1952 600.488 38.4424 600.488 38.7051C600.488 38.9522 600.488 39.2303 600.488 39.5393V95.0337C600.488 98 600.836 100.155 601.539 101.492C602.257 102.836 602.945 103.678 603.609 104.025C604.289 104.357 604.628 104.52 604.628 104.52H590.447C590.447 104.52 590.794 104.357 591.497 104.025C592.215 103.678 592.903 102.836 593.567 101.492C594.247 100.155 594.587 98.0309 594.587 95.1264V39.7556C594.587 36.7121 594.247 34.4951 593.567 33.1124C592.903 31.7373 592.215 30.8799 591.497 30.5477C590.794 30.2001 590.447 30.0225 590.447 30.0225H613.218C613.218 30.0225 613.063 30.1306 612.754 30.3314C612.461 30.5168 612.229 30.9108 612.044 31.5056C611.858 32.085 611.928 33.0119 612.26 34.2865C612.608 35.5456 613.411 37.2992 614.67 39.5393L640.037 81.9635V39.7556C640.037 36.7121 639.674 34.4951 638.956 33.1124C638.253 31.7373 637.542 30.8799 636.824 30.5477C636.121 30.2001 635.773 30.0225 635.773 30.0225H649.955C649.955 30.0225 649.615 30.2233 648.935 30.6095C648.271 30.9803 647.591 31.8146 646.896 33.1124C646.193 34.4101 645.846 36.5576 645.846 39.5393V104.52H640.037Z" fill="black"/>
<path d="M697.747 30.0225C697.747 30.0225 697.383 30.2001 696.665 30.5477C695.962 30.8799 695.259 31.7373 694.564 33.1124C693.861 34.4951 693.514 36.7121 693.514 39.7556V95.1264C693.514 98.0309 693.861 100.155 694.564 101.492C695.259 102.836 695.962 103.678 696.665 104.025C697.383 104.357 697.747 104.52 697.747 104.52H676.304C676.304 104.52 676.628 104.357 677.292 104.025C677.972 103.678 678.636 102.836 679.301 101.492C679.981 100.155 680.32 98 680.32 95.0337V39.5393C680.32 36.5576 679.981 34.4101 679.301 33.1124C678.636 31.8146 677.972 30.9803 677.292 30.6095C676.628 30.2233 676.304 30.0225 676.304 30.0225H697.747Z" fill="black"/>
</g>
<mask id="mask1_3606_674" style="mask-type:luminance" maskUnits="userSpaceOnUse" x="0" y="21" width="148" height="150">
<path d="M0 21.7527H147.566V170.067H0V21.7527Z" fill="white"/>
</mask>
<g mask="url(#mask1_3606_674)">
<path d="M146.74 151.914C147.334 145.14 148.308 137.979 146.276 131.343C144.955 127.033 142.144 123.557 138.39 121.155C141.317 115.461 141.866 108.895 140.39 102.677C139.834 100.336 139 98.0731 137.949 95.9101C139 93.7472 139.834 91.4839 140.39 89.1433C141.866 82.9249 141.317 76.3511 138.39 70.658C142.144 68.2634 144.955 64.7872 146.276 60.4691C148.308 53.8413 147.334 46.6728 146.74 39.8982C146.245 34.2668 145.612 28.033 147.497 22.5639C142.02 24.441 135.786 23.8076 130.155 23.3132C123.381 22.7261 116.221 21.7528 109.593 23.7844C105.275 25.1053 101.799 27.9171 99.397 31.6713C93.7042 28.7437 87.1385 28.1952 80.9204 29.6706C78.5799 30.2268 76.3166 31.0611 74.1538 32.1117C71.991 31.0611 69.7278 30.2268 67.3873 29.6706C61.1692 28.1952 54.5957 28.7437 48.9106 31.6713C46.5083 27.9171 43.0324 25.1053 38.7145 23.7844C32.087 21.7528 24.9188 22.7261 18.1522 23.3132C12.5134 23.8076 6.27988 24.441 0.811035 22.5639L3.01248 24.7654C5.26799 25.2212 7.59302 25.3757 9.89488 25.368C16.9781 25.3371 24.0073 23.9389 31.0982 24.2015C34.327 24.3174 37.6562 24.7809 40.5992 26.1945C43.5036 27.6004 45.7977 29.7633 47.5202 32.4438C45.8827 33.4249 44.3532 34.5681 42.9474 35.8427C40.9545 34.0815 38.5986 32.8841 35.926 32.552C33.207 32.2121 30.4726 32.691 27.8231 33.2781C25.0501 33.8883 22.2693 34.6608 19.4267 34.8076C16.4451 34.9543 13.6335 34.3673 11.0767 32.7992C11.0535 32.7837 11.0304 32.776 11.0149 32.7683L14.0815 35.835C15.5877 36.2598 17.1635 36.4607 18.7547 36.4143C21.5278 36.3371 24.239 35.7114 26.9348 35.0934C29.5302 34.5063 32.1951 33.8729 34.8755 34.0351C37.5249 34.1973 39.8268 35.2402 41.7888 36.9319C40.885 37.8279 40.0353 38.7781 39.232 39.7669C38.4827 40.6938 37.7489 41.644 37.0615 42.625C31.8475 39.0021 24.6098 38.9635 18.608 40.3617L19.9365 41.6903C25.3282 40.6011 31.5772 40.7788 36.1886 43.9382C35.4316 45.1278 34.7596 46.356 34.2112 47.6538C34.0876 47.9396 33.964 48.2409 33.8558 48.5344C33.8249 48.4881 33.7863 48.4417 33.74 48.3954C32.4423 47.144 30.8279 46.0393 28.9586 45.9698C27.6146 45.9157 26.3709 46.3251 25.2355 46.9895L26.3941 48.1482C27.1897 47.731 28.0471 47.4684 28.9586 47.5534C30.4185 47.677 31.6003 48.5267 32.6199 49.5155C32.8903 49.7781 33.2147 49.7935 33.4773 49.6699C32.9907 51.269 32.7281 52.9143 32.7822 54.5365L34.5742 56.3287C33.6009 52.0028 35.6247 47.592 38.0115 44.0463C39.5255 41.7753 41.2712 39.6278 43.2409 37.743C43.4727 37.6657 43.6658 37.4803 43.7662 37.2563C45.3265 35.8272 47.0181 34.5604 48.8565 33.5253C48.9724 33.4867 49.0883 33.4249 49.181 33.3399C50.9962 32.3434 52.935 31.5709 55.0129 31.0843C61.4859 29.5625 68.2988 30.8602 74.1538 33.8961C80.0012 30.8602 86.814 29.5625 93.2948 31.0843C95.3649 31.5709 97.3114 32.3434 99.1267 33.3399C99.2194 33.4249 99.3352 33.4867 99.4511 33.5253C101.282 34.5604 102.981 35.8272 104.541 37.2563C104.642 37.4803 104.835 37.6657 105.067 37.743C107.029 39.6278 108.774 41.7753 110.296 44.0463C112.675 47.592 114.707 52.0028 113.733 56.3287C118.059 55.3553 122.462 57.3792 126.015 59.7662C128.286 61.2802 130.426 63.026 132.311 64.9958C132.395 65.2275 132.581 65.4207 132.805 65.5211C134.234 67.0815 135.501 68.7732 136.536 70.604C136.574 70.7275 136.636 70.8434 136.721 70.9361C137.718 72.7514 138.49 74.6903 138.977 76.7683C140.498 83.2416 139.201 90.0548 136.165 95.9101C139.201 101.758 140.498 108.571 138.977 115.052C138.49 117.122 137.718 119.069 136.721 120.876C136.636 120.977 136.574 121.093 136.536 121.209C135.501 123.039 134.234 124.739 132.805 126.299C132.581 126.392 132.395 126.593 132.318 126.817C130.426 128.787 128.286 130.532 126.015 132.054C122.462 134.433 118.059 136.465 113.733 135.492L115.518 137.276C117.148 137.33 118.793 137.075 120.392 136.589C120.268 136.851 120.284 137.176 120.546 137.446C121.535 138.466 122.385 139.648 122.508 141.108C122.593 142.019 122.323 142.876 121.914 143.672L123.072 144.831C123.736 143.695 124.146 142.452 124.092 141.108C124.022 139.238 122.918 137.616 121.666 136.326C121.62 136.28 121.574 136.241 121.527 136.21C121.821 136.094 122.114 135.978 122.408 135.855C123.706 135.306 124.934 134.634 126.123 133.877C129.283 138.489 129.46 144.738 128.371 150.13L129.7 151.459C131.098 145.457 131.059 138.218 127.436 133.004C128.417 132.317 129.368 131.583 130.287 130.834C131.283 130.03 132.226 129.181 133.129 128.277C134.821 130.231 135.864 132.541 136.026 135.19C136.188 137.871 135.555 140.536 134.96 143.131C134.35 145.827 133.724 148.531 133.647 151.312C133.6 152.903 133.801 154.479 134.226 155.985L137.293 159.052C137.285 159.037 137.277 159.013 137.262 158.99C135.694 156.433 135.107 153.622 135.253 150.64C135.4 147.789 136.173 145.016 136.783 142.243C137.37 139.593 137.849 136.859 137.509 134.14C137.177 131.467 135.972 129.111 134.218 127.118C135.493 125.704 136.636 124.183 137.617 122.545C140.298 124.268 142.46 126.562 143.866 129.466C145.28 132.409 145.743 135.739 145.859 138.968C146.122 146.051 144.724 153.089 144.693 160.164C144.685 162.466 144.839 164.799 145.295 167.055L147.497 169.256C145.62 163.787 146.253 157.546 146.74 151.914ZM107.708 26.1945C110.651 24.7809 113.981 24.3174 117.209 24.2015C124.293 23.9389 131.33 25.3371 138.413 25.368C140.707 25.3757 143.04 25.2212 145.295 24.7654C144.839 27.0211 144.685 29.3462 144.693 31.6482C144.724 38.7317 146.122 45.7612 145.859 52.8525C145.743 56.0815 145.28 59.4108 143.866 62.3539C142.46 65.2584 140.298 67.5527 137.617 69.2753C136.636 67.6377 135.493 66.1082 134.218 64.7023C135.972 62.7093 137.177 60.3532 137.509 57.6805C137.849 54.9614 137.37 52.2268 136.783 49.5773C136.173 46.8041 135.4 44.0232 135.253 41.1805C135.099 38.1987 135.694 35.3869 137.262 32.8223C137.27 32.8069 137.285 32.7837 137.293 32.7683C137.27 32.776 137.254 32.7837 137.231 32.7992C134.674 34.3673 131.863 34.9543 128.881 34.8076C126.031 34.6608 123.258 33.8883 120.485 33.2781C117.835 32.691 115.101 32.2121 112.382 32.552C109.709 32.8841 107.353 34.0815 105.36 35.8427C103.947 34.5681 102.425 33.4249 100.787 32.4438C102.51 29.7633 104.804 27.6004 107.708 26.1945ZM115.518 54.5365C115.572 52.9143 115.317 51.269 114.83 49.6699C115.093 49.7935 115.417 49.7781 115.688 49.5155C116.707 48.5267 117.889 47.677 119.349 47.5534C120.261 47.4684 121.118 47.731 121.914 48.1482C122.323 48.9438 122.593 49.8013 122.508 50.7128C122.385 52.1728 121.535 53.3546 120.546 54.3743C120.284 54.6447 120.268 54.9691 120.392 55.2318C118.793 54.7451 117.148 54.4825 115.518 54.5365ZM121.527 55.6103C121.574 55.5794 121.62 55.5407 121.666 55.4944C122.918 54.1966 124.022 52.5822 124.092 50.7128C124.146 49.3687 123.736 48.125 123.072 46.9895C121.937 46.3251 120.693 45.9157 119.349 45.9698C117.48 46.0393 115.858 47.144 114.568 48.3954C114.521 48.4417 114.483 48.4881 114.452 48.5344C114.336 48.2409 114.22 47.9396 114.096 47.6538C113.548 46.356 112.876 45.1278 112.119 43.9382C116.73 40.7788 122.979 40.6011 128.371 41.6903C129.46 47.0822 129.283 53.3315 126.123 57.9431C124.934 57.1861 123.706 56.5141 122.408 55.9656C122.114 55.842 121.821 55.7184 121.527 55.6103ZM130.287 60.9867C129.368 60.2296 128.417 59.5035 127.436 58.816C131.059 53.6018 131.098 46.3638 129.7 40.3617C123.698 38.9635 116.46 39.0021 111.246 42.625C110.559 41.644 109.825 40.6938 109.076 39.7669C108.272 38.7781 107.423 37.8279 106.519 36.9319C108.481 35.2402 110.783 34.1973 113.432 34.0351C116.113 33.8729 118.777 34.5063 121.373 35.1011C124.069 35.7114 126.772 36.3371 129.553 36.4143C131.144 36.4607 132.72 36.2598 134.226 35.835C133.801 37.3413 133.6 38.9171 133.647 40.5084C133.724 43.2816 134.35 45.993 134.96 48.6889C135.555 51.2844 136.188 53.9494 136.026 56.6299C135.864 59.2795 134.821 61.5815 133.129 63.5436C132.226 62.6398 131.283 61.79 130.287 60.9867Z" fill="black"/>
</g>
<path d="M99.9532 143.68C103.545 138.319 104.719 131.792 103.483 125.511C103.653 125.589 103.823 125.674 104.001 125.751L101.112 122.869C97.0565 121.379 92.8313 120.39 88.5906 119.641C83.817 118.791 78.9893 118.235 74.1538 117.895C69.3184 118.235 64.4906 118.791 59.717 119.641C55.4763 120.39 51.2511 121.386 47.1958 122.869L44.3069 125.759C44.4845 125.674 44.6545 125.589 44.8244 125.511C43.5885 131.792 44.7626 138.319 48.3544 143.68C51.6528 148.608 56.9362 152.386 62.884 153.22C66.3445 153.707 69.8282 153.12 72.9411 151.528C73.3582 151.32 73.7599 151.088 74.1538 150.841C74.5478 151.088 74.9494 151.32 75.3665 151.528C78.4872 153.12 81.9631 153.707 85.4314 153.22C91.3714 152.386 96.6549 148.608 99.9532 143.68ZM74.486 119.494C76.2703 119.633 78.0546 119.787 79.8312 119.98C79.5995 121.966 79.0665 124.577 77.12 125.504C76.193 125.952 75.1657 125.936 74.1538 125.712C73.1419 125.936 72.1146 125.952 71.1877 125.504C69.2411 124.577 68.7081 121.966 68.4764 119.98C70.253 119.787 72.0373 119.633 73.8217 119.494C73.9375 119.486 74.0457 119.478 74.1538 119.471C74.262 119.478 74.3778 119.486 74.486 119.494ZM66.9161 120.158C67.2251 122.661 67.9357 125.465 70.2607 126.809C71.458 127.497 72.8175 127.558 74.1538 127.311C75.4901 127.558 76.8496 127.497 78.0469 126.809C80.3719 125.465 81.0826 122.661 81.3915 120.158C83.2454 120.382 85.0838 120.637 86.9222 120.946C87.0226 125.032 85.9566 129.729 82.1176 131.846C79.5686 133.252 76.7492 133.082 74.1538 132.124C71.5584 133.082 68.739 133.252 66.19 131.846C62.351 129.729 61.285 125.032 61.3854 120.946C63.2238 120.637 65.0622 120.382 66.9161 120.158ZM59.7942 121.224C59.7324 125.789 61.1305 130.633 65.2399 133.128C68.0052 134.804 71.2031 134.758 74.1538 133.8C77.1045 134.758 80.3024 134.804 83.0677 133.128C87.1771 130.633 88.5752 125.789 88.5134 121.224C89.2163 121.348 89.9192 121.487 90.6221 121.634C91.3096 121.773 91.9971 121.919 92.6845 122.074C92.5764 122.236 92.5146 122.437 92.561 122.676C93.6887 129.111 90.9002 136.117 85.1765 139.493C82.7356 140.938 79.7926 141.702 76.9732 141.077C75.9613 140.853 75.0267 140.49 74.1538 140.011C73.2887 140.49 72.3463 140.853 71.3421 141.077C68.515 141.702 65.572 140.938 63.1311 139.493C57.4074 136.117 54.6189 129.111 55.7467 122.676C55.793 122.437 55.7312 122.236 55.6231 122.074C56.3105 121.919 56.998 121.773 57.6855 121.634C58.3884 121.487 59.0913 121.355 59.7942 121.224ZM74.1538 148.84C71.4889 150.763 68.3451 151.907 64.7919 151.806C58.8673 151.652 53.4216 148.052 50.0384 143.34C46.1839 137.971 45.0407 131.166 46.6087 124.785C46.6087 124.778 46.6087 124.762 46.6087 124.754C49.0728 123.773 51.6296 123.024 54.2018 122.406C53.0663 129.173 55.6771 136.079 61.2619 140.157C63.6719 141.911 66.6457 142.938 69.6351 142.869C71.2263 142.83 72.748 142.436 74.1538 141.787C75.5596 142.436 77.0813 142.822 78.6726 142.869C81.6619 142.938 84.6358 141.911 87.0458 140.157C92.6305 136.079 95.2413 129.165 94.1058 122.406C96.678 123.024 99.2348 123.773 101.699 124.754C101.699 124.762 101.699 124.778 101.699 124.785C103.267 131.166 102.124 137.971 98.2693 143.34C94.886 148.044 89.4403 151.652 83.5157 151.806C79.9625 151.907 76.8187 150.763 74.1538 148.84Z" fill="black"/>
<mask id="mask2_3606_674" style="mask-type:luminance" maskUnits="userSpaceOnUse" x="0" y="134" width="148" height="37">
<path d="M0 134.472H147.566V170.067H0V134.472Z" fill="white"/>
</mask>
<g mask="url(#mask2_3606_674)">
<path d="M145.295 167.055C143.04 166.599 140.715 166.445 138.413 166.452C131.33 166.483 124.3 167.881 117.209 167.619C113.981 167.503 110.651 167.039 107.708 165.626C104.804 164.22 102.51 162.057 100.787 159.376C102.425 158.395 103.947 157.252 105.36 155.978C107.353 157.731 109.709 158.936 112.382 159.268C115.101 159.608 117.835 159.129 120.485 158.542C123.258 157.932 126.038 157.159 128.881 157.013C131.863 156.866 134.674 157.453 137.231 159.021C137.254 159.037 137.277 159.044 137.293 159.052L134.226 155.985C132.72 155.56 131.144 155.36 129.553 155.406C126.78 155.483 124.069 156.109 121.373 156.719C118.777 157.314 116.113 157.947 113.432 157.785C110.783 157.623 108.481 156.58 106.519 154.888C107.423 153.985 108.272 153.042 109.076 152.046C109.825 151.126 110.559 150.176 111.246 149.195C116.46 152.818 123.698 152.857 129.7 151.459L128.371 150.13C122.979 151.219 116.73 151.041 112.119 147.882C112.876 146.692 113.548 145.464 114.096 144.166C114.22 143.873 114.336 143.579 114.452 143.286C114.483 143.332 114.521 143.379 114.568 143.425C115.858 144.676 117.48 145.781 119.349 145.85C120.693 145.905 121.937 145.495 123.072 144.831L121.914 143.672C121.118 144.082 120.261 144.352 119.349 144.267C117.889 144.143 116.707 143.294 115.688 142.305C115.417 142.042 115.093 142.027 114.83 142.15C115.317 140.551 115.572 138.906 115.525 137.276L113.733 135.484C114.707 139.817 112.683 144.221 110.296 147.774C108.774 150.045 107.036 152.185 105.067 154.077C104.835 154.155 104.642 154.34 104.541 154.564C102.981 155.993 101.289 157.26 99.4511 158.295C99.3352 158.334 99.2194 158.395 99.1267 158.48C97.3115 159.477 95.3726 160.249 93.2948 160.736C86.8218 162.258 80.0089 160.96 74.1538 157.924C68.3065 160.96 61.4936 162.258 55.0129 160.736C52.9427 160.249 50.9962 159.477 49.181 158.48C49.0883 158.395 48.9724 158.334 48.8565 158.295C47.0259 157.26 45.3265 155.993 43.7662 154.564C43.6658 154.34 43.4727 154.155 43.2409 154.077C41.279 152.185 39.5332 150.045 38.0115 147.774C35.6324 144.221 33.6009 139.817 34.5742 135.492L32.7899 137.276C32.7358 138.906 32.9907 140.551 33.4774 142.15C33.2147 142.027 32.8903 142.042 32.6199 142.305C31.6003 143.294 30.4185 144.143 28.9586 144.267C28.0471 144.352 27.1897 144.082 26.3941 143.672L25.2355 144.831C26.3709 145.495 27.6146 145.905 28.9586 145.85C30.8279 145.781 32.45 144.676 33.74 143.425C33.7863 143.379 33.8249 143.332 33.8558 143.286C33.9717 143.579 34.0876 143.873 34.2112 144.166C34.7596 145.464 35.4316 146.692 36.1886 147.882C31.5772 151.041 25.3282 151.219 19.9365 150.13L18.608 151.459C24.6098 152.857 31.8475 152.818 37.0615 149.195C37.7489 150.176 38.4827 151.126 39.232 152.053C40.0353 153.042 40.885 153.992 41.7888 154.888C39.8345 156.58 37.5249 157.623 34.8755 157.785C32.1951 157.947 29.5302 157.314 26.9348 156.719C24.239 156.109 21.5355 155.483 18.7547 155.406C17.1635 155.36 15.5877 155.56 14.0815 155.985L11.0149 159.052C11.0304 159.044 11.0535 159.037 11.0767 159.021C13.6335 157.453 16.4451 156.866 19.4267 157.013C22.277 157.159 25.0501 157.932 27.8231 158.542C30.4726 159.129 33.207 159.608 35.926 159.268C38.5986 158.936 40.9545 157.739 42.9474 155.978C44.361 157.252 45.8827 158.395 47.5202 159.376C45.7977 162.057 43.5036 164.22 40.5992 165.626C37.664 167.039 34.327 167.503 31.0982 167.619C24.015 167.881 16.9858 166.483 9.9026 166.452C7.60075 166.445 5.26799 166.599 3.01248 167.055L0.811035 169.256C6.27988 167.379 12.5212 168.013 18.1522 168.499C24.9265 169.094 32.087 170.067 38.7145 168.036C43.0324 166.715 46.5083 163.903 48.9106 160.149C54.6035 163.077 61.1692 163.625 67.3873 162.15C69.7278 161.593 71.991 160.759 74.1538 159.709C76.3166 160.759 78.5799 161.593 80.9204 162.15C87.1385 163.625 93.7119 163.077 99.4048 160.149C101.799 163.903 105.275 166.715 109.593 168.036C116.221 170.067 123.389 169.094 130.163 168.499C135.794 168.005 142.028 167.372 147.497 169.256L145.295 167.055Z" fill="black"/>
</g>
<path d="M44.5542 125.241C44.4769 125.411 44.392 125.581 44.307 125.758L47.1959 122.869C48.679 118.814 49.6754 114.588 50.4247 110.348C51.2744 105.574 51.8305 100.746 52.1704 95.9101C51.8305 91.0744 51.2744 86.2465 50.4247 81.4726C49.6754 77.2317 48.679 73.0063 47.1959 68.9508L44.307 66.0618C44.392 66.2394 44.4769 66.4094 44.5542 66.5793C38.2743 65.3434 31.7472 66.5175 26.3865 70.1095C21.4583 73.408 17.6811 78.6917 16.8469 84.632C16.3603 88.1004 16.9473 91.5765 18.5385 94.6973C18.7471 95.1145 18.9788 95.5161 19.226 95.9101C18.9788 96.3041 18.7471 96.7057 18.5385 97.1229C16.9473 100.236 16.3603 103.72 16.8469 107.188C17.6811 113.129 21.4583 118.412 26.3865 121.711C31.7472 125.303 38.2743 126.477 44.5542 125.241ZM30.5731 106.933C29.1286 104.492 28.3639 101.549 28.9896 98.7296C29.2059 97.7177 29.5766 96.7753 30.0556 95.9101C29.5766 95.0449 29.2059 94.1025 28.9896 93.0906C28.3639 90.2711 29.1286 87.3279 30.5731 84.8869C33.9486 79.1629 40.9546 76.3743 47.389 77.5021C47.6285 77.5484 47.8293 77.4866 47.9915 77.3785C48.146 78.066 48.2928 78.7535 48.4318 79.441C48.5786 80.1362 48.7099 80.8469 48.8412 81.5498C44.2761 81.488 39.4329 82.8862 36.938 86.9958C35.2618 89.7612 35.3081 92.9593 36.2659 95.9101C35.3081 98.8609 35.2618 102.059 36.938 104.824C39.4329 108.934 44.2761 110.324 48.8412 110.27C48.7099 110.973 48.5786 111.676 48.4318 112.379C48.2928 113.067 48.146 113.754 47.9915 114.442C47.8293 114.334 47.6285 114.272 47.389 114.318C40.9546 115.446 33.9486 112.657 30.5731 106.933ZM50.5715 96.2423C50.4324 98.0267 50.2779 99.8111 50.0848 101.588C48.0997 101.356 45.4888 100.823 44.5542 98.8764C44.1139 97.9494 44.1293 96.922 44.3533 95.9101C44.1293 94.8982 44.1139 93.8708 44.5542 92.9438C45.4888 90.9972 48.0997 90.4642 50.0848 90.2324C50.2779 92.0091 50.4324 93.7935 50.5715 95.5779C50.5792 95.6861 50.5869 95.802 50.5946 95.9101C50.5869 96.0182 50.5792 96.1264 50.5715 96.2423ZM49.9072 88.672C47.4045 88.981 44.5928 89.6917 43.2565 92.0168C42.569 93.2142 42.5072 94.5737 42.7544 95.9101C42.5072 97.2465 42.569 98.606 43.2565 99.8034C44.6005 102.129 47.4045 102.839 49.9072 103.148C49.6832 105.002 49.4283 106.841 49.1193 108.679C45.0331 108.779 40.3367 107.713 38.2202 103.874C36.8144 101.325 36.9843 98.5056 37.9421 95.9101C36.9843 93.3146 36.8144 90.4951 38.2202 87.9459C40.3367 84.1067 45.0331 83.0407 49.1193 83.1411C49.4283 84.9719 49.6832 86.8181 49.9072 88.672ZM26.7264 120.027C22.0145 116.643 18.4149 111.197 18.2605 105.272C18.16 101.719 19.3032 98.5751 21.2189 95.9101C19.3032 93.2451 18.16 90.1011 18.2605 86.5477C18.4149 80.6229 22.0145 75.1769 26.7264 71.7935C32.0948 67.9389 38.8999 66.7956 45.2803 68.3637C45.288 68.3637 45.3034 68.3637 45.3112 68.3637C46.2844 70.8202 47.0414 73.3771 47.6594 75.9571C40.8928 74.8216 33.9873 77.4326 29.9088 83.0175C28.1554 85.4277 27.128 88.4017 27.1975 91.3911C27.2362 92.9824 27.6301 94.5042 28.279 95.9101C27.6301 97.316 27.2362 98.8378 27.1975 100.429C27.128 103.419 28.1554 106.393 29.9088 108.803C33.9873 114.388 40.9006 116.999 47.6594 115.863C47.0414 118.435 46.2844 120.992 45.3112 123.456C45.3034 123.456 45.288 123.456 45.2803 123.456C38.8999 125.025 32.0948 123.881 26.7264 120.027Z" fill="black"/>
<mask id="mask3_3606_674" style="mask-type:luminance" maskUnits="userSpaceOnUse" x="0" y="21" width="35" height="150">
<path d="M0 21.7527H34.8523V170.067H0V21.7527Z" fill="white"/>
</mask>
<g mask="url(#mask3_3606_674)">
<path d="M0.810962 169.256L3.01241 167.055C3.46814 164.799 3.62263 162.474 3.6149 160.172C3.58401 153.088 2.1859 146.059 2.44853 138.968C2.56439 135.739 3.02785 132.409 4.44141 129.466C5.84724 126.562 8.01007 124.267 10.6904 122.545C11.6714 124.182 12.8146 125.704 14.0891 127.118C12.3357 129.111 11.1307 131.467 10.7986 134.14C10.4587 136.859 10.9376 139.593 11.5246 142.243C12.1349 145.016 12.9073 147.797 13.0541 150.64C13.2008 153.621 12.6138 156.433 11.0457 158.99C11.0303 159.013 11.0226 159.036 11.0148 159.052L14.0814 155.985C14.5063 154.479 14.7071 152.903 14.6607 151.312C14.5835 148.539 13.9578 145.827 13.3476 143.131C12.7528 140.536 12.1194 137.871 12.2816 135.19C12.4439 132.541 13.4866 130.239 15.1783 128.277C16.0743 129.18 17.0244 130.03 18.0131 130.833C18.94 131.583 19.8901 132.317 20.8711 133.004C17.2484 138.218 17.2098 145.456 18.6079 151.458L19.9365 150.13C18.8473 144.738 19.025 138.489 22.1843 133.877C23.3738 134.634 24.602 135.306 25.8997 135.855C26.1932 135.978 26.4867 136.094 26.7803 136.21C26.7339 136.241 26.6876 136.279 26.6412 136.326C25.3899 137.616 24.2853 139.238 24.2158 141.107C24.1617 142.451 24.5711 143.695 25.2354 144.831L26.394 143.672C25.9769 142.876 25.7143 142.019 25.7993 141.107C25.9229 139.647 26.7725 138.465 27.7613 137.446C28.0239 137.175 28.0393 136.851 27.9157 136.588C29.5147 137.075 31.16 137.33 32.7898 137.276L34.5741 135.491C30.2485 136.465 25.8379 134.433 22.2924 132.054C20.0214 130.532 17.8818 128.794 15.9893 126.824C15.9121 126.593 15.7267 126.399 15.5027 126.299C14.0737 124.739 12.8069 123.039 11.7718 121.208C11.7332 121.093 11.6714 120.977 11.5864 120.884C10.59 119.069 9.81757 117.122 9.33093 115.052C7.80923 108.579 9.10693 101.758 12.1426 95.91C9.10693 90.0624 7.80923 83.2414 9.33093 76.7681C9.81757 74.6979 10.59 72.7513 11.5864 70.9359C11.6714 70.8433 11.7332 70.7274 11.7718 70.6115C12.8069 68.7807 14.0737 67.0813 15.5027 65.5209C15.7267 65.4205 15.9121 65.2274 15.9893 64.9956C17.8741 63.0258 20.0214 61.2878 22.2847 59.766C25.8379 57.3791 30.2485 55.3552 34.5741 56.3285L32.7821 54.5364C31.16 54.49 29.5147 54.7449 27.9157 55.2316C28.0393 54.9689 28.0239 54.6445 27.7613 54.3741C26.7725 53.3545 25.9229 52.1726 25.7993 50.7126C25.7143 49.8011 25.9769 48.9437 26.394 48.148L25.2354 46.9893C24.5711 48.1248 24.1617 49.3685 24.2158 50.7126C24.2853 52.582 25.3899 54.1965 26.6412 55.4942C26.6876 55.5406 26.7339 55.5792 26.7803 55.6101C26.4867 55.726 26.1855 55.8418 25.8997 55.9654C24.602 56.5139 23.3738 57.1859 22.1843 57.943C19.025 53.3313 18.8473 47.082 19.9365 41.6901L18.6079 40.3615C17.2098 46.3636 17.2407 53.6017 20.8711 58.8159C19.8901 59.5034 18.94 60.2372 18.0131 60.9865C17.0244 61.7899 16.0743 62.6396 15.1783 63.5434C13.4866 61.5813 12.4439 59.2793 12.2816 56.6298C12.1194 53.9493 12.7528 51.2842 13.3476 48.6887C13.9578 45.9928 14.5835 43.2814 14.6607 40.5083C14.7071 38.917 14.5063 37.3411 14.0814 35.8348L11.0148 32.7681C11.0226 32.7835 11.0303 32.8067 11.0457 32.8222C12.6138 35.3868 13.2008 38.1986 13.0541 41.1803C12.9073 44.023 12.1349 46.8039 11.5246 49.5771C10.9376 52.2267 10.4587 54.9612 10.7986 57.6803C11.1307 60.3531 12.328 62.7091 14.0891 64.7021C12.8146 66.108 11.6714 67.6375 10.6904 69.2751C8.01007 67.5525 5.84724 65.2583 4.44141 62.3538C3.02785 59.4107 2.56439 56.0813 2.44853 52.8524C2.1859 45.7611 3.58401 38.7316 3.6149 31.648C3.62263 29.346 3.46814 27.0209 3.01241 24.7653L0.810962 22.5637C2.68798 28.0328 2.05458 34.2667 1.56022 39.9057C0.973174 46.6726 -9.60665e-05 53.8411 2.03141 60.4689C3.35228 64.7871 6.16394 68.2632 9.91798 70.6656C6.99045 76.351 6.44202 82.9247 7.91737 89.1431C8.47353 91.4837 9.30776 93.7471 10.3583 95.91C9.30776 98.0729 8.47353 100.336 7.91737 102.677C6.44202 108.895 6.99045 115.461 9.91798 121.154C6.16394 123.557 3.35228 127.033 2.03141 131.351C-9.60665e-05 137.979 0.973174 145.14 1.56795 151.914C2.05458 157.553 2.69571 163.787 0.810962 169.256Z" fill="black"/>
</g>
<path d="M48.3544 48.1404C44.7626 53.5013 43.5885 60.0287 44.8244 66.3089C44.6545 66.2317 44.4845 66.1467 44.3069 66.0617L47.1958 68.9508C51.2511 70.4339 55.4763 71.4304 59.717 72.1797C64.4906 73.0294 69.3184 73.5856 74.1538 73.9255C78.9893 73.5856 83.817 73.0294 88.5906 72.1797C92.8313 71.4304 97.0565 70.4339 101.112 68.9508C99.621 73.0063 98.6323 77.2317 97.883 81.4726C97.0334 86.2464 96.4772 91.0744 96.1373 95.9101C96.4772 100.746 97.0334 105.574 97.883 110.348C98.6323 114.588 99.6287 118.814 101.112 122.869L104.001 125.751C103.916 125.581 103.831 125.411 103.754 125.241C110.033 126.477 116.561 125.303 121.921 121.711C126.849 118.412 130.627 113.128 131.461 107.18C131.947 103.72 131.36 100.236 129.769 97.1228C129.561 96.7057 129.329 96.304 129.082 95.9101C129.329 95.5161 129.561 95.1144 129.769 94.6973C131.36 91.5765 131.947 88.1004 131.461 84.632C130.627 78.6917 126.849 73.4079 121.921 70.1095C116.561 66.5175 110.033 65.3433 103.754 66.5793C103.831 66.4093 103.916 66.2394 103.993 66.0694V66.0617C103.993 66.0694 103.993 66.0694 103.993 66.0694C103.823 66.1467 103.653 66.2317 103.483 66.3089C104.719 60.0287 103.545 53.5013 99.9532 48.1404C96.6549 43.212 91.3714 39.4346 85.4236 38.6003C81.9631 38.1137 78.4795 38.7007 75.3665 40.292C74.9494 40.5006 74.5478 40.7324 74.1538 40.9795C73.7599 40.7324 73.3582 40.5006 72.9411 40.292C69.8204 38.7007 66.3445 38.1137 62.8762 38.6003C56.9362 39.4346 51.6528 43.212 48.3544 48.1404ZM73.8217 72.3265C72.0373 72.1874 70.253 72.0329 68.4764 71.8398C68.7081 69.8546 69.2411 67.2436 71.1877 66.3089C72.1146 65.8686 73.1419 65.8841 74.1538 66.1081C75.1657 65.8841 76.193 65.8686 77.12 66.3089C79.0665 67.2436 79.5995 69.8546 79.8312 71.8398C78.0546 72.0329 76.2703 72.1874 74.486 72.3265C74.3701 72.3342 74.262 72.3419 74.1538 72.3497C74.0457 72.3419 73.9298 72.3342 73.8217 72.3265ZM81.3915 71.6622C81.0826 69.1593 80.3719 66.3475 78.0469 65.0112C76.8496 64.3237 75.4901 64.2619 74.1538 64.5091C72.8175 64.2619 71.458 64.3237 70.2607 65.0112C67.9357 66.3475 67.2251 69.1593 66.9161 71.6622C65.0622 71.4381 63.2161 71.1832 61.3854 70.8742C61.285 66.7879 62.351 62.0912 66.19 59.9746C68.739 58.5687 71.5584 58.7387 74.1538 59.6966C76.7492 58.7387 79.5686 58.5687 82.1176 59.9746C85.9566 62.0912 87.0226 66.7879 86.9222 70.8742C85.0838 71.1832 83.2454 71.4381 81.3915 71.6622ZM88.5134 70.5961C88.5752 66.0308 87.1771 61.1874 83.0677 58.6923C80.3024 57.0161 77.1045 57.0624 74.1538 58.0203C71.2031 57.0624 68.0052 57.0161 65.2399 58.6923C61.1305 61.1874 59.7324 66.0308 59.7942 70.5961C59.0913 70.4648 58.3884 70.3335 57.6855 70.1867C56.998 70.0477 56.3105 69.9009 55.6231 69.7464C55.7312 69.5842 55.793 69.3834 55.7467 69.1439C54.6189 62.7092 57.4074 55.7029 63.1311 52.3272C65.572 50.8826 68.515 50.1179 71.3344 50.7436C72.3463 50.9599 73.2887 51.3307 74.1538 51.8096C75.0189 51.3307 75.9613 50.9599 76.9732 50.7436C79.7926 50.1179 82.7356 50.8826 85.1765 52.3272C90.9002 55.7029 93.6887 62.7092 92.561 69.1439C92.5146 69.3834 92.5764 69.5842 92.6845 69.7464C91.9971 69.9009 91.3096 70.0477 90.6221 70.1867C89.9192 70.3335 89.2163 70.4648 88.5134 70.5961ZM117.735 84.8869C119.179 87.3279 119.944 90.271 119.318 93.0905C119.094 94.1025 118.731 95.0372 118.252 95.9101C118.731 96.7752 119.094 97.7176 119.318 98.7219C119.944 101.541 119.179 104.485 117.735 106.933C114.359 112.657 107.353 115.446 100.919 114.318C100.679 114.272 100.478 114.326 100.316 114.442C100.162 113.754 100.015 113.067 99.8759 112.379C99.7292 111.676 99.5978 110.973 99.4665 110.27C104.032 110.324 108.875 108.934 111.37 104.824C113.046 102.059 113 98.8609 112.034 95.9101C113 92.9592 113.046 89.7612 111.37 86.988C108.875 82.8862 104.032 81.488 99.4665 81.5498C99.5901 80.8468 99.7292 80.1362 99.8759 79.4409C100.015 78.7534 100.162 78.0659 100.316 77.3784C100.478 77.4866 100.679 77.5484 100.919 77.502C107.353 76.3742 114.359 79.1629 117.735 84.8869ZM97.7363 95.5779C97.8753 93.7935 98.0298 92.0091 98.2229 90.2324C100.208 90.4641 102.819 90.9971 103.746 92.9438C104.194 93.863 104.178 94.8981 103.954 95.9101C104.178 96.922 104.194 97.9494 103.746 98.8764C102.819 100.823 100.208 101.356 98.2229 101.588C98.0298 99.811 97.8753 98.0266 97.7363 96.2422C97.7286 96.1264 97.7208 96.0182 97.7131 95.9101C97.7208 95.8019 97.7286 95.686 97.7363 95.5779ZM98.4006 103.148C100.903 102.839 103.715 102.121 105.051 99.8033C105.739 98.606 105.801 97.2464 105.553 95.9101C105.801 94.5737 105.739 93.2141 105.044 92.0168C103.707 89.6917 100.903 88.981 98.4006 88.672C98.6246 86.8181 98.8795 84.9719 99.1885 83.1411C103.275 83.0407 107.971 84.1067 110.088 87.9459C111.493 90.495 111.323 93.3146 110.366 95.9101C111.323 98.5056 111.493 101.325 110.088 103.874C107.971 107.713 103.275 108.779 99.1885 108.679C98.8795 106.841 98.6246 105.002 98.4006 103.148ZM121.581 71.7935C126.293 75.1692 129.893 80.6228 130.047 86.5477C130.148 90.1011 129.004 93.245 127.081 95.9101C129.004 98.5751 130.148 101.719 130.047 105.272C129.893 111.197 126.293 116.643 121.581 120.027C116.213 123.881 109.408 125.025 103.027 123.456C103.02 123.456 103.004 123.456 102.997 123.456C102.023 120.992 101.266 118.435 100.648 115.863C107.407 116.999 114.32 114.388 118.399 108.803C120.152 106.393 121.18 103.418 121.11 100.429C121.064 98.8377 120.678 97.316 120.029 95.9101C120.678 94.5042 121.064 92.9824 121.11 91.3911C121.18 88.4016 120.152 85.4276 118.399 83.0175C114.32 77.4325 107.407 74.8216 100.648 75.9571C101.266 73.3848 102.016 70.8279 102.997 68.3637C103.004 68.3637 103.02 68.3637 103.027 68.3637C109.408 66.7956 116.213 67.9388 121.581 71.7935ZM74.1538 42.9725C76.8187 41.0568 79.9625 39.9135 83.5157 40.014C89.4403 40.1684 94.886 43.7682 98.2693 48.4803C102.124 53.8489 103.267 60.6544 101.699 67.035C101.699 67.0428 101.699 67.0582 101.699 67.0659C99.2348 68.0393 96.678 68.7963 94.1058 69.4143C95.2413 62.6474 92.6305 55.7415 87.0458 51.6628C84.6358 49.9093 81.6619 48.8819 78.6726 48.9515C77.0813 48.9901 75.5596 49.384 74.1538 50.0329C72.748 49.384 71.2263 48.9901 69.6351 48.9515C66.6457 48.8819 63.6719 49.9093 61.2619 51.6628C55.6771 55.7415 53.0663 62.6474 54.2018 69.4143C51.6296 68.7963 49.0728 68.0393 46.6087 67.0659C46.6087 67.0582 46.6087 67.0428 46.6087 67.035C45.0407 60.6544 46.1839 53.8489 50.0384 48.4803C53.4216 43.7682 58.8673 40.1684 64.7919 40.014C68.3451 39.9135 71.4889 41.0568 74.1538 42.9725Z" fill="black"/>
<mask id="mask4_3606_674" style="mask-type:luminance" maskUnits="userSpaceOnUse" x="157" y="102" width="547" height="75">
<path d="M703.226 102.832H157.453V176H703.226V102.832Z" fill="white"/>
</mask>
<g mask="url(#mask4_3606_674)">
<path d="M166.266 159.851C165.687 159.851 165.216 159.681 164.845 159.326C164.474 158.979 164.289 158.577 164.289 158.121V121.197C164.289 120.749 164.459 120.347 164.814 119.992C165.162 119.644 165.571 119.467 166.05 119.467H181.622C183.801 119.467 185.763 119.945 187.493 120.888C189.223 121.838 190.567 123.136 191.54 124.781C192.529 126.434 193.023 128.296 193.023 130.374C193.023 132.066 192.714 133.618 192.097 135.04C191.494 136.461 190.629 137.666 189.501 138.655C188.389 139.628 187.137 140.346 185.763 140.818L183.754 140.169C185.175 140.292 186.489 140.748 187.709 141.528C188.945 142.316 189.934 143.398 190.675 144.773C191.432 146.132 191.834 147.77 191.88 149.686C191.919 151.354 192.004 152.652 192.127 153.579C192.266 154.49 192.475 155.178 192.745 155.649C193.008 156.105 193.363 156.468 193.796 156.731C194.167 156.962 194.414 157.287 194.537 157.719C194.676 158.137 194.638 158.538 194.414 158.924C194.267 159.233 194.051 159.465 193.765 159.604C193.471 159.728 193.178 159.79 192.869 159.79C192.56 159.79 192.251 159.72 191.942 159.573C191.401 159.264 190.861 158.785 190.304 158.121C189.748 157.464 189.285 156.507 188.914 155.247C188.543 153.973 188.358 152.204 188.358 149.933C188.358 148.434 188.111 147.206 187.616 146.256C187.137 145.29 186.535 144.549 185.793 144.031C185.052 143.498 184.225 143.127 183.322 142.919C182.41 142.718 181.56 142.61 180.757 142.61H167.317L167.935 141.806V158.121C167.935 158.577 167.78 158.979 167.471 159.326C167.162 159.681 166.761 159.851 166.266 159.851ZM167.317 139.427H181.777C183.09 139.304 184.326 138.871 185.484 138.129C186.635 137.388 187.562 136.368 188.265 135.07C188.984 133.757 189.347 132.228 189.347 130.497C189.347 128.296 188.605 126.473 187.122 125.028C185.639 123.592 183.7 122.865 181.313 122.865H167.533L167.935 122.062V140.231L167.317 139.427Z" fill="black"/>
<path d="M234.105 119.467C234.638 119.467 235.062 119.636 235.371 119.961C235.68 120.293 235.835 120.703 235.835 121.197V145.082C235.835 147.924 235.155 150.504 233.796 152.806C232.452 155.116 230.652 156.962 228.389 158.337C226.118 159.697 223.569 160.377 220.726 160.377C217.86 160.377 215.288 159.697 213.002 158.337C210.715 156.962 208.892 155.116 207.533 152.806C206.189 150.504 205.524 147.924 205.524 145.082V121.197C205.524 120.703 205.687 120.293 206.019 119.961C206.343 119.636 206.799 119.467 207.378 119.467C207.849 119.467 208.251 119.636 208.583 119.961C208.931 120.293 209.109 120.703 209.109 121.197V145.082C209.109 147.306 209.634 149.307 210.684 151.076C211.75 152.853 213.172 154.274 214.948 155.34C216.717 156.391 218.64 156.916 220.726 156.916C222.866 156.916 224.82 156.391 226.596 155.34C228.365 154.274 229.779 152.853 230.829 151.076C231.895 149.307 232.436 147.306 232.436 145.082V121.197C232.436 120.703 232.575 120.293 232.869 119.961C233.178 119.636 233.587 119.467 234.105 119.467Z" fill="black"/>
<path d="M252.886 158.059C252.84 158.554 252.639 158.979 252.268 159.326C251.913 159.681 251.503 159.851 251.032 159.851C250.491 159.851 250.059 159.681 249.734 159.326C249.402 158.979 249.24 158.554 249.24 158.059V121.259C249.24 120.764 249.41 120.347 249.765 119.992C250.113 119.644 250.553 119.467 251.094 119.467C251.565 119.467 251.974 119.644 252.33 119.992C252.701 120.347 252.886 120.764 252.886 121.259V158.059Z" fill="black"/>
<path d="M295.791 119.467C296.301 119.467 296.703 119.621 296.996 119.93C297.282 120.239 297.429 120.625 297.429 121.073V157.997C297.429 158.577 297.244 159.033 296.873 159.357C296.502 159.689 296.085 159.851 295.637 159.851C295.405 159.851 295.15 159.813 294.864 159.728C294.594 159.627 294.386 159.473 294.246 159.264L268.509 124.596L269.498 124.07V158.306C269.498 158.724 269.343 159.079 269.034 159.388C268.725 159.697 268.339 159.851 267.891 159.851C267.397 159.851 266.995 159.697 266.686 159.388C266.392 159.079 266.253 158.724 266.253 158.306V121.197C266.253 120.625 266.423 120.193 266.779 119.899C267.126 119.613 267.52 119.467 267.953 119.467C268.177 119.467 268.424 119.521 268.694 119.621C268.957 119.706 269.166 119.868 269.312 120.115L294.772 154.382L294.185 155.402V121.073C294.185 120.625 294.347 120.239 294.679 119.93C295.003 119.621 295.374 119.467 295.791 119.467Z" fill="black"/>
<path d="M321.988 160.438C319.06 160.477 316.519 160.014 314.356 159.048C312.209 158.082 310.162 156.638 308.208 154.722C307.999 154.56 307.821 154.367 307.682 154.135C307.559 153.911 307.497 153.641 307.497 153.332C307.497 152.884 307.682 152.459 308.053 152.065C308.424 151.679 308.833 151.478 309.289 151.478C309.737 151.478 310.162 151.679 310.556 152.065C312.054 153.672 313.754 154.908 315.654 155.773C317.57 156.622 319.617 157.04 321.803 157.04C323.656 157.04 325.302 156.754 326.746 156.174C328.183 155.603 329.326 154.776 330.176 153.702C331.018 152.613 331.443 151.354 331.443 149.933C331.443 148.164 330.956 146.735 329.99 145.638C329.04 144.549 327.774 143.645 326.19 142.919C324.622 142.2 322.869 141.551 320.937 140.972C319.369 140.524 317.879 139.999 316.457 139.396C315.036 138.801 313.754 138.068 312.626 137.202C311.514 136.337 310.649 135.279 310.031 134.02C309.413 132.745 309.104 131.2 309.104 129.385C309.104 127.346 309.637 125.546 310.71 123.978C311.8 122.394 313.337 121.15 315.314 120.239C317.292 119.335 319.586 118.879 322.204 118.879C324.467 118.879 326.653 119.273 328.755 120.054C330.856 120.818 332.524 121.954 333.76 123.452C334.331 124.07 334.625 124.627 334.625 125.121C334.625 125.515 334.424 125.909 334.038 126.295C333.644 126.666 333.219 126.851 332.771 126.851C332.377 126.851 332.045 126.72 331.782 126.45C331.118 125.646 330.284 124.928 329.28 124.287C328.291 123.653 327.186 123.167 325.974 122.834C324.776 122.487 323.517 122.309 322.204 122.309C320.412 122.309 318.79 122.587 317.353 123.143C315.909 123.7 314.766 124.503 313.924 125.554C313.097 126.589 312.688 127.825 312.688 129.261C312.688 130.891 313.151 132.228 314.078 133.278C315.005 134.313 316.21 135.163 317.693 135.843C319.192 136.507 320.798 137.125 322.513 137.697C324.159 138.153 325.734 138.678 327.241 139.273C328.762 139.875 330.114 140.617 331.288 141.497C332.462 142.386 333.389 143.506 334.069 144.865C334.749 146.209 335.088 147.893 335.088 149.933C335.088 151.895 334.517 153.664 333.389 155.247C332.277 156.816 330.747 158.059 328.816 158.986C326.877 159.913 324.599 160.392 321.988 160.438Z" fill="black"/>
<path d="M374.47 160.438C371.728 160.438 369.294 159.805 367.178 158.523C365.077 157.248 363.439 155.61 362.265 153.61C361.091 151.617 360.504 149.5 360.504 147.275C360.504 145.591 360.829 143.962 361.493 142.393C362.173 140.81 363.192 139.389 364.552 138.129C365.927 136.878 367.68 135.889 369.804 135.163L372.276 137.635C369.264 138.338 367.147 139.535 365.911 141.219C364.691 142.911 364.088 144.773 364.088 146.812C364.088 148.542 364.49 150.195 365.293 151.756C366.097 153.301 367.302 154.583 368.908 155.587C370.53 156.576 372.523 157.07 374.871 157.07C377.359 157.07 379.506 156.661 381.298 155.834C383.09 155.016 384.589 153.919 385.809 152.559C387.045 151.2 388.018 149.67 388.744 147.955C389.486 146.225 390.027 144.479 390.382 142.702C390.459 142.332 390.629 142.046 390.876 141.837C391.124 141.613 391.479 141.497 391.958 141.497C392.491 141.497 392.916 141.698 393.225 142.084C393.534 142.478 393.642 142.965 393.564 143.537C393.209 145.599 392.576 147.639 391.649 149.655C390.722 151.655 389.463 153.471 387.879 155.093C386.311 156.723 384.419 158.021 382.194 158.986C379.97 159.952 377.39 160.438 374.47 160.438ZM394.955 159.666C394.746 159.666 394.553 159.65 394.368 159.604C394.198 159.542 394.043 159.473 393.904 159.388C391.556 157.534 389.285 155.757 387.107 154.042C384.944 152.335 382.789 150.481 380.649 148.481C378.525 146.488 376.293 144.178 373.945 141.559C372.6 140.014 371.388 138.516 370.299 137.048C369.225 135.565 368.36 134.105 367.703 132.66C367.062 131.224 366.745 129.787 366.745 128.365C366.745 126.596 367.186 124.99 368.074 123.545C368.955 122.108 370.206 120.973 371.813 120.146C373.419 119.304 375.343 118.879 377.59 118.879C380.348 118.879 382.634 119.405 384.45 120.455C386.257 121.49 387.524 122.711 388.25 124.132C388.289 124.179 388.343 124.31 388.405 124.534C388.482 124.742 388.528 124.982 388.528 125.245C388.528 125.6 388.381 125.924 388.096 126.233C387.802 126.527 387.416 126.666 386.921 126.666C386.612 126.666 386.35 126.62 386.149 126.511C385.94 126.388 385.778 126.233 385.655 126.048C384.89 124.897 383.878 123.947 382.627 123.205C381.368 122.448 379.691 122.062 377.59 122.062C375.242 122.062 373.45 122.649 372.214 123.823C370.978 124.997 370.36 126.511 370.36 128.365C370.36 129.54 370.685 130.799 371.349 132.135C372.006 133.456 372.84 134.792 373.852 136.152C374.879 137.496 375.953 138.801 377.065 140.076C378.61 141.806 380.232 143.49 381.947 145.113C383.654 146.742 385.346 148.264 387.014 149.686C388.683 151.107 390.266 152.405 391.772 153.579C393.271 154.738 394.599 155.742 395.758 156.607C396.021 156.816 396.206 157.032 396.314 157.256C396.438 157.488 396.5 157.75 396.5 158.059C396.5 158.368 396.361 158.724 396.098 159.11C395.828 159.481 395.449 159.666 394.955 159.666Z" fill="black"/>
<path d="M442.412 160.438C439.446 160.438 436.696 159.921 434.163 158.893C431.629 157.843 429.42 156.391 427.551 154.537C425.674 152.667 424.222 150.458 423.194 147.924C422.159 145.375 421.649 142.625 421.649 139.674C421.649 136.708 422.159 133.958 423.194 131.424C424.222 128.875 425.674 126.666 427.551 124.812C429.42 122.943 431.629 121.49 434.163 120.455C436.696 119.405 439.446 118.879 442.412 118.879C444.452 118.879 446.414 119.127 448.314 119.621C450.23 120.1 451.929 120.818 453.412 121.784C453.675 121.969 453.875 122.186 453.999 122.433C454.138 122.68 454.215 122.943 454.215 123.205C454.215 123.761 454.038 124.209 453.69 124.534C453.358 124.843 452.995 124.997 452.609 124.997C452.423 124.997 452.238 124.982 452.052 124.936C451.883 124.874 451.728 124.804 451.589 124.719C450.268 124.001 448.839 123.422 447.294 122.989C445.765 122.556 444.143 122.34 442.412 122.34C439.091 122.34 436.148 123.097 433.576 124.596C430.996 126.102 428.98 128.165 427.52 130.775C426.052 133.394 425.326 136.36 425.326 139.674C425.326 142.973 426.052 145.931 427.52 148.542C428.98 151.161 430.996 153.224 433.576 154.722C436.148 156.228 439.091 156.978 442.412 156.978C444.143 156.978 445.881 156.731 447.634 156.236C449.38 155.726 450.886 155.047 452.145 154.197L451.867 155.402V142.146L452.732 142.95H442.752C442.258 142.95 441.833 142.78 441.486 142.424C441.13 142.077 440.96 141.675 440.96 141.219C440.96 140.686 441.13 140.261 441.486 139.952C441.833 139.643 442.258 139.489 442.752 139.489H453.783C454.277 139.489 454.686 139.659 455.019 139.983C455.343 140.316 455.513 140.725 455.513 141.219V155.124C455.513 155.433 455.428 155.726 455.266 155.989C455.119 156.259 454.911 156.483 454.648 156.669C452.933 157.827 451.033 158.739 448.932 159.419C446.846 160.099 444.676 160.438 442.412 160.438Z" fill="black"/>
<path d="M480.455 123.916L466.459 158.77C466.289 159.141 466.072 159.434 465.81 159.635C465.539 159.82 465.23 159.913 464.883 159.913C464.342 159.913 463.94 159.774 463.678 159.48C463.407 159.195 463.253 158.832 463.214 158.399C463.168 158.214 463.191 157.99 463.276 157.719L478.509 120.455C478.694 120.023 478.926 119.729 479.219 119.559C479.505 119.374 479.845 119.281 480.239 119.281C480.625 119.281 480.965 119.397 481.258 119.621C481.544 119.829 481.761 120.108 481.907 120.455L497.078 157.534C497.155 157.781 497.202 158.02 497.202 158.245C497.202 158.785 497.024 159.195 496.676 159.48C496.321 159.774 495.919 159.913 495.471 159.913C495.077 159.913 494.737 159.813 494.452 159.604C494.158 159.38 493.942 159.102 493.803 158.77L479.436 123.669L480.455 123.916ZM469.796 148.202L471.248 144.803H489.106L489.817 148.202H469.796Z" fill="black"/>
<path d="M508.84 159.851C508.26 159.851 507.789 159.681 507.418 159.326C507.048 158.979 506.862 158.577 506.862 158.121V121.197C506.862 120.749 507.032 120.347 507.388 119.992C507.735 119.644 508.145 119.467 508.623 119.467H524.196C526.374 119.467 528.336 119.945 530.066 120.888C531.797 121.838 533.141 123.136 534.114 124.781C535.103 126.434 535.597 128.296 535.597 130.374C535.597 132.066 535.288 133.618 534.67 135.04C534.067 136.461 533.202 137.666 532.075 138.655C530.962 139.628 529.711 140.346 528.336 140.818L526.328 140.169C527.749 140.292 529.062 140.748 530.283 141.528C531.518 142.316 532.507 143.398 533.249 144.773C534.006 146.132 534.407 147.77 534.454 149.686C534.492 151.354 534.577 152.652 534.701 153.579C534.84 154.49 535.048 155.178 535.319 155.649C535.581 156.105 535.937 156.468 536.369 156.731C536.74 156.962 536.987 157.287 537.111 157.719C537.25 158.137 537.211 158.538 536.987 158.924C536.841 159.233 536.624 159.465 536.338 159.604C536.045 159.728 535.751 159.79 535.442 159.79C535.133 159.79 534.824 159.72 534.516 159.573C533.975 159.264 533.434 158.785 532.878 158.121C532.322 157.464 531.858 156.507 531.488 155.247C531.117 153.973 530.931 152.204 530.931 149.933C530.931 148.434 530.684 147.206 530.19 146.256C529.711 145.29 529.108 144.549 528.367 144.031C527.625 143.498 526.799 143.127 525.895 142.919C524.984 142.718 524.134 142.61 523.331 142.61H509.89L510.508 141.806V158.121C510.508 158.577 510.354 158.979 510.045 159.326C509.736 159.681 509.334 159.851 508.84 159.851ZM509.89 139.427H524.35C525.663 139.304 526.899 138.871 528.058 138.129C529.209 137.388 530.136 136.368 530.839 135.07C531.557 133.757 531.92 132.228 531.92 130.497C531.92 128.296 531.179 126.473 529.696 125.028C528.212 123.592 526.274 122.865 523.887 122.865H510.107L510.508 122.062V140.231L509.89 139.427Z" fill="black"/>
<path d="M564.566 119.467C567.409 119.467 569.888 120.015 572.013 121.104C574.152 122.178 575.913 123.661 577.296 125.554C578.671 127.454 579.706 129.617 580.386 132.042C581.065 134.476 581.405 137.017 581.405 139.674C581.405 143.367 580.795 146.743 579.582 149.809C578.362 152.861 576.508 155.302 574.021 157.132C571.549 158.948 568.398 159.851 564.566 159.851H549.859C549.38 159.851 548.971 159.681 548.623 159.326C548.268 158.979 548.098 158.577 548.098 158.121V121.197C548.098 120.749 548.268 120.347 548.623 119.992C548.971 119.644 549.38 119.467 549.859 119.467H564.566ZM563.979 156.453C567.254 156.453 569.888 155.703 571.889 154.197C573.882 152.698 575.349 150.667 576.276 148.11C577.219 145.561 577.698 142.749 577.698 139.674C577.698 137.434 577.435 135.302 576.925 133.278C576.408 131.262 575.597 129.478 574.484 127.933C573.387 126.372 571.966 125.136 570.22 124.225C568.49 123.321 566.405 122.865 563.979 122.865H551.342L551.744 122.34V157.04L551.404 156.453H563.979Z" fill="black"/>
<path d="M593.921 119.467H615.085C615.533 119.467 615.935 119.636 616.29 119.961C616.638 120.293 616.816 120.703 616.816 121.197C616.816 121.691 616.638 122.093 616.29 122.402C615.935 122.711 615.533 122.865 615.085 122.865H595.218L595.805 121.908V138.099L595.187 137.357H612.49C612.938 137.357 613.34 137.535 613.695 137.882C614.043 138.214 614.22 138.616 614.22 139.087C614.22 139.582 614.043 139.983 613.695 140.292C613.34 140.601 612.938 140.756 612.49 140.756H595.28L595.805 140.169V156.792L595.527 156.453H615.085C615.533 156.453 615.935 156.63 616.29 156.978C616.638 157.31 616.816 157.712 616.816 158.183C616.816 158.677 616.638 159.079 616.29 159.388C615.935 159.697 615.533 159.851 615.085 159.851H593.921C593.442 159.851 593.032 159.681 592.685 159.326C592.329 158.979 592.159 158.577 592.159 158.121V121.197C592.159 120.749 592.329 120.347 592.685 119.992C593.032 119.644 593.442 119.467 593.921 119.467Z" fill="black"/>
<path d="M657.051 119.467C657.56 119.467 657.962 119.621 658.256 119.93C658.541 120.239 658.688 120.625 658.688 121.073V157.997C658.688 158.577 658.503 159.033 658.132 159.357C657.761 159.689 657.344 159.851 656.896 159.851C656.664 159.851 656.41 159.813 656.124 159.728C655.853 159.627 655.645 159.473 655.506 159.264L629.768 124.596L630.757 124.07V158.306C630.757 158.724 630.602 159.079 630.293 159.388C629.984 159.697 629.598 159.851 629.15 159.851C628.656 159.851 628.254 159.697 627.945 159.388C627.652 159.079 627.513 158.724 627.513 158.306V121.197C627.513 120.625 627.683 120.193 628.038 119.899C628.386 119.613 628.779 119.467 629.212 119.467C629.436 119.467 629.683 119.521 629.954 119.621C630.216 119.706 630.425 119.868 630.572 120.115L656.031 154.382L655.444 155.402V121.073C655.444 120.625 655.606 120.239 655.938 119.93C656.263 119.621 656.634 119.467 657.051 119.467Z" fill="black"/>
<path d="M683.247 160.438C680.32 160.477 677.778 160.014 675.616 159.048C673.468 158.082 671.421 156.638 669.467 154.722C669.258 154.56 669.081 154.367 668.942 154.135C668.818 153.911 668.756 153.641 668.756 153.332C668.756 152.884 668.942 152.459 669.313 152.065C669.683 151.679 670.093 151.478 670.548 151.478C670.996 151.478 671.421 151.679 671.815 152.065C673.314 153.672 675.013 154.908 676.913 155.773C678.829 156.622 680.876 157.04 683.062 157.04C684.916 157.04 686.561 156.754 688.005 156.174C689.442 155.603 690.585 154.776 691.435 153.702C692.277 152.613 692.702 151.354 692.702 149.933C692.702 148.164 692.215 146.735 691.25 145.638C690.3 144.549 689.033 143.645 687.449 142.919C685.881 142.2 684.128 141.551 682.197 140.972C680.629 140.524 679.138 139.999 677.717 139.396C676.295 138.801 675.013 138.068 673.885 137.202C672.773 136.337 671.908 135.279 671.29 134.02C670.672 132.745 670.363 131.2 670.363 129.385C670.363 127.346 670.896 125.546 671.97 123.978C673.059 122.394 674.596 121.15 676.573 120.239C678.551 119.335 680.845 118.879 683.464 118.879C685.727 118.879 687.913 119.273 690.014 120.054C692.115 120.818 693.783 121.954 695.019 123.452C695.591 124.07 695.884 124.627 695.884 125.121C695.884 125.515 695.683 125.909 695.297 126.295C694.903 126.666 694.478 126.851 694.03 126.851C693.637 126.851 693.304 126.72 693.042 126.45C692.377 125.646 691.543 124.928 690.539 124.287C689.55 123.653 688.446 123.167 687.233 122.834C686.036 122.487 684.777 122.309 683.464 122.309C681.671 122.309 680.049 122.587 678.613 123.143C677.168 123.7 676.025 124.503 675.183 125.554C674.357 126.589 673.947 127.825 673.947 129.261C673.947 130.891 674.411 132.228 675.338 133.278C676.264 134.313 677.469 135.163 678.953 135.843C680.451 136.507 682.058 137.125 683.773 137.697C685.418 138.153 686.994 138.678 688.5 139.273C690.022 139.875 691.373 140.617 692.547 141.497C693.721 142.386 694.648 143.506 695.328 144.865C696.008 146.209 696.348 147.893 696.348 149.933C696.348 151.895 695.776 153.664 694.648 155.247C693.536 156.816 692.007 158.059 690.076 158.986C688.137 159.913 685.858 160.392 683.247 160.438Z" fill="black"/>
</g>
</g>
<defs>
<clipPath id="clip0_3606_674">
<rect width="723" height="176" fill="white"/>
</clipPath>
</defs>
</svg>
