<svg width="995" height="176" viewBox="0 0 995 176" fill="none" xmlns="http://www.w3.org/2000/svg">
<g clip-path="url(#clip0_3606_933)">
<mask id="mask0_3606_933" style="mask-type:luminance" maskUnits="userSpaceOnUse" x="0" y="0" width="995" height="176">
<path d="M995 0H0V176H995V0Z" fill="white"/>
</mask>
<g mask="url(#mask0_3606_933)">
<path d="M20.1627 156.888V26.3909H33.5096L85.8703 144.678H80.5169L132.914 26.3909H146.224V156.888H132.144V46.1909H137.718L88.2903 156.888H78.0968L28.4862 46.1909H34.0596V156.888H20.1627Z" fill="black"/>
<path d="M207.682 156.888V95.9842L210.982 106.361L156.934 26.3909H174.718L217.655 91.3642H213.768L256.522 26.3909H273.573L219.708 106.361L223.045 95.9842V156.888H207.682Z" fill="black"/>
<path d="M333.157 158.538C320.076 158.538 308.965 155.824 299.826 150.398C290.705 144.971 283.702 137.262 278.816 127.261C273.948 117.269 271.519 105.362 271.519 91.5476C271.519 77.7426 273.948 65.8718 278.816 55.9443C283.702 45.9985 290.705 38.3076 299.826 32.881C308.965 27.4543 320.076 24.741 333.157 24.741C342.415 24.741 350.683 26.1618 357.944 28.9943C365.222 31.836 371.584 35.961 377.01 41.3876L371.29 53.5976C365.369 48.4185 359.502 44.6326 353.69 42.231C347.897 39.811 341.113 38.601 333.34 38.601C318.398 38.601 307.05 43.2393 299.276 52.4976C291.503 61.7651 287.616 74.7818 287.616 91.5476C287.616 108.341 291.503 121.394 299.276 130.708C307.05 140.021 318.398 144.678 333.34 144.678C341.113 144.678 347.897 143.486 353.69 141.084C359.502 138.664 365.369 134.805 371.29 129.498L377.01 141.891C371.584 147.198 365.222 151.305 357.944 154.211C350.683 157.089 342.415 158.538 333.157 158.538Z" fill="black"/>
<path d="M579.516 156.888V26.3909H594.879V143.578H660.77V156.888H579.516Z" fill="black"/>
<path d="M677.056 156.888V26.3909H692.419V156.888H677.056Z" fill="black"/>
<path d="M773.142 158.538C755.487 158.538 742.378 154.046 733.798 145.044C725.218 136.024 720.928 122.769 720.928 105.261V26.3909H736.108V104.491C736.108 117.966 739.06 128.095 744.982 134.888C750.922 141.662 760.309 145.044 773.142 145.044C785.215 145.044 794.391 141.662 800.679 134.888C806.986 128.095 810.139 117.966 810.139 104.491V26.3909H825.319V105.261C825.319 122.769 820.901 136.024 812.083 145.044C803.255 154.046 790.275 158.538 773.142 158.538Z" fill="black"/>
<path d="M853.625 156.888V26.3909H866.972L919.333 144.678H913.98L966.377 26.3909H979.687V156.888H965.607V46.1909H971.18L921.753 156.888H911.56L861.949 46.1909H867.522V156.888H853.625Z" fill="black"/>
</g>
<path d="M406.639 35.4382H541.345" stroke="black" stroke-width="8"/>
<path d="M406.639 83.7009H491.12V97.7809H406.639M505.2 83.7009H541.345V97.7809H505.2" fill="black"/>
<path d="M406.639 147.657H541.345" stroke="black" stroke-width="8"/>
</g>
<defs>
<clipPath id="clip0_3606_933">
<rect width="995" height="176" fill="white"/>
</clipPath>
</defs>
</svg>
