<svg width="602" height="176" viewBox="0 0 602 176" fill="none" xmlns="http://www.w3.org/2000/svg">
<g clip-path="url(#clip0_3606_593)">
<path d="M34.741 75.3096C11.8547 75.3096 0.730591 83.9861 0.730591 101.833C0.730591 119.68 11.8547 128.429 34.741 128.429C57.6273 128.429 68.7514 119.732 68.7514 101.833C68.7514 83.9346 57.6273 75.3096 34.741 75.3096ZM34.741 118.579C18.0085 118.579 11.793 114.04 11.793 101.823C11.793 89.6057 18.0085 85.1491 34.741 85.1491C51.4735 85.1491 57.6891 89.6675 57.6891 101.823C57.6891 113.978 51.4735 118.579 34.741 118.579Z" fill="black"/>
<path d="M126.615 104.931C126.615 114.606 124.043 118.651 108.134 118.651C90.2897 118.651 86.6983 113.402 86.6983 104.931V76.1021H75.6359V104.931C75.6359 120.74 86.2661 128.418 108.134 128.418C127.789 128.418 137.75 120.514 137.75 104.931V76.1021H126.615V104.931Z" fill="black"/>
<path d="M209.053 93.8256C209.053 80.7645 196.694 76.1021 185.128 76.1021H151.879L144.233 86.0136H182.257C196.015 86.0136 197.775 90.4188 197.775 94.2578C197.775 101.565 185.9 102.142 182.257 102.142H146.075V127.636H157.137V111.693H182.545L199.782 127.636H215.372L195.007 109.717C203.877 107.834 209.064 102.08 209.064 93.8256H209.053Z" fill="black"/>
<path d="M349.736 106.279H385.609L392.617 97.2323H349.736V86.0136H387.194L394.85 76.1021H338.674V127.626H387.554L395.231 117.786H349.736V106.279Z" fill="black"/>
<path d="M496.336 86.0136H531.684L539.227 76.1021H496.912C479.706 76.1021 476.094 84.4801 476.094 91.5201C476.094 98.5601 479.48 106.29 495.616 106.29H515.086C525.006 106.29 527.722 107.473 527.722 111.786C527.722 114.369 526.745 117.797 518.327 117.797H479.676L472.729 126.699L453.435 109.717C462.305 107.834 467.492 102.08 467.492 93.8256C467.492 80.7645 455.133 76.1021 443.566 76.1021H410.317L402.671 86.0136H440.695C454.453 86.0136 456.213 90.4188 456.213 94.2578C456.213 101.565 444.338 102.142 440.695 102.142H404.513V127.636H415.575V111.693H440.983L458.22 127.636H517.761C531.53 127.636 538.507 122.325 538.507 111.858C538.507 105.188 535.132 97.2323 519.058 97.2323H499.588C489.555 97.2323 486.951 96.1619 486.951 92.0244C486.951 89.441 487.929 86.0136 496.346 86.0136H496.336Z" fill="black"/>
<path d="M556.299 117.786V106.279H592.162L599.17 97.2323H556.299V86.0136H593.747L601.403 76.1021H545.227V127.626H594.107L601.784 117.786H556.299Z" fill="black"/>
<path d="M242.982 113.083L241.747 116.222L254.312 113.34L242.982 113.083Z" fill="black"/>
<path d="M245.606 121.059C245.606 121.059 239.565 128.171 214.24 134.532L220.034 133.853L235.027 128.964L219.128 135.89L216.741 139.75L233.772 133.163L220.373 147.366L231.394 141.685L251.152 131.115L245.616 121.049L245.606 121.059Z" fill="black"/>
<path d="M278.896 138.186L285.986 125.32L302.904 102.914L310.076 89.7086L328.394 65.8817L348.296 41.6225L350.179 40.2537L282.858 168.497L280.748 172.521L277.568 175.691L279.637 155.179L278.896 138.186Z" fill="black"/>
<path d="M262.235 107.967L253.221 112.712L278.453 166.922L279.637 155.179L278.896 138.186L264.654 106.434L262.235 107.967Z" fill="black"/>
<path d="M277.568 175.691H276.889L273.864 172.428L241.747 116.222L253.612 113.34L278.453 166.922L277.568 175.691Z" fill="black"/>
<path d="M278.453 166.922L310.076 89.7085L285.986 125.32L278.896 138.186L278.453 166.922Z" fill="black"/>
<path d="M245.204 121.708C245.204 121.708 239.236 128.655 214.24 134.851L219.962 134.182L234.759 129.417L219.056 136.179L216.699 139.946L233.514 133.523L220.281 147.377L231.158 141.84L250.658 131.527L245.194 121.708H245.204Z" fill="black"/>
<path d="M246.059 123.004C246.059 123.004 243.404 128.902 216.7 139.668C215.825 140.182 233.864 132.988 233.864 132.988L220.363 147.377L231.456 141.623L250.669 131.279L246.059 123.004Z" fill="black"/>
<path d="M244.628 46.4496L222.987 26.081C222.987 26.081 204.155 6.22695 199.957 0.442627L197.456 7.2459C197.456 7.2459 198.135 13.8227 210.957 31.6389C210.957 31.6389 226.157 44.9161 232.732 48.6522L244.618 56.8244V46.4394L244.628 46.4496Z" fill="black"/>
<path d="M244.628 46.4496L222.987 26.081C222.987 26.081 204.155 6.22695 199.957 0.442627C199.957 0.442627 198.948 3.1907 198.207 5.2183C208.014 25.1753 244.628 52.4089 244.628 52.4089V46.4496Z" fill="black"/>
<path d="M210.968 31.2067C218.83 39.595 244.628 56.3922 244.628 56.3922L246.326 65.4495C240.985 65.4186 228.503 60.4268 215.814 50.7932C203.126 41.1492 199.967 28.2013 199.967 28.2013L200.883 21.7583L210.968 31.217V31.2067Z" fill="black"/>
<path d="M233.813 106.434C233.813 106.434 245.626 110.293 259.313 101.781L263.141 109.861C261.608 110.643 260.085 111.425 258.551 112.197C255.896 113.546 251.142 114.976 245.451 114.75C241.778 114.4 237.589 113.36 235.305 110.211C234.492 109.099 234.008 107.792 233.813 106.434Z" fill="black"/>
<path d="M256.668 96.1826L259.313 101.792C259.313 101.792 246.089 111.364 229.923 105.147L231.621 100.403C231.621 100.403 246.007 104.18 256.678 96.1826H256.668Z" fill="black"/>
<path d="M233.195 98.4673L231.384 99.0334L231.611 100.392C231.611 100.392 244.525 104.622 256.668 96.1721C256.668 96.1721 249.249 100.732 233.195 98.4673Z" fill="black"/>
<path d="M253.54 88.9263C253.54 88.9263 244.381 93.177 222.565 88.9263C222.565 88.9263 223.131 94.7415 233.195 98.4673C233.195 98.4673 245.544 101.226 256.668 96.1721L253.55 88.9263H253.54Z" fill="black"/>
<path d="M250.669 81.4232C250.669 81.4232 229.573 82.5553 214.878 76.3799C214.878 76.3799 216.689 85.9312 230.818 89.7085C230.818 89.7085 241.901 92.3846 253.54 88.9263L250.669 81.4232Z" fill="black"/>
<path d="M223.285 90.9745C223.285 90.9745 236.159 96.6662 253.879 89.7085L253.54 88.9263C253.54 88.9263 244.155 92.9609 222.565 88.9263L223.285 90.9745Z" fill="black"/>
<path d="M251.142 82.7303C251.142 82.7303 233.936 85.9416 215.938 79.1177L214.878 76.3696C214.878 76.3696 225.107 82.0716 250.669 81.4129L251.132 82.72L251.142 82.7303Z" fill="black"/>
<path d="M248.024 73.4363C248.024 73.4363 234.955 74.0024 207.356 61.0237C207.428 61.0546 207.5 61.8368 207.52 61.9191C207.716 62.7631 208.004 63.5865 208.333 64.379C209.568 67.3226 211.513 69.9266 213.787 72.1498C218.572 76.8431 224.664 79.303 231.189 80.3425C237.62 81.3717 244.175 81.5982 250.679 81.4232L248.034 73.4363H248.024Z" fill="black"/>
<path d="M248.024 73.4363C248.024 73.4363 234.955 74.0024 207.356 61.0237C207.356 61.0237 206.296 62.0941 218.5 69.4017C218.5 69.4017 232.691 75.4845 248.703 75.4639L248.034 73.4363H248.024Z" fill="black"/>
<path d="M246.316 65.8919C246.316 65.8919 235.408 64.0599 203.455 43.6089V48.6625C203.455 48.6625 206.718 59.5621 219.859 65.8919C219.859 65.8919 235.274 73.1069 248.014 73.4465L246.316 65.8919Z" fill="black"/>
<path d="M246.316 65.8919C246.316 65.8919 235.408 64.0599 203.455 43.6089V46.5525C203.455 46.5525 216.463 60.2723 246.81 68.1048L246.305 65.8816L246.316 65.8919Z" fill="black"/>
<path d="M310.076 89.7087C310.076 89.544 301.978 101.73 300.856 102.924C296.266 107.813 288.332 114.019 272.073 124.723L278.814 138.495C278.814 138.495 300.866 110.798 310.066 89.7087H310.076Z" fill="black"/>
<path d="M296.596 110.798C296.596 110.798 287.005 121.419 274.615 129.54L278.742 138.268L296.596 110.798Z" fill="black"/>
<path d="M210.752 38.9568C215.825 45.6984 245.493 61.3943 245.493 61.3943L246.316 65.8817C240.975 65.8509 215.804 51.2254 215.804 51.2254C203.116 41.5814 199.957 28.6336 199.957 28.6336L200.162 27.1926L210.741 38.9465L210.752 38.9568Z" fill="black"/>
<path d="M244.628 42.8062C244.906 43.0635 244.268 46.1512 244.216 46.7173C244.062 48.3023 243.939 49.8873 243.867 51.4826C243.723 54.5601 243.795 57.6478 244.237 60.6943C245.091 66.7154 246.285 72.7467 248.487 78.4281C248.487 78.4281 253.746 92.0038 260.465 105.013C260.465 105.013 272.227 128.923 273.915 130.683C273.915 130.683 285.471 121.697 288.322 118.918C288.322 118.918 300.959 106.928 304.766 96.1928C304.766 96.1928 308.275 87.4957 309.006 84.3566C309.006 84.3566 312.443 68.0637 313.174 67.3329C313.174 67.3329 314.851 60.0253 322.528 56.8038L334.949 51.1739C334.949 51.1739 325.739 53.0059 322.456 53.0059C322.456 53.0059 315.952 52.7898 314.563 52.4913C314.563 52.4913 310.539 49.7844 306.084 51.6164C306.084 51.6164 299.796 52.4913 297.018 62.5058C295.814 66.8389 294.805 71.1617 292.418 75.1552C291.522 76.6578 288.61 82.823 286.634 82.823C282.189 79.8073 277.507 77.121 273.37 73.6731C269.737 70.6368 266.362 67.1477 263.069 63.7409C261.618 62.2382 259.169 60.2724 258.5 58.1933C257.635 55.4864 250.051 47.7671 244.638 42.8164L244.628 42.8062Z" fill="black"/>
<path d="M244.628 42.8062C244.906 43.0635 244.268 46.1512 244.216 46.7173C244.062 48.3023 243.939 49.8873 243.867 51.4826C243.723 54.5601 243.795 57.6478 244.237 60.6943C245.091 66.7154 246.285 72.7467 248.487 78.4281C248.487 78.4281 253.746 92.0038 260.465 105.013C260.465 105.013 272.227 128.923 273.915 130.683C273.915 130.683 285.471 121.697 288.322 118.918C288.322 118.918 300.959 106.928 304.766 96.1928C304.766 96.1928 308.275 87.4957 309.006 84.3566C309.006 84.3566 312.443 68.0637 313.174 67.3329C313.174 67.3329 314.851 60.0253 322.528 56.8038L334.949 51.1739C334.949 51.1739 325.739 53.0059 322.456 53.0059C322.456 53.0059 315.952 52.7898 314.563 52.4913C314.563 52.4913 310.539 49.7844 306.084 51.6164C306.084 51.6164 299.796 52.4913 297.018 62.5058C295.814 66.8389 294.805 71.1617 292.418 75.1552C291.522 76.6578 288.61 82.823 286.634 82.823C282.189 79.8073 277.507 77.121 273.37 73.6731C269.737 70.6368 266.362 67.1477 263.069 63.7409C261.618 62.2382 259.169 60.2724 258.5 58.1933C257.635 55.4864 250.051 47.7671 244.638 42.8164L244.628 42.8062Z" fill="black"/>
<path d="M244.309 42.5076C244.587 42.7649 243.64 46.2643 243.589 46.8201C243.445 48.4051 243.332 50.0004 243.27 51.5855C243.157 54.6629 243.249 57.7506 243.702 60.7972C244.597 66.8079 245.832 72.829 248.076 78.5001C248.076 78.5001 253.427 92.0346 260.249 105.003C260.249 105.003 272.423 129.18 274.121 130.919C274.121 130.919 285.379 121.502 288.209 118.702C288.209 118.702 256.545 60.3031 255.866 58.2344C254.981 55.5377 249.753 47.4273 244.299 42.5076H244.309Z" fill="black"/>
<path d="M301.906 101.782C301.906 101.782 306.629 93.4963 308.986 84.3463C308.986 84.3463 312.423 68.0535 313.153 67.3227C313.153 67.3227 314.831 60.0151 322.507 56.7936L334.928 51.1637C334.928 51.1637 325.718 52.9957 322.435 52.9957C322.435 52.9957 315.932 52.7796 314.543 52.4811C314.543 52.4811 310.519 49.7742 306.063 51.6062C306.063 51.6062 299.775 52.4811 296.997 62.4956C296.236 66.0979 295.361 69.9061 293.714 73.21C293.21 74.2289 292.438 75.1347 291.8 76.0919C290.555 77.9548 289.464 79.9206 288.024 81.6395C287.509 82.2467 286.789 82.6275 286.315 83.1936C286.079 83.4818 285.883 83.8214 285.719 84.1508C285.657 84.264 285.605 84.3772 285.605 84.511C285.605 84.614 285.646 84.7169 285.677 84.8198C287.54 89.6161 289.403 94.2785 291.821 98.8483C294.713 99.9496 298.057 100.938 301.895 101.792L301.906 101.782Z" fill="black"/>
<path d="M335.638 50.9475C335.638 50.9475 314.357 53.9014 310.076 62.969C310.076 62.969 308.749 64.0497 306.289 80.8984C306.289 80.8984 302.451 100.999 301.916 101.792C301.916 101.792 305.878 95.4621 306.917 90.5938L308.986 84.3566C308.986 84.3566 312.258 66.6743 313.513 66.2008C313.513 66.2008 315.098 59.1814 326.006 55.2189L335.638 50.9578V50.9475Z" fill="black"/>
<path d="M314.532 52.481L304.2 57.236L322.806 52.9853L314.532 52.481Z" fill="black"/>
<path d="M244.628 42.8062C244.628 47.7465 243.568 54.9924 245.019 63.2366C246.46 71.4808 249.537 79.9205 253.879 89.7086C258.15 99.3217 262.379 106.794 267.329 116.067C269.007 119.196 270.694 122.325 272.464 125.403C273.236 126.751 275.057 129.633 275.057 129.633C275.057 129.633 274.749 130.415 283.053 123.797C291.358 117.179 295.886 113.33 302.101 101.782C302.05 101.998 297.028 100.557 296.75 100.464C292.181 99.0644 287.787 97.0368 283.743 94.4843C276.375 89.8527 270.838 82.1746 266.259 74.8773C262.997 69.6796 260.28 64.0908 258.582 58.183C257.718 55.4761 250.082 47.7568 244.628 42.8062Z" fill="black"/>
<path d="M250.381 81.4128C250.381 81.4128 255.948 96.1824 267.329 116.078C269.089 119.155 270.694 122.335 272.464 125.413C273.236 126.761 275.057 129.643 275.057 129.643C275.057 129.643 274.749 130.425 283.053 123.807C291.358 117.189 295.886 113.34 302.101 101.792C302.05 102.008 297.028 100.567 296.75 100.474C292.181 99.0746 287.787 97.047 283.743 94.4945C276.375 89.8629 270.838 82.1848 266.259 74.8875C261.566 79.941 250.381 81.4128 250.381 81.4128Z" fill="black"/>
<path d="M259.632 101.627C259.632 101.627 270.705 122.325 272.464 125.403C273.236 126.751 275.15 129.921 275.15 129.921C275.15 129.921 274.749 130.425 283.053 123.807C291.358 117.189 295.886 113.34 302.101 101.792C302.05 102.008 297.038 100.547 296.75 100.475C287.643 98.1382 280.11 91.8701 280.11 91.8701L259.622 101.638L259.632 101.627Z" fill="black"/>
</g>
<defs>
<clipPath id="clip0_3606_593">
<rect width="602" height="176" fill="white"/>
</clipPath>
</defs>
</svg>
