<svg width="849" height="176" viewBox="0 0 849 176" fill="none" xmlns="http://www.w3.org/2000/svg">
<path d="M82.5219 72.8496C85.0935 76.1597 87.2323 79.8519 88.8364 83.875C90.4405 79.8519 92.5793 76.1597 95.1509 72.8496C96.1185 68.4445 96.3986 63.8866 95.8639 59.2778C95.1 52.3773 92.6811 45.9352 88.8364 40.3843C85.0171 45.9352 82.5728 52.3773 81.8089 59.2778C81.2742 63.8866 81.5798 68.4445 82.5219 72.8496Z" fill="black"/>
<path d="M14.4878 74.25C16.703 82.9583 21.6426 90.6736 28.7719 96.3773C30.8088 97.9814 32.9476 99.3565 35.1374 100.528C42.3176 92.2523 52.1459 86.9051 62.6871 85.2245C53.9027 79.1389 47.3845 70.0486 44.5073 59.4814C42.0121 59.5833 39.4913 59.8889 36.9706 60.4745C27.8298 62.5625 20.1149 67.5787 14.4878 74.25Z" fill="black"/>
<path d="M86.5448 110.407C85.6791 106.359 85.3736 102.132 85.6536 97.8541C82.4709 100.782 78.9317 103.176 75.1888 105.035C68.2123 113.998 65.055 125.558 66.8119 136.94C76.8184 131.185 83.9222 121.484 86.5448 110.407Z" fill="black"/>
<path d="M128.531 59.5579C117.023 60.3727 106.431 66.0255 99.2503 74.8356C98.2573 78.9097 96.7041 82.8819 94.5653 86.625C98.6901 85.3773 102.891 84.7407 107.067 84.6898C117.277 79.6481 125.145 70.5833 128.531 59.5579Z" fill="black"/>
<path d="M72.388 101.394C75.036 98.1597 78.1424 95.2824 81.707 92.838C77.404 92.1505 73.3301 90.9028 69.5108 89.1204C58.1548 89.2477 47.1553 94.0093 39.3385 102.488C50.0834 106.741 62.0759 106.231 72.388 101.394Z" fill="black"/>
<path d="M88.8364 167.444C96.6023 163.447 103.171 157.056 107.245 148.602C108.366 146.285 109.231 143.891 109.868 141.472C100.218 136.303 92.8339 127.926 88.8364 118.021C84.8389 127.926 77.455 136.303 67.8049 141.472C68.4415 143.891 69.3072 146.285 70.4275 148.602C74.5014 157.056 81.0706 163.447 88.8364 167.444Z" fill="black"/>
<path d="M109.817 107.938C115.087 117.231 117.023 128.231 115.011 139.002C117.328 139.995 119.722 140.81 122.242 141.396C131.383 143.484 140.498 142.313 148.443 138.748C150.174 130.192 149.257 121.051 145.209 112.597C144.089 110.28 142.765 108.141 141.288 106.13C135.457 108.65 129.27 109.898 123.083 109.898C118.601 109.898 114.12 109.236 109.817 107.938Z" fill="black"/>
<path d="M49.1414 59.5579C52.5278 70.6088 60.3955 79.6481 70.6057 84.6898C74.7814 84.7407 78.9827 85.3773 83.1075 86.625C80.9687 82.8819 79.4155 78.9097 78.4225 74.8356C71.2423 66.0255 60.6501 60.3727 49.1414 59.5579Z" fill="black"/>
<path d="M55.4304 141.396C57.9512 140.81 60.3446 139.995 62.6616 139.002C60.6501 128.231 62.6107 117.231 67.8558 107.938C63.5528 109.236 59.0715 109.898 54.5902 109.898C48.4284 109.898 42.2157 108.65 36.385 106.13C34.9082 108.141 33.5842 110.28 32.4893 112.597C28.4154 121.051 27.5242 130.192 29.2302 138.722C37.1743 142.313 46.2896 143.484 55.4304 141.396Z" fill="black"/>
<path d="M91.6881 36.7684C98.1554 45.6041 101.185 56.3749 100.472 67.0184C108.366 59.8379 118.678 55.4837 129.601 55.0254C130.059 52.5809 130.339 50.0601 130.339 47.4629C130.339 38.0671 127.156 29.4351 121.886 22.4583C112.923 22.6874 104.292 25.7939 97.1624 31.4721C95.1509 33.0763 93.3431 34.8587 91.6881 36.7684Z" fill="black"/>
<path d="M85.9847 36.7684C84.3552 34.8587 82.5219 33.0763 80.5104 31.4721C73.3811 25.7939 64.7495 22.6874 55.787 22.4583C50.5163 29.4351 47.3336 38.0671 47.3336 47.4629C47.3336 50.0601 47.6137 52.5809 48.072 55.0254C59.0206 55.4837 69.3072 59.8379 77.2004 67.0184C76.4874 56.3749 79.5174 45.6041 85.9847 36.7684Z" fill="black"/>
<mask id="mask0_3605_360" style="mask-type:luminance" maskUnits="userSpaceOnUse" x="92" y="143" width="60" height="32">
<path d="M92.8848 143.407H151.549V174.982H92.8848V143.407Z" fill="white"/>
</mask>
<g mask="url(#mask0_3605_360)">
<path d="M121.249 145.75C118.703 145.19 116.31 144.35 113.967 143.407C113.28 145.826 112.414 148.22 111.294 150.563C107.347 158.762 101.262 165.255 94.0051 169.711C104.063 173.276 115.469 172.97 125.832 168.005C136.17 163.014 143.503 154.255 146.991 144.197C142.103 145.954 136.857 146.921 131.485 146.921C128.099 146.921 124.687 146.539 121.249 145.75Z" fill="black"/>
</g>
<path d="M102.484 105.035C98.741 103.176 95.2018 100.782 92.0191 97.8541C92.2992 102.132 91.9936 106.359 91.1279 110.407C93.7505 121.484 100.854 131.185 110.861 136.94C112.618 125.558 109.46 113.998 102.484 105.035Z" fill="black"/>
<mask id="mask1_3605_360" style="mask-type:luminance" maskUnits="userSpaceOnUse" x="145" y="78" width="28" height="59">
<path d="M145.031 78.2222H172.962V136.889H145.031V78.2222Z" fill="white"/>
</mask>
<g mask="url(#mask1_3605_360)">
<path d="M151.702 99.8658C149.665 101.495 147.551 102.896 145.336 104.118C146.788 106.181 148.112 108.32 149.232 110.662C153.204 118.861 154.452 127.697 153.408 136.125C162.472 130.472 169.372 121.382 171.944 110.153C174.49 98.9746 172.224 87.7964 166.546 78.7825C163.745 87.007 158.678 94.3149 151.702 99.8658Z" fill="black"/>
</g>
<mask id="mask2_3605_360" style="mask-type:luminance" maskUnits="userSpaceOnUse" x="3" y="78" width="32" height="59">
<path d="M3.13177 78.2222H34.2207V136.889H3.13177V78.2222Z" fill="white"/>
</mask>
<g mask="url(#mask2_3605_360)">
<path d="M28.4408 110.662C29.5612 108.32 30.8852 106.181 32.3365 104.118C30.1468 102.896 28.008 101.495 25.9711 99.8658C18.9945 94.3149 13.9276 87.007 11.1523 78.7825C5.4488 87.7964 3.18269 98.9746 5.72888 110.153C8.30053 121.382 15.2007 130.472 24.2651 136.125C23.2212 127.697 24.4688 118.861 28.4408 110.662Z" fill="black"/>
</g>
<mask id="mask3_3605_360" style="mask-type:luminance" maskUnits="userSpaceOnUse" x="27" y="143" width="60" height="32">
<path d="M27.7025 143.407H86.3666V174.982H27.7025V143.407Z" fill="white"/>
</mask>
<g mask="url(#mask3_3605_360)">
<path d="M66.379 150.563C65.2587 148.22 64.393 145.826 63.7056 143.407C61.3631 144.35 58.9696 145.19 56.4235 145.75C53.0116 146.539 49.5742 146.921 46.1878 146.921C40.8153 146.921 35.5957 145.954 30.6815 144.197C34.1698 154.255 41.5028 163.014 51.8658 168.005C62.2033 172.97 73.6102 173.25 83.6677 169.711C76.4365 165.255 70.3511 158.762 66.379 150.563Z" fill="black"/>
</g>
<path d="M163.185 74.25C157.583 67.5787 149.868 62.5625 140.702 60.4745C138.181 59.8889 135.661 59.5833 133.165 59.4814C130.288 70.0486 123.77 79.1389 114.986 85.2245C125.552 86.9051 135.355 92.2523 142.535 100.528C144.725 99.3565 146.889 97.9814 148.901 96.3773C156.056 90.6736 160.97 82.9583 163.185 74.25Z" fill="black"/>
<path d="M134.133 55.0764C136.654 55.2292 139.174 55.5347 141.721 56.0949C150.607 58.1319 158.296 62.6643 164.229 68.75C164.254 68.6736 164.254 68.6227 164.28 68.5718C165.502 57.5463 162.396 46.7245 155.47 38.0417C148.57 29.3843 138.691 23.9352 127.691 22.6875C127.615 22.6875 127.564 22.6875 127.513 22.6875C132.122 29.8426 134.82 38.3218 134.82 47.463C134.82 50.0602 134.54 52.581 134.133 55.0764Z" fill="black"/>
<path d="M108.162 89.1204C104.343 90.9028 100.269 92.1505 95.9912 92.838C99.5304 95.2824 102.637 98.1597 105.285 101.394C115.597 106.231 127.589 106.741 138.334 102.488C130.517 94.0093 119.518 89.2477 108.162 89.1204Z" fill="black"/>
<path d="M13.4438 68.75C19.4019 62.6643 27.0659 58.1319 35.9521 56.0949C38.4983 55.5347 41.019 55.2292 43.5398 55.0764C43.1324 52.581 42.8523 50.0602 42.8523 47.463C42.8523 38.3218 45.5512 29.8426 50.1598 22.6875C50.1089 22.6875 50.058 22.6875 50.0071 22.6875C38.9821 23.9352 29.1029 29.3843 22.2027 38.0417C15.3026 46.7245 12.1708 57.5463 13.4184 68.5718C13.4184 68.6227 13.4184 68.6736 13.4438 68.75Z" fill="black"/>
<mask id="mask4_3605_360" style="mask-type:luminance" maskUnits="userSpaceOnUse" x="53" y="5" width="66" height="35">
<path d="M53.7754 5.11816H118.958V39.1112H53.7754V5.11816Z" fill="white"/>
</mask>
<g mask="url(#mask4_3605_360)">
<path d="M83.3111 27.984C85.3481 29.5881 87.1559 31.396 88.8364 33.2548C90.5169 31.396 92.3246 29.5881 94.3616 27.984C101.491 22.2803 109.817 19.1229 118.27 18.2571C110.759 10.6691 100.345 5.9585 88.8364 5.9585C77.3531 5.9585 66.9392 10.6691 59.4025 18.2316C67.8558 19.1229 76.1818 22.2803 83.3111 27.984Z" fill="black"/>
</g>
<mask id="mask5_3605_360" style="mask-type:luminance" maskUnits="userSpaceOnUse" x="190" y="0" width="659" height="176">
<path d="M849 0H190.658V176H849V0Z" fill="white"/>
</mask>
<g mask="url(#mask5_3605_360)">
<path d="M260.575 139.739C252.224 139.866 244.433 138.542 237.252 135.766C230.123 132.991 223.91 129.019 218.614 123.85C213.369 118.63 209.27 112.493 206.291 105.415C203.286 98.285 201.758 90.5442 201.708 82.1924C201.555 73.7132 202.879 65.947 205.68 58.8683C208.531 51.7387 212.529 45.5257 217.698 40.2294C222.841 34.8822 228.952 30.7317 236.03 27.8035C243.159 24.9007 250.9 23.3729 259.251 23.2201C267.73 23.1692 275.496 24.5188 282.574 27.2942C289.704 30.0188 295.916 33.991 301.212 39.2109C306.559 44.4562 310.71 50.5928 313.638 57.6461C316.54 64.6484 318.068 72.3891 318.221 80.8683C318.272 89.2201 316.922 97.0118 314.147 104.192C311.423 111.322 307.451 117.535 302.231 122.831C296.986 128.128 290.849 132.278 283.797 135.257C276.795 138.16 269.054 139.662 260.575 139.739ZM260.473 125.683C268.876 125.632 276.285 123.646 282.676 119.776C289.042 115.905 294.083 110.609 297.75 103.887C301.416 97.1137 303.198 89.4748 303.148 80.9701C302.995 72.3637 301.034 64.7757 297.24 58.2572C293.421 51.6877 288.278 46.5188 281.76 42.7757C275.292 38.9817 267.857 37.1229 259.455 37.1738C251.154 37.3266 243.771 39.3637 237.252 43.285C230.785 47.1553 225.744 52.4262 222.077 59.072C218.461 65.7433 216.73 73.3822 216.883 81.9887C216.934 90.4933 218.843 98.0558 222.586 104.702C226.38 111.373 231.574 116.567 238.169 120.285C244.738 124.028 252.173 125.836 260.473 125.683Z" fill="black"/>
<path d="M397.384 135.607L384.347 135.811L384.245 127.663C381.648 130.999 378.338 133.647 374.264 135.607C370.19 137.568 365.327 138.587 359.7 138.663C353.029 138.714 347.071 137.262 341.775 134.283C336.53 131.304 332.405 127.128 329.35 121.756C326.345 116.332 324.817 110.195 324.766 103.32L324.257 56.774L337.294 56.6722L337.803 103.218C337.854 110.348 339.891 116.052 343.914 120.33C347.988 124.556 353.742 126.593 361.228 126.441C368.765 126.39 374.417 124.2 378.236 119.922C382.107 115.593 383.991 109.839 383.94 102.709L383.431 56.1629L396.467 55.9592L397.384 135.607Z" fill="black"/>
<path d="M407.658 55.8426L420.695 55.7408L420.797 65.6204C423.852 61.6991 427.671 58.5926 432.305 56.3519C436.99 54.1111 442.337 52.9653 448.397 52.8889L448.499 64.3982C439.537 64.4746 432.713 66.8426 428.028 71.5278C423.343 76.213 421.026 82.0185 421.102 88.9445L421.611 135.389L408.575 135.491L407.658 55.8426Z" fill="black"/>
<path d="M483.513 134.621L452.042 23.603L466.606 23.3993L490.439 107.733L512.54 22.89L527.104 22.6863L550.936 107.02L573.037 22.177L587.601 22.0752L558.575 133.807L544.01 134.01L520.076 49.677L498.077 134.52L483.513 134.621Z" fill="black"/>
<path d="M634.295 50.7626C642.698 50.6353 650.183 52.3668 656.702 55.9571C663.22 59.5728 668.363 64.5636 672.182 70.9293C676.053 77.2441 678.039 84.4756 678.191 92.6238C678.242 100.848 676.409 108.156 672.692 114.522C669.025 120.913 663.958 125.98 657.516 129.698C651.049 133.441 643.614 135.351 635.212 135.503C626.911 135.554 619.476 133.797 612.907 130.207C606.389 126.617 601.195 121.702 597.325 115.439C593.505 109.124 591.57 101.867 591.519 93.6423C591.367 85.4941 593.149 78.2117 596.815 71.7441C600.533 65.302 605.625 60.2094 612.092 56.4663C618.611 52.7488 625.995 50.839 634.295 50.7626ZM634.397 63.1886C628.694 63.265 623.627 64.6145 619.222 67.2626C614.791 69.9108 611.303 73.4756 608.732 77.9571C606.211 82.4386 604.989 87.6076 605.065 93.4386C605.116 99.2187 606.491 104.337 609.139 108.818C611.787 113.3 615.352 116.839 619.833 119.411C624.314 121.932 629.407 123.154 635.11 123.077C640.864 123.027 646.008 121.652 650.489 119.003C654.97 116.355 658.459 112.765 660.979 108.207C663.475 103.675 664.697 98.5057 664.646 92.7256C664.569 86.8946 663.22 81.7765 660.572 77.346C657.975 72.9409 654.41 69.4779 649.878 66.9571C645.32 64.3853 640.151 63.1376 634.397 63.1886Z" fill="black"/>
<path d="M685.586 52.6759L698.623 52.574L698.724 62.4536C701.78 58.5323 705.599 55.4259 710.233 53.1851C714.918 50.9444 720.265 49.7986 726.325 49.7222L726.427 61.2314C717.464 61.3078 710.641 63.6759 705.956 68.3611C701.271 73.0462 698.954 78.8518 699.03 85.7777L699.539 132.222L686.503 132.324L685.586 52.6759Z" fill="black"/>
<path d="M734.757 20.3345L747.793 20.2327L749.015 131.659L735.979 131.76L734.757 20.3345Z" fill="black"/>
<path d="M839.906 19.1423L841.129 130.568L828.092 130.772L827.99 121.096C824.986 124.966 821.09 128.022 816.278 130.263C811.516 132.427 805.838 133.547 799.269 133.624C791.122 133.675 783.814 131.918 777.372 128.328C770.981 124.737 765.914 119.823 762.197 113.559C758.454 107.244 756.544 99.9872 756.493 91.7627C756.341 83.6146 758.072 76.3322 761.688 69.8646C765.278 63.4224 770.243 58.3298 776.557 54.5868C782.923 50.8692 790.205 48.9595 798.353 48.8831C804.922 48.8322 810.625 49.8507 815.463 51.9386C820.275 53.9757 824.222 56.9803 827.277 60.9016L826.87 19.346L839.906 19.1423ZM798.455 61.309C792.955 61.3854 788.015 62.7349 783.687 65.3831C779.409 68.0312 776.048 71.596 773.604 76.0775C771.159 80.559 769.963 85.728 770.039 91.559C770.09 97.3391 771.389 102.457 773.909 106.939C776.481 111.42 779.944 114.959 784.298 117.531C788.703 120.052 793.668 121.274 799.167 121.198C804.795 121.147 809.709 119.823 813.935 117.226C818.213 114.578 821.574 110.987 824.018 106.429C826.514 101.897 827.736 96.728 827.685 90.9479C827.608 85.1169 826.284 79.9988 823.713 75.5683C821.116 71.1632 817.653 67.6747 813.324 65.0775C809.047 62.5058 804.082 61.2581 798.455 61.309Z" fill="black"/>
</g>
</svg>
