<svg width="1340" height="176" viewBox="0 0 1340 176" fill="none" xmlns="http://www.w3.org/2000/svg">
<g clip-path="url(#clip0_3606_791)">
<path d="M1.39309 0.581055H201.461L208.871 2.06274L214.799 5.76694L219.245 10.9528L221.468 17.6204V44.2906L220.727 45.0315H0.6521V1.3219L1.39309 0.581055Z" fill="black"/>
<path d="M0.6521 130.969H220.727V159.862L217.022 167.27L211.094 172.456L205.907 174.678L194.792 175.419H0.6521V130.969Z" fill="black"/>
<path d="M65.1184 66.5156H220.727L221.468 67.2565V111.707H64.3774V67.2565L65.1184 66.5156Z" fill="black"/>
<path d="M1227 30.9551H1284.79L1297.39 33.1776L1306.28 36.141L1317.4 42.0677L1327.03 50.9578L1332.22 58.3662L1336.66 67.9971L1338.89 76.8872L1339.63 82.8139V93.1857L1337.4 105.78L1333.7 114.67L1329.25 122.078L1321.1 130.969L1310.73 137.636L1301.84 141.34L1289.98 144.304L1283.31 145.045H1227V30.9551ZM1248.48 48.7352V127.264H1281.09L1292.2 125.042L1304.06 119.115L1311.47 111.707L1315.91 102.817L1318.14 93.9265V82.0731L1315.91 73.183L1311.47 64.2929L1307.02 59.107L1299.61 53.9211L1289.98 50.2169L1281.83 48.7352H1248.48Z" fill="black"/>
<path d="M1029.89 29.4736H1047.68L1058.79 31.6962L1069.9 36.1412L1078.06 41.3271L1085.47 47.9946L1091.39 55.4031L1097.32 67.2565L1100.29 79.1099V96.8901L1097.32 108.744L1091.39 120.597L1085.47 128.005L1078.06 134.673L1067.68 140.6L1058.05 144.304L1046.93 146.526H1030.63L1017.29 143.563L1005.44 138.377L996.547 131.71L989.878 125.042L983.209 114.67L979.504 105.039L978.022 98.3718L977.281 91.7042V84.2958L978.763 73.9241L982.468 62.8115L988.396 53.1805L995.065 45.7721L1000.99 40.5862L1011.37 34.6595L1021.74 30.9553L1029.89 29.4736ZM1032.11 47.9946L1021.74 50.958L1014.33 55.4031L1008.4 60.5889L1003.22 68.7382L1000.25 75.4057L998.77 82.8142V93.1859L1000.99 102.817L1006.18 112.448L1011.37 118.374L1020.26 124.301L1029.15 127.265L1032.86 128.005H1045.45L1054.34 125.783L1063.98 120.597L1071.39 113.189L1075.83 105.78L1078.8 96.1493V79.8508L1075.83 70.2199L1070.65 62.0706L1067.68 58.3664L1060.27 53.1805L1052.12 49.4763L1045.45 47.9946H1032.11Z" fill="black"/>
<path d="M532.685 30.9551H586.778L598.633 33.1776L608.266 36.8818L616.417 42.8085L621.604 48.7352L626.05 57.6253L627.532 63.5521V79.8506L624.568 88.7406L620.122 96.149L614.194 102.076L605.302 107.262H603.82L615.676 124.301L624.568 136.895L629.755 145.045H606.784L597.151 131.709L589.001 119.856L583.814 112.448L553.433 111.707V145.045H532.685L531.944 144.304V31.6959L532.685 30.9551ZM553.433 48.7352V94.6674H579.368L590.483 93.1857L599.374 88.7406L603.82 83.5548L606.043 78.3689L606.784 69.4788L604.561 60.5887L597.892 53.1803L591.224 50.2169L583.814 48.7352H553.433Z" fill="black"/>
<path d="M397.083 30.9551H417.831V78.3689H477.111V30.9551H498.599V144.304L497.858 145.045H477.111V96.149H417.831V145.045H397.083V30.9551Z" fill="black"/>
<path d="M767.58 30.9551H850.571V48.7352H788.328V78.3689H843.161L843.902 79.1097V95.4082L843.161 96.149H788.328V127.264H852.794V145.045H767.58V30.9551Z" fill="black"/>
<path d="M654.949 30.9551H737.94V48.7352H675.697V78.3689H731.271V95.4082L727.566 96.149H675.697V127.264H740.163V145.045H654.949V30.9551Z" fill="black"/>
<path d="M880.211 30.9551H963.202V48.7352H900.959V83.5548H955.792V101.335H900.959V145.045H880.211L879.47 144.304V31.6959L880.211 30.9551Z" fill="black"/>
<path d="M280.748 30.9551H377.818V48.7352H340.027V144.304L339.286 145.045H318.538V48.7352H280.748V30.9551Z" fill="black"/>
<path d="M1126.22 30.9551H1147.71V127.264H1206.99V145.045H1126.22V30.9551Z" fill="black"/>
</g>
<defs>
<clipPath id="clip0_3606_791">
<rect width="1340" height="176" fill="white"/>
</clipPath>
</defs>
</svg>
