<svg width="1108" height="176" viewBox="0 0 1108 176" fill="none" xmlns="http://www.w3.org/2000/svg">
<path d="M168.867 41C138.628 41 113.752 60.619 113.752 93.2451C113.752 123.824 130.616 143 165.022 143C195.595 143 220.17 123.24 220.17 90.6135C220.17 56.8178 198.934 41 168.867 41ZM471.386 41C444.313 41 428.483 53.1393 428.483 70.7021C428.483 102.894 476.082 94.5656 476.082 113.439C476.082 122.513 467.23 126.456 456.202 126.456C448.018 126.456 439.004 124.852 432.651 122.938L431.315 140.633C438.337 142.236 446.327 142.991 454.35 142.991C482.08 142.991 498.976 129.37 498.976 110.789C498.976 80.2097 451.184 86.4916 451.184 68.7873C451.184 61.7697 457.882 56.8084 470.407 56.8084C477.256 56.8084 484.255 57.8176 490.598 59.4306L491.783 42.7733C485.052 41.6883 478.23 41.0951 471.386 41ZM853.1 41.1509C814.009 41.1509 789.941 63.26 789.941 94.2732C789.941 124.419 811.156 142.84 846.908 142.84C860.445 142.84 874.315 140.651 885.515 136.709V89.5759H863.783V123.966C859.123 125.18 854.279 125.768 849.417 125.711C826.534 125.711 813.493 113.421 813.493 92.4999C813.493 70.4097 829.549 58.1195 851.765 58.1195C862.297 58.1195 872.614 60.0059 881.638 63.0808L884.998 45.3954C875.306 42.9053 864.311 41.1509 853.122 41.1509H853.1ZM0 42.594L39.2634 141.368H64.1395L103.564 42.594H81.3589L59.132 99.2345C55.7936 107.563 53.9629 113.128 52.2937 119.863H51.9276C50.0328 113.293 47.805 106.8 45.2509 100.404L23.39 42.594H0ZM246.715 42.594V141.368H305.029V124.673H268.447V42.6035L246.715 42.594ZM328.419 42.594V141.368H350.107V93.9525L386.528 141.368H414.936L371.839 90.3022L413.105 42.594H386.7L350.118 87.3971V42.5846L328.419 42.594ZM516.013 42.594L544.733 141.368H569.782L586.14 86.5199C588.154 79.9362 589.661 73.3336 590.501 66.4576H590.663C591.847 73.4846 593.161 80.653 595.003 86.9443L611.382 141.378H637.927L666.659 42.594H644.97L629.592 97.7725C627.923 103.621 626.426 109.902 625.263 116.778H625.069C624.056 110.26 622.552 103.807 620.568 97.4613L603.176 42.594H580.303L563.105 97.7725C561.102 104.073 559.756 110.789 558.582 117.373H558.421C557.419 110.497 556.095 103.611 554.253 97.1783L538.864 42.594H516.013ZM711.447 42.594L672.032 141.368H693.893L701.744 121.174H744.679L752.53 141.368H776.275L736.01 42.594H711.447ZM921.418 42.594V141.368H982.726V125.145H943.15V98.3385H980.733V82.8413H943.15V58.5439H982.726V42.6035L921.418 42.594ZM1014.64 42.594V141.368H1035.69V106.111C1035.69 94.2637 1035.34 77.5876 1034.67 69.108C1038.01 75.5408 1043.19 83.3035 1048.03 90.755L1081.45 141.368H1108V42.594H1086.96V73.3242C1086.96 85.4729 1087.29 104.205 1088.14 114.156C1083.95 106.686 1078.29 97.9046 1073.28 90.3022L1041.51 42.594H1014.64ZM166.885 58.1289C186.259 58.1289 196.952 70.1361 196.952 92.0849C196.952 115.788 181.23 125.72 166.519 125.72C146.306 125.72 136.98 112.119 136.98 91.1983C136.98 68.9571 151.346 58.1289 166.885 58.1289ZM722.775 64.4013H723.142C724.649 69.9663 726.318 74.7956 728.483 80.2097L739.004 106.12H707.29L717.456 80.9549C719.792 75.2484 721.462 69.5325 722.797 64.4013H722.775Z" fill="black"/>
</svg>
