<svg width="1673" height="176" viewBox="0 0 1673 176" fill="none" xmlns="http://www.w3.org/2000/svg">
<g clip-path="url(#clip0_3605_549)">
<path d="M255.452 0.229248C209.811 0.229248 172.264 34.037 172.264 90.2585C172.264 142.953 197.718 175.997 249.65 175.997C295.795 175.997 332.887 141.945 332.887 85.7237C332.887 27.4867 300.834 0.229248 255.452 0.229248ZM712.063 0.229248C671.2 0.229248 647.307 21.1478 647.307 51.4122C647.307 106.886 719.15 92.534 719.15 125.058C719.15 140.694 705.789 147.488 689.145 147.488C676.792 147.488 663.187 144.725 653.597 141.425L651.582 171.917C662.179 174.68 674.24 175.981 686.349 175.981C728.204 175.981 753.706 152.51 753.706 120.49C753.706 67.7959 681.57 78.6209 681.57 48.1127C681.57 36.0199 691.681 27.4705 710.584 27.4705C720.922 27.4705 731.487 29.2096 741.061 31.989L742.849 3.28494C732.689 1.41528 722.392 0.393198 712.063 0.229248ZM1288.21 0.489307C1229.2 0.489307 1192.88 38.588 1192.88 92.0302C1192.88 143.977 1224.9 175.721 1278.86 175.721C1299.29 175.721 1320.23 171.95 1337.13 165.156V83.9358H1304.33V143.197C1297.3 145.288 1289.99 146.302 1282.65 146.204C1248.11 146.204 1228.42 125.025 1228.42 88.9745C1228.42 50.9083 1252.66 29.7297 1286.19 29.7297C1302.09 29.7297 1317.66 32.9805 1331.28 38.2792L1336.35 7.80347C1321.72 3.5125 1305.13 0.489307 1288.24 0.489307H1288.21ZM0.571289 2.97612L59.8338 173.185H97.3809L156.887 2.97612H123.371L89.8227 100.58C84.7839 114.932 82.0207 124.521 79.5013 136.126H78.9487C76.0888 124.805 72.7263 113.617 68.8711 102.595L35.8753 2.97612H0.571289ZM372.953 2.97612V173.185H460.969V144.416H405.754V2.99238L372.953 2.97612ZM496.273 2.97612V173.185H529.009V91.4776L583.981 173.185H626.859L561.81 85.1874L624.096 2.97612H584.241L529.025 80.1812V2.95987L496.273 2.97612ZM779.42 2.97612L822.77 173.185H860.577L885.267 78.6696C888.307 67.3245 890.582 55.947 891.85 44.098H892.094C893.882 56.207 895.865 68.5598 898.644 79.401L923.367 173.201H963.433L1006.8 2.97612H974.063L950.853 98.0603C948.333 108.138 946.074 118.963 944.318 130.812H944.026C942.496 119.578 940.227 108.458 937.232 97.5239L910.981 2.97612H876.457L850.5 98.0603C847.476 108.918 845.445 120.49 843.673 131.835H843.429C841.917 119.987 839.918 108.121 837.139 97.0363L813.912 2.97612H779.42ZM1074.4 2.97612L1014.91 173.185H1047.91L1059.76 138.386H1124.56L1136.41 173.185H1172.25L1111.48 2.97612H1074.4ZM1391.32 2.97612V173.185H1483.86V145.229H1424.12V99.0355H1480.85V72.3307H1424.12V30.4611H1483.86V2.99238L1391.32 2.97612ZM1532.04 2.97612V173.185H1563.8V112.429C1563.8 92.0139 1563.28 63.2774 1562.27 48.6653C1567.31 59.7503 1575.12 73.1271 1582.42 85.9675L1632.88 173.185H1672.94V2.97612H1641.18V55.9307C1641.18 76.8655 1641.69 109.145 1642.97 126.293C1636.65 113.42 1628.1 98.2879 1620.54 85.1874L1572.59 2.97612H1532.04ZM252.461 29.746C281.703 29.746 297.843 50.4369 297.843 88.2593C297.843 129.105 274.112 146.22 251.909 146.22C221.4 146.22 207.324 122.782 207.324 86.7315C207.324 48.4052 229.007 29.746 252.461 29.746ZM1091.5 40.5547H1092.05C1094.33 50.1444 1096.85 58.4663 1100.11 67.7959L1115.99 112.445H1068.13L1083.47 69.0799C1087 59.2465 1089.52 49.3967 1091.53 40.5547H1091.5Z" fill="black"/>
</g>
<defs>
<clipPath id="clip0_3605_549">
<rect width="1673" height="176" fill="white"/>
</clipPath>
</defs>
</svg>
