<svg width="442" height="176" viewBox="0 0 442 176" fill="none" xmlns="http://www.w3.org/2000/svg">
<g clip-path="url(#clip0_3606_804)">
<path d="M386.545 46.1147H398.292L402.936 47.2062L405.668 48.5706L408.399 50.7535L409.765 52.1178L411.404 54.0279L413.043 56.4837L416.048 62.7597L417.414 65.7613L419.326 70.1271L422.605 78.3132L424.517 83.4977L428.341 94.4124L429.98 99.324L433.258 109.966L435.99 120.062L437.902 127.702L440.088 137.798L441.454 145.166L442 149.532V151.988H430.527L426.156 150.896L423.424 148.986L421.239 146.803L419.326 142.983L417.687 132.341L416.321 124.974L374.252 125.247L372.613 131.522L370.428 142.437L368.789 151.442L368.516 151.988H357.862L354.31 150.896L352.398 149.259L351.305 147.076L350.486 143.802V139.709L351.305 134.251L352.671 127.429L354.583 119.789L356.769 112.149L358.681 105.873L361.959 96.0496L364.691 88.4093L366.876 82.952L369.335 76.9489L371.247 72.583L373.433 67.6713L377.53 59.4853L381.355 52.9365L384.633 48.2977L386.545 46.1147ZM394.74 66.0341L392.555 70.4L389.823 76.1302L386.818 82.952L385.179 87.3178L382.448 94.9582L380.535 100.961L378.896 106.964V108.056H411.131L411.404 106.964L410.038 102.053L407.853 95.231L404.575 85.6806L402.116 79.6775L399.111 73.1287L395.56 66.0341H394.74Z" fill="black"/>
<path d="M12.293 46.1147H67.2015L71.5723 47.2062L74.0309 48.5706L75.9431 50.4806L77.5822 53.4822L78.4017 57.8481V61.6682L77.5822 65.7613L75.1236 71.4915L72.9382 75.0388L70.7528 78.3132L68.5674 81.0419L66.6551 83.4977H66.1088L65.5624 84.5892L62.0111 88.4093L60.0989 90.5923L57.9135 93.3209H57.3671L56.8208 94.4124L53.2695 98.2326L52.9963 98.7783H52.4499L51.9036 99.8698L48.8986 103.144L48.6255 103.69H48.0791V104.236H47.5328L46.9864 105.327L43.9815 108.602L43.7083 109.147H43.1619L42.6156 110.239L39.6106 113.513L39.3375 114.059H38.7911L38.2447 115.15L35.7862 117.879L35.513 118.425H34.9666L34.4203 119.516L31.4153 123.064L28.6836 126.611L27.0445 129.34L25.4054 132.887V133.16L78.4017 133.433L78.6749 134.524L78.4017 143.256L77.5822 145.712L75.9431 148.167L74.5773 149.532L72.1187 151.169L68.8405 151.988H10.9271L7.64895 151.169L4.644 149.532L2.45859 147.349L0.81953 144.62L0 140.8V136.707L0.546354 133.16L3.00494 127.429L4.644 124.701L8.1953 119.789L11.7466 115.423L14.7515 111.876L17.2101 109.147L17.4833 108.602H18.0297V108.056H18.576L19.1224 106.964L22.1273 103.69L24.5859 100.688L26.225 98.7783H26.7713L27.3177 97.6868L29.7763 94.9582L30.0494 94.4124H30.5958L31.1422 93.3209L34.1471 90.0465L34.4203 89.5008H34.9666L35.513 88.4093L38.5179 85.1349L38.7911 84.5892H39.3375L39.8838 83.4977L42.3424 80.769L42.6156 80.2233H43.1619L43.7083 79.1318L45.6205 76.9489L45.8937 76.4031H46.44L46.9864 75.3116L50.2645 70.9458L52.7231 67.1256L53.5426 64.6698H0.273177L0 64.3969V57.0295L0.81953 53.2093L2.45859 50.4806L4.37083 48.5706L7.1026 47.2062L10.3807 46.3876L12.293 46.1147Z" fill="black"/>
<path d="M230.834 46.1147H304.319V54.5737L302.68 58.3938L300.494 61.1225L297.763 63.0326L294.484 64.3969L293.392 64.6698L272.357 64.9427L272.084 151.988H261.157L257.606 150.896L254.601 148.986V148.44H254.054L251.869 145.166L250.776 140.254L250.503 64.9427L220.454 64.6698L220.18 64.3969V57.0295L221 53.4822L222.639 50.7535L224.005 49.3892L226.463 47.4791L229.468 46.3876L230.834 46.1147Z" fill="black"/>
<path d="M95.3387 46.1147H106.812L110.09 47.2062L112.276 48.8434L114.188 50.7535L116.1 54.5737L116.373 56.2109V151.715L116.1 151.988H106.266L102.715 150.896L100.256 149.259L98.89 147.895L97.5242 146.257L95.8851 142.983L95.3387 139.981V46.1147Z" fill="black"/>
<path d="M340.651 73.9473L341.198 74.2201V151.715L340.925 151.988H331.09L327.539 150.896L324.807 148.986L322.895 147.076L321.256 144.074L320.436 141.619L320.163 139.163V74.2201L321.529 74.493L325.08 75.8573L327.539 76.4031H333.822L337.92 75.3116L340.651 73.9473Z" fill="black"/>
<path d="M329.451 36.2915L333.822 36.5644L337.92 37.6558L341.744 39.8388L344.203 42.0217V42.5675H344.749V43.1132H345.295L347.481 46.6605L348.847 50.4807L349.12 51.5721V58.3938L347.481 63.3055L345.569 66.307L343.11 69.0357L340.378 70.9458L336.827 72.583L333.822 73.4016H327.266L324.534 72.583L321.802 71.4915L318.524 69.3086V68.7628H317.978V68.2171H317.431V67.6713H316.885L315.246 65.4884L313.334 62.214L312.241 57.8481V52.1179L312.787 49.662L313.88 46.9334L315.519 43.9318L318.251 40.9303L321.256 38.7473L323.441 37.6558L327.539 36.5644L329.451 36.2915Z" fill="black"/>
<path d="M217.995 113.24H218.541V113.786L221 114.059L222.366 115.423L221.82 116.788L220.454 119.243L221 119.516L219.907 121.153L217.995 123.609L217.449 124.428H216.902L216.629 125.792L215.81 126.884V127.702L216.356 127.975L216.083 129.339L213.624 132.341L213.078 133.16H212.532L211.985 134.251L211.712 135.343L214.171 137.798L213.897 138.617L210.892 141.073L209.8 141.891H209.253V142.437L206.248 144.347L201.058 147.349L195.868 149.532L190.677 151.169L182.482 152.533H172.648L166.092 151.442L160.355 149.805L156.803 148.44L152.159 146.257L147.789 143.529L145.33 141.891V141.346L143.964 140.8L141.232 138.344L141.779 137.253L146.423 132.614H146.969L147.515 131.522L148.608 130.431H149.155L149.701 129.339L150.52 128.521L151.886 128.794L154.072 130.704L158.443 133.432L162.267 135.343L166.911 136.98L172.101 138.071L174.287 138.344H180.843L186.033 137.526L191.77 135.888L196.414 133.705L199.146 132.068L202.424 129.612L203.244 129.339V128.794L204.336 128.248L206.522 130.158L207.341 130.431L208.707 129.067L211.166 126.065H212.805L213.078 124.428L216.083 117.606L217.722 113.513L217.995 113.24Z" fill="black"/>
<path d="M172.921 46.1147H182.482L188.219 46.9334L194.502 48.5706L199.965 50.7535L205.156 53.4822L208.434 55.6651L211.985 58.3938L213.897 60.031L213.624 61.1225L211.166 63.5783L211.439 64.3969L213.624 66.307L214.99 67.6713L215.537 69.3085L223.185 75.8574L224.278 76.676V77.2217L222.093 76.1302V76.676H222.639L223.459 78.0403L222.093 77.4946L220.454 76.1302L222.639 78.8589V79.4047L221.546 79.6775L217.995 76.1302L218.541 77.2217V78.0403H219.088V78.5861L219.634 78.8589V79.6775L220.727 81.0419L220.454 81.8605H219.907L217.176 78.3132L214.99 75.3116L211.985 71.2186L209.253 69.0357L207.614 67.6713L206.522 68.2171L204.609 70.1271L203.517 69.8543L202.697 69.3085V68.7628L201.604 68.2171L197.507 65.4884L193.136 63.3054L189.585 61.9411L183.848 60.5768L181.936 60.3039H173.467L166.638 61.6682L162.267 63.3054L157.896 65.4884L154.891 67.3985L152.433 69.3085H151.886V69.8543L150.794 70.1271L150.247 69.8543V69.3085H149.701V68.7628H149.155V68.2171H148.608V67.6713H148.062V67.1256H147.515V66.5799H146.969V66.0341H146.423V65.4884H145.876V64.9427H145.33V64.3969H144.784V63.8512H144.237V63.3054H143.691V62.7597H143.145V62.214H142.598V61.6682H142.052V61.1225L141.232 60.8496L141.779 59.7582L145.33 56.7566L148.062 54.8465L151.613 52.6636L155.984 50.4806L160.082 48.8434L165.545 47.2062L172.921 46.1147ZM215.537 73.4016L216.083 74.493L216.902 75.0388L216.356 73.6744L215.537 73.4016Z" fill="black"/>
<path d="M138.501 63.0325L139.593 63.5782L148.608 72.5829L145.33 76.9487L143.145 80.496L140.959 85.1348L139.32 90.5922L138.501 96.0495V102.325L139.32 108.056L140.686 112.422L142.325 116.515L144.51 120.335L147.242 124.155L147.515 124.974H148.062L148.335 126.338L139.047 135.615L137.681 134.797V134.251H137.135L135.496 132.068V131.522H134.949L132.218 127.429L128.939 121.426L126.754 115.696L125.115 109.42L124.569 105.873L124.295 101.78V97.141L124.569 92.5022L125.934 85.6805L128.12 79.1317L130.578 73.9472L132.218 71.2185L134.13 68.217L136.588 65.2154L138.501 63.0325Z" fill="black"/>
<path d="M329.451 0L336.007 0.272868L341.198 1.09147L346.934 2.72868L352.944 5.1845L355.949 6.82171L359.774 9.27752L362.506 11.4605L366.057 14.462L366.33 15.8264L364.964 17.1907H364.418L363.871 18.2822L361.959 20.1922L360.593 19.6465V19.1008H360.047V18.555L358.954 18.0093L356.222 15.8264L352.398 13.3705L348.3 11.1876L342.564 9.00465L335.188 7.64031H325.9L318.524 9.00465L312.787 11.1876L307.597 13.9163L304.046 16.3721L300.494 19.3736L299.402 19.6465L295.031 15.2806V14.1891L298.036 11.7333L300.494 9.82326H301.041V9.27752L305.958 6.27597L311.148 3.82016L314.7 2.45581L319.617 1.09147L324.807 0.272868L329.451 0Z" fill="black"/>
<path d="M326.719 12.552H334.095L339.012 13.3706L344.476 15.0078L349.666 17.4636L353.218 19.9194L355.949 22.1024L357.588 23.7396L357.315 24.8311L355.949 26.1954L353.764 28.1055L352.944 27.8326V27.2869H352.398V26.7411L351.305 26.1954L348.027 23.7396L342.837 21.0109L337.647 19.3737L334.095 18.828H327.266L322.622 19.6466L316.885 21.5567L312.241 24.2853L308.143 27.5598L307.051 27.2869L303.773 24.0125L304.046 22.921L307.597 19.9194L311.422 17.4636L315.792 15.2807L318.797 14.1892L324.261 12.8249L326.719 12.552Z" fill="black"/>
<path d="M329.451 24.8311H332.183L336.007 25.3768L340.378 26.7411L344.203 28.6512L346.934 30.5613V31.107L348.027 31.6528L348.847 32.4714L348.573 33.5628L347.208 34.9272L345.842 36.0187L344.203 34.9272L342.017 33.29L337.646 31.107L332.729 30.0156H328.358L324.261 30.8342L320.983 32.1985L317.705 34.1086L316.885 34.9272H316.339V35.4729L314.973 35.2L312.514 32.7442L312.787 31.6528L314.153 30.5613H314.7V30.0156L317.431 28.3783L321.256 26.4683L326.173 25.1039L329.451 24.8311Z" fill="black"/>
<path d="M158.989 163.994H160.628L162.267 166.45L164.726 170.543V171.088L165.545 170.27L169.096 164.267L171.009 163.994L171.555 164.267V175.454L171.282 175.727H169.096V169.451L168.277 170.27L165.818 174.363H164.179L162.54 171.634L161.447 169.997L161.174 175.454L160.901 175.727H158.716L158.443 175.181V164.54L158.989 163.994Z" fill="black"/>
<path d="M141.506 163.994L143.418 164.267L146.15 168.633L147.242 170.543L148.062 170.816L148.608 169.451L150.794 165.631L151.613 164.267L153.525 163.994L154.072 164.267V175.454L153.799 175.727H151.886L151.613 175.454V169.724L150.52 170.816L148.335 174.363H146.969L145.876 172.999L143.964 169.997L143.418 169.724L143.691 170.543V175.181L143.418 175.727H141.232L140.959 175.181V164.54L141.506 163.994Z" fill="black"/>
<path d="M63.377 163.994H69.3869L71.8455 164.813L72.9382 166.177V168.087L72.1187 169.724L73.4846 171.361V173.817L72.1187 175.181L70.7528 175.727H63.1039L62.8307 164.813L63.377 163.994ZM65.8356 166.177L65.5625 166.45V168.633L65.8356 168.906H69.3869L70.2065 168.087L69.9333 166.723L69.3869 166.177H65.8356ZM66.1088 170.816L65.5625 171.361V173.271L66.1088 173.817H68.5674L70.4796 173.271L70.7528 172.999V171.634L69.3869 170.816H66.1088Z" fill="black"/>
<path d="M190.951 163.994H192.59L193.955 165.358L196.141 167.814L198.053 170.27L198.599 170.543V164.267L198.873 163.994H200.785L201.331 164.267V175.454L201.058 175.727H198.873L193.955 169.724L193.409 169.451V175.454L193.136 175.727H190.951L190.677 175.454V164.267L190.951 163.994Z" fill="black"/>
<path d="M28.4104 163.994H30.0494L32.7812 166.995L34.6934 169.451L35.7861 170.543V164.267L36.3325 163.994H38.2447L38.7911 165.085L38.5179 175.727H36.3325L34.4203 173.544V172.999H33.8739L31.4153 169.724H30.869L30.5958 175.727H28.1372L27.864 175.181V164.54L28.4104 163.994Z" fill="black"/>
<path d="M275.362 163.994H277.001L279.187 166.45V166.995H279.733L281.645 169.451L282.738 170.543V164.267L283.284 163.994H285.197L285.47 164.267V175.727H283.284L280.826 172.999L278.367 169.724L277.548 169.451V175.727H275.089L274.816 175.454V164.267L275.362 163.994Z" fill="black"/>
<path d="M431.619 163.994L433.532 164.267L436.537 167.814L438.722 170.543L438.995 164.267L439.541 163.994H441.454L441.727 164.267V175.454L441.454 175.727H439.541L437.083 172.999L434.624 169.997L433.805 169.451V175.454L433.532 175.727H431.346L431.073 175.454V164.267L431.619 163.994Z" fill="black"/>
<path d="M263.069 163.994H266.621L269.352 165.358V165.904H269.899L271.265 168.633V171.088L269.899 173.817L268.26 175.181L267.167 175.727L264.162 176L261.977 175.454L259.791 173.817L258.698 171.907L258.425 169.178L259.518 166.45L261.703 164.54L263.069 163.994ZM264.435 166.177L262.523 166.995L261.43 168.633V171.361L262.523 172.999L263.616 173.544H266.074L267.713 172.453L268.26 171.634V168.36L267.167 166.995L265.528 166.177H264.435Z" fill="black"/>
<path d="M369.335 163.994H374.252L376.984 164.813L378.623 166.723L378.896 168.633L378.35 170.543L376.984 171.907L377.257 172.999L378.623 174.909V175.727H376.164L374.252 173.271V172.726H371.794L371.52 175.727H369.062L368.789 175.454V164.267L369.335 163.994ZM371.794 166.45L371.52 166.723V169.997L371.794 170.27H374.798L376.164 168.906L375.891 167.268L374.798 166.45H371.794Z" fill="black"/>
<path d="M129.213 163.994H132.764L135.496 165.358V165.904H136.042L137.135 167.541L137.408 168.633V171.088L136.588 173.271L134.403 175.181L133.31 175.727L130.305 176L127.574 175.181L126.754 174.636V174.09H126.208V173.544H125.661L124.842 171.634V168.087L126.208 165.904L127.847 164.54L129.213 163.994ZM130.579 166.177L128.666 166.995L127.574 168.633L127.3 170.27L128.12 172.18L129.759 173.544H132.218L133.857 172.453L134.676 170.816V168.906L133.857 167.541L132.491 166.45L130.579 166.177Z" fill="black"/>
<path d="M357.042 163.994H360.593L363.052 165.358L364.418 166.995L365.237 169.178L364.964 171.634L363.871 173.817L361.686 175.454L359.227 176L356.496 175.727L354.31 174.363L352.944 172.726L352.398 171.088V168.633L353.764 165.904L356.222 164.267L357.042 163.994ZM358.135 166.177L356.496 166.995L355.403 168.36L355.13 170.543L355.949 172.453L357.315 173.544H360.047L361.686 172.453L362.232 171.361V168.633L361.14 166.995L359.501 166.177H358.135Z" fill="black"/>
<path d="M325.9 163.994H331.09L333.822 164.813L335.188 166.177L335.461 166.995V169.724L334.368 171.361L333.822 171.907L334.095 173.271L335.461 174.909V175.727H332.729L330.817 172.999L330.544 172.726L328.358 172.453V175.181L328.085 175.727H325.627L325.354 174.909V164.813L325.9 163.994ZM328.358 166.45L328.085 167.268V169.724L328.358 170.27H331.637L332.729 169.451V167.541L331.637 166.45H328.358Z" fill="black"/>
<path d="M313.607 163.994H317.431L320.163 165.631L321.256 166.995L321.802 168.633V171.088L320.983 173.271L319.07 175.181L317.705 175.727L314.7 176L312.514 175.454L310.875 174.363L309.509 172.453L309.236 171.634V168.087L310.602 165.904L311.968 164.813L313.607 163.994ZM314.973 166.177L312.787 167.268L311.968 168.633V171.088L313.061 172.999L314.153 173.544H316.885L318.524 172.18L319.07 171.088V168.633L318.524 167.541L316.885 166.45L314.973 166.177Z" fill="black"/>
<path d="M419.326 163.994H422.878L425.336 165.358L426.702 166.995L427.522 169.451L427.249 171.907L425.609 174.363L423.424 175.727L420.419 176L418.234 175.454L416.595 174.363L415.229 172.726L414.682 170.816L414.956 167.814L416.321 165.631L418.507 164.267L419.326 163.994ZM420.419 166.177L418.78 166.995L417.687 168.36L417.414 170.816L418.507 172.726L419.6 173.544H422.331L423.424 172.999V172.453H423.97L424.517 171.361V168.36L423.424 166.995L421.512 166.177H420.419Z" fill="black"/>
<path d="M92.0605 163.994H97.2509L99.9827 164.813L101.349 166.45L101.622 166.995V169.724L100.529 171.361L99.9827 171.634L100.256 172.999L101.349 174.636L101.622 175.727H98.8899L96.7045 172.726L94.5191 172.453L94.2459 175.727H91.7874V164.267L92.0605 163.994ZM94.5191 166.45L94.2459 166.995V169.724L94.5191 170.27H97.7972L98.8899 169.178V167.541L97.7972 166.45H94.5191Z" fill="black"/>
<path d="M339.832 163.994H344.749L346.934 164.54L348.574 165.631L349.393 166.995V169.451L348.574 171.088L346.934 172.18L346.115 172.453L342.017 172.726V175.727H339.559L339.286 175.454V164.267L339.832 163.994ZM342.29 166.45L342.017 166.723V169.997L342.29 170.27H345.295L346.661 169.178V167.541L345.295 166.45H342.29Z" fill="black"/>
<path d="M0.546354 163.994H9.56119L10.1075 164.267V165.904L7.1026 169.724H6.55624L6.00989 170.816L4.37083 172.726L4.09765 173.544H10.1075L10.3807 175.181L10.1075 175.727H0.273177L0 174.09L1.09271 172.453H1.63906L2.18541 171.361L3.82447 169.178H4.37083L4.91718 168.087L6.00989 166.45H0.546354L0.273177 166.177V164.267L0.546354 163.994Z" fill="black"/>
<path d="M42.8888 163.994H51.9036L52.1768 164.267V165.904L50.2645 168.36L49.7182 169.178H49.1718L48.6255 170.27L46.4401 172.999V173.271L52.1768 173.544L52.4499 173.817V175.454L52.1768 175.727H42.6156L42.3424 175.454V173.817L43.7083 171.907H44.2546L44.801 170.816L47.8059 167.268L48.0791 166.723L42.6156 166.45L42.3424 165.904V164.267L42.8888 163.994Z" fill="black"/>
<path d="M17.4833 163.994H19.6687L20.7614 165.631L24.0396 172.999L24.8591 174.636V175.727H22.4005L21.0346 173.544H16.1174L14.7516 175.727H12.5661L12.293 174.909L15.2979 168.36L17.2102 164.267L17.4833 163.994ZM18.3029 167.541L16.937 170.27V171.088L17.4833 171.361H19.6687L20.2151 171.088L19.9419 169.724L18.8492 167.541H18.3029Z" fill="black"/>
<path d="M230.561 163.994H232.473L233.293 165.085L237.664 174.909V175.727H235.205L233.839 173.544H228.922L227.556 175.727H225.098L225.371 174.363L228.922 166.45L230.015 164.267L230.561 163.994ZM231.108 167.541L229.742 170.27L230.015 171.361H232.747L233.02 170.27L231.654 167.541H231.108Z" fill="black"/>
<path d="M176.472 163.994H178.111L178.658 164.267L178.931 171.907L179.477 172.999L180.023 173.271H182.209L183.302 172.18L183.575 170.816V164.813L184.121 163.994H185.76L186.306 164.267V172.453L185.487 174.09L183.848 175.454L181.936 176L178.931 175.727L177.292 174.636L176.199 173.271L175.926 172.453V164.267L176.472 163.994Z" fill="black"/>
<path d="M81.1335 163.994H83.3189L84.1384 165.085L88.5092 174.909V175.727H86.0507L84.6848 173.544H79.7676L78.4017 175.727H76.2163L75.9431 174.909L80.5871 164.54L81.1335 163.994ZM81.953 167.541L80.5871 170.27L80.8603 171.361H83.5921L83.8652 170.27L82.4994 167.541H81.953Z" fill="black"/>
<path d="M386.818 163.994H388.457L389.277 164.813L391.189 168.906L393.648 174.636L393.921 175.727H391.189L390.096 173.544H384.906L383.813 175.727H381.355L381.628 174.09L384.906 166.995L386.272 164.267L386.818 163.994ZM387.365 167.268L386.272 169.724L385.999 171.088L386.272 171.361H389.004L389.277 170.543L387.638 167.268H387.365Z" fill="black"/>
<path d="M216.629 163.994H220.18L222.366 165.085L222.912 165.631L222.639 166.723L221.273 167.541L219.088 166.45L217.175 166.723L215.536 167.814L215.263 168.633V171.361L215.536 172.453L217.175 173.271H219.907L221 172.453L222.093 172.726L222.912 173.544L222.639 174.636L220.727 175.727L217.722 176L215.536 175.454L213.351 173.817L212.258 171.634V168.087L213.624 165.904L215.263 164.54L216.629 163.994Z" fill="black"/>
<path d="M115.554 163.994H119.105L121.837 165.358L122.11 166.177L120.744 167.541L119.651 166.995L118.012 166.45L116.1 166.723L114.734 167.268L114.188 168.906V171.088L115.281 172.726L116.373 173.271H118.832L120.198 172.453L121.837 173.271L121.564 174.636L119.651 175.727L116.92 176L114.461 175.454L113.095 174.636V174.09H112.549L111.183 171.634V168.087L112.822 165.631L115.554 163.994Z" fill="black"/>
<path d="M299.948 163.994H303.773L306.504 165.631V166.45L305.138 167.541L304.046 166.995L302.68 166.45L300.494 166.723L299.129 167.814L298.582 169.178L298.855 171.634L299.948 172.999L300.494 173.271H303.226L304.592 172.453H305.412V172.999L306.504 173.544L305.958 174.636L304.319 175.727L301.041 176L298.309 175.181L296.124 172.726L295.577 171.088V168.906L296.67 166.45L298.036 165.085L299.948 163.994Z" fill="black"/>
<path d="M239.303 163.994H248.591L249.137 164.54L248.864 166.45L245.586 166.723L245.313 175.454L245.04 175.727H242.854L242.581 175.454L242.308 166.723L239.303 166.45L238.756 164.813L239.303 163.994Z" fill="black"/>
<path d="M395.56 163.994H404.848L405.121 164.267V166.177L404.848 166.45H401.57V175.181L401.297 175.727H398.838L398.565 166.723L395.287 166.45L395.014 166.177V164.267L395.56 163.994Z" fill="black"/>
<path d="M56.2744 163.994H58.1866L58.733 165.085L58.4598 175.727H56.0012L55.728 175.454V164.267L56.2744 163.994Z" fill="black"/>
<path d="M252.415 163.994H254.601L254.874 164.267V175.454L254.601 175.727H252.142V164.267L252.415 163.994Z" fill="black"/>
<path d="M205.975 163.994H208.161L208.434 164.267V175.454L208.161 175.727H205.975L205.702 175.454V164.267L205.975 163.994Z" fill="black"/>
<path d="M408.672 163.994H410.311L411.131 164.54V175.181L410.858 175.727H408.399V164.267L408.672 163.994Z" fill="black"/>
</g>
<defs>
<clipPath id="clip0_3606_804">
<rect width="442" height="176" fill="white"/>
</clipPath>
</defs>
</svg>
